**ABCDEFGHIJKLMNOPQRSTUVWXYZabcdefghijklmnopqrstuvwxyz**************************
**PARASOLID !"#$%&'()*+,-./:;<=>?@[\]^_`{|}~0123456789**************************
**PART1;
MC=unknown;
MC_MODEL=unknown;
MC_ID=unknown;
OS=unknown;
OS_RELEASE=unknown;
FRU=Parasolid 34.1.198;
APPL=Onshape;
SITE=unknown;
USER=unknown;
FORMAT=text;
GUISE=transmit;
KEY=BTGapi::writeModels_.xmt;
FILE=BTGapi::writeModels_.xmt;
DATE=2022-12-01T06:28:55 (UTC);
**PART2;
SCH=SCH_3401198_34101;
USFLD_SIZE=0;
**PART3;
**END_OF_HEADER*****************************************************************
T51 : TRANSMIT FILE created by modeller version 340119823 SCH_3401198_34101_1300
6231 0 12 36 CCCI7 lattice222 0 CCCI4 mesh1006 0 I8 polyline1008 0 CCCCCCCDI5 ow
ner1040 0 CCCI16 boundary_lattice222 0 CCCI13 boundary_mesh1006 0 I17 boundary_p
olyline1008 0 CCCA16 index_map_offset0 0 1 dA9 index_map82 0 A17 node_id_index_m
ap82 0 A20 schema_embedding_map82 0 A5 child12 0 A14 lowest_node_id0 0 1 dA16 me
sh_offset_data206 0 Z1 1936 2 3 0 0 0 0 0 0 0 1e3 1e-8 0 4 0 1 0 1 1 5 0 6 7 8 0
 0 9 10 11 0 0 0 0 0 0 0 81 255 1 2 1936 12 1 13 0 14 0 15 70 11 CI9 list_type0
 0 1 uI10 notransmit0 0 1 lCCCDCCDI12 finger_index0 0 1 dI12 finger_block1012 0
 CZ3 0 4 T1 0 0 8 20 1 16 16 13 255 5 253 0 1 0 17 0 0 18 0 51 255 6 1796 0 19 2
0 0 0 +-.0398741188600623 .04 -.001940608639061465 1224646799147354e-31 1 0 .001
940608639061465 -1 1224646799147354e-31 0 31 255 7 1777 0 10 21 0 0 --.039874118
8600623 .03649052020951725 -.001940608639061465 0 1 0 0 0 1 .001940608639061465
 29 255 8 1695 0 11 22 0 -.04 .0085 433680868994202e-33 19 9 CCCCCCI5 frame230 0
 CA5 owner12 0 Z9 88 0 1 18 0 23 0 V0 16 255 10 1661 24 ?25 0 26 7 0 0 1 18 255
 11 1691 27 28 0 29 8 ?1 81 1 27 1866 12 11 30 0 31 32 33 17 255 28 0 34 35 36 1
1 37 38 0 39 -18 29 1646 40 36 11 41 22 ?1 81 1 40 1863 12 29 42 0 43 44 45 17 3
6 0 34 28 46 29 47 26 0 37 +18 41 1642 43 48 29 49 50 ?1 29 22 1648 0 29 50 8 -.
0398741188600623 .0085 0 29 50 1644 0 41 51 22 -.0398741188600623 .0364905202095
1725 0 29 51 1635 0 49 52 50 -.0401248262369404 .0085 -162625939908588e-19 18 49
 1631 31 47 41 53 51 ?1 29 52 1630 0 53 54 51 -.0401248262369404 .03649052020951
725 -162625939908593e-19 18 53 1626 44 25 49 55 52 ?1 29 54 1617 0 56 57 52 -.04
73540496217739 .03649052020951725 -.000958099243547826 18 56 895 58 59 60 61 54
 ?1 29 57 1616 0 61 62 54 -.04341742430504415 .03649052020951725 .002 18 61 896
 63 64 56 65 57 ?1 29 62 1615 0 65 66 57 -.0457639320225002 .03649052020951725 .
002 18 65 897 67 68 61 69 62 ?1 29 66 1614 0 55 70 62 -.0476189246248119 .036490
52020951725 .00102430150075226 18 55 635 71 72 53 73 66 ?1 29 70 1613 0 74 75 66
 -.04 .03649052020951725 .002 18 74 899 76 77 78 79 70 ?1 29 75 1612 0 79 80 70
 -.04 .03649052020951725 -693889390390723e-32 18 79 880 81 82 74 83 75 ?1 29 80
 634 0 73 84 75 -.04 .0085 .002 18 73 630 85 35 55 86 80 ?1 29 84 211 0 87 88 80
 0 0 0 18 87 188 89 90 91 60 84 ?1 29 88 212 0 60 92 84 0 0 .002 18 60 192 93 94
 87 56 88 ?1 29 92 54 0 86 95 88 489858719658941e-32 .04 0 18 86 52 96 97 73 91
 92 ?1 29 95 49 0 91 98 92 489858719658941e-32 .04 .002 18 91 47 99 100 86 87 95
 ?1 29 98 1169 0 69 101 95 -.0473540496217739 .0085 -.000958099243547826 18 69 1
039 102 103 65 104 98 ?1 29 101 1170 0 104 105 98 -.04341742430504415 .0085 .002
 18 104 1040 106 107 69 108 101 ?1 29 105 1171 0 108 109 101 -.0457639320225002
 .0085 .002 18 108 1041 110 111 104 112 105 ?1 29 109 1172 0 112 113 105 -.04761
89246248119 .0085 .00102430150075226 18 112 1042 114 115 108 116 109 ?1 29 113 1
173 0 116 117 109 -.04 .04 .002 18 116 879 118 119 112 78 113 ?1 29 117 1174 0 7
8 120 113 -.04 .04 0 18 78 885 121 122 116 74 117 ?1 29 120 1179 0 83 123 117 -.
04 693889390390723e-32 .002 18 83 1031 124 125 79 126 120 ?1 29 123 1180 0 126 0
 120 -.04 693889390390723e-32 0 18 126 1058 127 128 83 0 123 ?1 81 1 127 1868 12
 126 129 0 32 114 130 17 128 0 131 125 132 126 39 133 0 134 +15 255 131 1070 0 1
28 135 0 17 125 0 131 136 128 83 134 137 0 138 +17 132 0 131 128 136 11 35 139 0
 0 -17 39 0 140 37 141 11 128 133 0 132 -16 133 987 142 ?128 143 144 145 0 0 1 1
7 134 0 146 147 148 126 125 137 0 141 -15 146 616 0 134 149 0 17 147 0 146 94 13
4 87 141 150 0 0 -17 148 0 146 134 94 83 151 152 0 0 -16 137 951 153 ?125 139 0
 154 0 0 1 17 141 0 140 39 155 126 147 150 0 0 +15 140 231 0 39 156 0 17 155 0 1
40 141 157 87 158 159 0 147 +16 150 152 160 ?141 161 162 163 0 0 1 81 1 160 1928
 12 150 164 0 165 166 167 16 161 7 168 ?169 170 150 171 0 0 1 16 162 156 165 ?90
 150 152 172 0 0 1 30 255 163 202 0 150 172 173 0 +-.02 2449293598294705e-33 0 -
1 1224646799147352e-31 0 30 172 203 0 162 174 163 0 +0 0 .001 0 0 -1 30 173 245
 0 175 163 176 0 +-.04 .04 .002 -1224646799147352e-31 -1 0 16 175 213 177 ?178 1
79 180 173 180 180 1 30 176 246 0 179 173 181 0 +-.0476189246248119 .04 .0010243
0150075226 -1224646799147352e-31 -1 0 16 179 214 182 ?183 184 175 176 0 0 1 30 1
81 247 0 184 176 185 0 +-.0457639320225002 .04 .002 -1224646799147352e-31 -1 0 1
6 184 215 186 ?187 188 179 181 0 0 1 30 185 248 0 188 181 189 0 +-.0434174243050
4415 .04 .002 -1224646799147352e-31 -1 0 16 188 216 190 ?191 192 184 185 0 0 1 3
0 189 249 0 192 185 193 0 +-.0473540496217739 .04 -.000958099243547826 -12246467
99147352e-31 -1 0 16 192 217 194 ?195 196 188 189 0 0 1 30 193 250 0 196 189 197
 0 +-.04 .04 0 -1224646799147352e-31 -1 0 16 196 218 198 ?199 159 192 193 0 0 1
 30 197 251 0 159 193 200 0 +489858719658941e-32 .04 0 -1224646799147352e-31 -1
 0 16 159 219 201 ?155 202 196 197 0 0 1 30 200 252 0 202 197 203 0 +48985871965
8941e-32 .04 .002 -1224646799147352e-31 -1 0 16 202 220 204 ?205 206 159 200 0 0
 1 31 203 370 0 207 200 208 0 --.01 .01 0 0 0 1 -1 1224646799147352e-31 0 .0036
 16 207 394 209 ?210 152 211 203 0 0 1 31 208 460 0 206 203 212 0 +-.03 .01 .002
 0 0 1 -1 1224646799147352e-31 0 .0056 16 206 458 213 ?214 215 202 208 0 0 1 31
 212 464 0 215 208 216 0 --.03 .01 216840434497101e-32 0 0 1 -1 1224646799147352
e-31 0 .0036 16 215 462 217 ?218 219 206 212 0 0 1 31 216 476 0 219 212 220 0 +-
.01 .03 .002 0 0 1 -1 1224646799147352e-31 0 .0056 16 219 474 221 ?222 223 215 2
16 0 0 1 31 220 480 0 223 216 224 0 --.01 .03 0 0 0 1 -1 1224646799147352e-31 0
 .0036 16 223 478 225 ?226 227 219 220 0 0 1 31 224 492 0 227 220 228 0 +-.03 .0
3 .002 0 0 1 -1 1224646799147352e-31 0 .0056 16 227 490 229 ?230 231 223 224 0 0
 1 31 228 496 0 231 224 232 0 --.03 .03 216840434497101e-32 0 0 1 -1 12246467991
47352e-31 0 .0036 16 231 494 233 ?234 235 227 228 0 0 1 30 232 647 0 235 228 236
 0 +-.04380946231240595 .0085 .001512150750376135 -.991899499749248 -22942284640
32895e-31 -.127025125062688 16 235 645 237 ?115 238 231 232 0 0 1 30 236 1618 0
 239 232 240 0 +-.04367702481088695 .03649052020951725 -.000479049621773913 -.99
1619848709566 0 -.129190075645216 16 239 1627 241 ?59 211 242 236 0 0 1 30 240 1
619 0 243 236 244 0 +-.04 .03649052020951725 -.0687486354243376 0 0 1 16 243 846
 245 ?246 247 139 240 0 0 1 30 244 1620 0 238 240 248 0 +-.04380946231240595 .03
649052020951725 .001512150750376135 -.991899499749248 0 -.127025125062688 16 238
 651 249 ?250 251 235 244 0 0 1 31 248 1621 0 252 244 253 0 +-.048 .036490520209
51725 .004 0 1 0 0 0 1 .003 16 252 805 254 ?255 256 257 248 0 0 1 30 253 1622 0
 256 248 258 0 +-.0445906781637722 .03649052020951725 .002 -1 0 0 16 256 855 259
 ?68 242 252 253 0 0 1 31 258 1623 0 242 253 260 0 +-.048 .03649052020951725 .00
4 0 1 0 0 0 1 .005 16 242 852 261 ?64 239 256 258 0 0 1 30 260 1638 0 251 258 26
2 0 +-.0401248262369404 .0085 -162625939908589e-19 -1224646799147354e-31 -1 3159
39070741066e-47 16 251 1636 263 ?264 265 238 260 0 0 1 30 262 1645 0 265 260 266
 0 +-.02 .03649052020951725 0 -1 0 0 16 265 1643 267 ?82 268 251 262 0 0 1 30 26
6 1649 0 268 262 269 0 --.0398741188600623 .03649052020951725 0 -122464679914735
4e-31 -1 0 16 268 1647 270 ?271 38 265 266 0 0 1 30 269 1652 0 38 266 21 0 +-.04
75 .0085 0 1 2312964634635745e-31 0 16 38 1650 272 ?37 26 268 269 0 0 1 31 21 17
76 0 26 269 7 0 +-.0398741188600623 .0085 -.001940608639061465 -2312964634635745
e-31 1 0 -1 -2312964634635745e-31 0 .001940608639061465 16 26 1656 273 ?36 10 38
 21 0 0 1 81 1 273 1856 12 26 274 0 24 270 275 80 7 CCCCCDI12 legal_owners0 16 1
 lCZ1 12 276 277 9000 0 0 0 0 3 5 0 0 0 FFTFTFTTFFFFFFFF3 81 1 274 1817 276 26 0
 273 278 279 280 81 1 24 1855 12 10 279 0 241 273 281 81 1 270 1857 12 268 278 0
 273 263 282 84 255 3 275 JHR81 1 278 1816 276 268 0 270 283 274 284 81 1 263 18
58 12 251 283 0 270 272 285 84 3 282 JHN81 1 283 1815 276 251 0 263 286 278 287
 81 1 272 1859 12 38 286 0 263 267 288 84 3 285 JHJ81 1 286 1814 276 38 0 272 28
9 283 290 81 1 267 1860 12 265 289 0 272 81 291 84 3 288 JHF81 1 289 1813 276 26
5 0 267 292 286 293 81 1 81 1861 12 79 292 0 267 43 294 84 3 291 JHB81 1 292 181
2 276 79 295 81 296 289 297 81 1 43 1862 12 41 296 0 81 40 298 84 3 294 JHU81 1
 296 1811 276 41 0 43 42 292 299 84 3 298 JHQ80 1 276 300 301 9000 0 0 0 0 3 6 0
 0 0 FFTFTFTTFFFFFFFF1 81 1 42 1810 276 29 0 40 302 296 303 82 255 3 299 6 4 0 8
1 1 302 1809 276 53 0 44 304 42 305 82 3 303 6 3 0 81 1 44 1864 12 53 302 0 40 3
1 306 81 1 304 1808 276 49 0 31 30 302 307 82 3 305 6 2 0 81 1 31 1865 12 49 304
 0 44 27 308 81 1 30 1807 276 11 309 27 310 304 311 82 3 307 6 1 0 81 1 309 1693
 312 11 0 30 313 0 314 81 1 310 1607 276 135 315 316 129 30 317 82 3 311 6 0 0 1
4 255 135 1075 32 ?318 319 131 5 320 +0 0 318 319 23 81 1 315 1524 312 135 0 310
 321 322 323 81 1 316 1844 324 135 310 32 325 326 327 81 1 129 1606 276 126 328
 127 329 310 330 82 3 317 4 16 2 81 1 328 1468 312 126 0 129 331 332 333 81 1 32
9 1604 276 112 334 114 335 129 336 82 3 330 4 19 0 81 1 334 1461 312 112 0 329 3
37 338 339 81 1 114 1869 12 112 329 0 127 110 340 81 1 335 1603 276 108 337 110
 341 329 342 82 3 336 4 17 0 81 1 337 1460 312 108 0 335 343 334 344 81 1 110 18
70 12 108 335 0 114 106 345 81 1 341 1602 276 104 343 106 346 335 347 82 3 342 4
 16 0 81 1 343 1459 312 104 0 341 348 337 349 81 1 106 1871 12 104 341 0 110 102
 350 81 1 346 1601 276 69 348 102 351 341 352 82 3 347 4 15 0 81 1 348 1458 312
 69 0 346 353 343 354 81 1 102 1872 12 69 346 0 106 124 355 81 1 351 1600 276 83
 331 124 356 346 357 82 3 352 4 14 0 81 1 331 1467 312 83 0 351 295 328 358 81 1
 124 1873 12 83 351 0 102 359 360 81 1 356 1599 276 143 361 359 362 351 363 82 3
 357 4 13 0 16 143 999 359 ?111 364 133 365 0 0 1 81 1 361 1502 312 143 0 356 36
6 367 368 81 1 359 1874 12 143 356 0 124 142 369 81 1 362 1598 276 133 367 142 3
70 356 371 82 3 363 4 39 1 81 1 367 1503 312 133 0 362 361 372 373 81 1 142 1875
 12 133 362 0 359 374 375 81 1 370 1597 276 139 376 374 377 362 378 82 3 371 4 3
8 1 16 139 984 374 ?35 243 137 379 0 0 1 81 1 376 1507 312 139 0 370 380 381 382
 81 1 374 1876 12 139 370 0 142 383 384 81 1 377 1596 276 144 372 383 385 370 38
6 82 3 378 4 37 1 16 144 975 383 ?138 133 247 387 0 0 1 81 1 372 1504 312 144 0
 377 367 388 389 81 1 383 1877 12 144 377 0 374 390 391 81 1 385 1595 276 364 36
6 390 392 377 393 82 3 386 4 36 1 16 364 969 390 ?394 395 143 396 0 0 1 81 1 366
 1501 312 364 0 385 397 361 398 81 1 390 1878 12 364 385 0 383 399 400 81 1 392
 1594 276 395 397 399 401 385 402 82 3 393 4 35 1 16 395 966 399 ?403 257 364 40
4 0 0 1 81 1 397 1500 312 395 0 392 405 366 406 81 1 399 1879 12 395 392 0 390 1
53 407 81 1 401 1592 276 137 381 153 408 392 409 82 3 402 4 34 1 81 1 381 1508 3
12 137 0 401 376 410 411 81 1 153 1880 12 137 401 0 399 412 413 81 1 408 1590 27
6 414 415 416 417 401 418 82 3 409 4 32 1 14 414 920 412 ?19 318 419 5 420 +0 0
 19 318 23 81 1 415 1526 312 414 0 408 322 421 422 81 1 416 1846 324 414 408 412
 326 423 424 81 1 417 1589 276 74 425 76 426 408 427 82 3 418 4 14 2 81 1 425 14
64 312 74 0 417 428 295 429 81 1 76 1882 12 74 417 0 412 67 430 81 1 426 1588 27
6 65 353 67 431 417 432 82 3 427 4 12 0 81 1 353 1457 312 65 0 426 433 348 434 8
1 1 67 1883 12 65 426 0 76 63 435 81 1 431 1587 276 61 433 63 436 426 437 82 3 4
32 4 11 0 81 1 433 1456 312 61 0 431 438 353 439 81 1 63 1884 12 61 431 0 67 58
 440 81 1 436 1586 276 56 438 58 441 431 442 82 3 437 4 10 0 81 1 438 1455 312 5
6 0 436 443 433 444 81 1 58 1885 12 56 436 0 63 121 445 81 1 441 1585 276 78 428
 121 446 436 447 82 3 442 4 9 0 81 1 428 1463 312 78 0 441 338 425 448 81 1 121
 1886 12 78 441 0 58 118 449 81 1 446 1583 276 116 338 118 450 441 451 82 3 447
 4 8 0 81 1 338 1462 312 116 0 446 334 428 452 81 1 118 1887 12 116 446 0 121 25
9 453 81 1 450 1582 276 256 454 259 455 446 456 82 3 451 4 6 0 81 1 454 1497 312
 256 0 450 457 405 458 81 1 259 1888 12 256 450 0 118 261 459 81 1 455 1581 276
 242 457 261 460 450 461 82 3 456 4 31 1 81 1 457 1496 312 242 0 455 462 454 463
 81 1 261 1889 12 242 455 0 259 245 464 81 1 460 1579 276 243 380 245 465 455 46
6 82 3 461 4 30 1 81 1 380 1506 312 243 0 460 388 376 467 81 1 245 1890 12 243 4
60 0 261 468 469 81 1 465 1578 276 247 388 468 470 460 471 82 3 466 4 28 1 16 24
7 822 468 ?472 144 243 473 0 0 1 81 1 388 1505 312 247 0 465 372 380 474 81 1 46
8 1891 12 247 465 0 245 254 475 81 1 470 1577 276 252 405 254 476 465 477 82 3 4
71 4 27 1 81 1 405 1498 312 252 0 470 454 397 478 81 1 254 1892 12 252 470 0 468
 249 479 81 1 476 1575 276 238 332 249 480 470 481 82 3 477 4 26 1 81 1 332 1469
 312 238 0 476 328 482 483 81 1 249 1893 12 238 476 0 254 237 484 81 1 480 1574
 276 235 482 237 485 476 486 82 3 481 4 24 1 81 1 482 1470 312 235 0 480 332 487
 488 81 1 237 1894 12 235 480 0 249 71 489 81 1 485 1573 276 55 490 71 491 480 4
92 82 3 486 4 23 1 81 1 490 1449 312 55 0 485 0 493 494 81 1 71 1895 12 55 485 0
 237 85 495 81 1 491 1572 276 73 493 85 496 485 497 82 3 492 4 5 0 81 1 493 1450
 312 73 0 491 490 498 499 81 1 85 1896 12 73 491 0 71 500 501 81 1 496 1571 276
 180 502 500 503 491 504 82 3 497 4 4 0 16 180 626 500 ?505 175 506 173 175 175
 1 81 1 502 1486 312 180 0 496 507 508 509 81 1 500 1897 12 180 496 0 85 233 510
 81 1 503 1570 276 231 487 233 511 496 512 82 3 504 4 22 1 81 1 487 1471 312 231
 0 503 482 513 514 81 1 233 1898 12 231 503 0 500 229 515 81 1 511 1569 276 227
 513 229 516 503 517 82 3 512 4 21 1 81 1 513 1472 312 227 0 511 487 518 519 81
 1 229 1899 12 227 511 0 233 520 521 81 1 516 1568 276 522 523 524 525 511 526 8
2 3 517 4 20 1 14 522 484 520 ?527 149 528 5 529 +0 0 527 149 23 81 1 523 1516 3
12 522 0 516 530 531 532 81 1 524 1836 324 522 516 520 533 534 535 81 1 525 1567
 276 223 518 225 536 516 537 82 3 526 4 13 2 81 1 518 1473 312 223 0 525 513 538
 539 81 1 225 1901 12 223 525 0 520 221 540 81 1 536 1566 276 219 538 221 541 52
5 542 82 3 537 4 19 1 81 1 538 1474 312 219 0 536 518 543 544 81 1 221 1902 12 2
19 536 0 225 545 546 81 1 541 1565 276 527 531 534 547 536 548 82 3 542 4 18 1 1
4 527 468 545 ?549 522 550 5 551 +0 0 549 522 23 81 1 531 1517 312 527 0 541 523
 552 553 81 1 534 1837 324 527 541 545 524 554 555 81 1 547 1564 276 215 543 217
 556 541 557 82 3 548 4 12 2 81 1 543 1475 312 215 0 547 538 558 559 81 1 217 19
04 12 215 547 0 545 213 560 81 1 556 1563 276 206 558 213 561 547 562 82 3 557 4
 17 1 81 1 558 1476 312 206 0 556 543 563 564 81 1 213 1905 12 206 556 0 217 565
 566 81 1 561 1562 276 549 552 554 567 556 568 82 3 562 4 16 1 14 549 452 565 ?5
69 527 570 5 571 +0 0 569 527 23 81 1 552 1518 312 549 0 561 531 572 573 81 1 55
4 1838 324 549 561 565 534 574 575 81 1 567 1561 276 576 577 578 579 561 580 82
 3 568 4 11 2 14 576 421 581 ?319 156 582 5 583 +0 0 319 156 23 81 1 577 1522 31
2 576 0 567 584 321 585 81 1 578 1842 324 576 567 581 586 325 587 81 1 579 1560
 276 207 588 209 589 567 590 82 3 580 4 10 2 81 1 588 1493 312 207 0 579 591 462
 592 81 1 209 1908 12 207 579 0 581 593 594 81 1 589 1559 276 211 462 593 595 57
9 596 82 3 590 4 15 1 16 211 386 593 ?597 207 239 598 0 0 1 81 1 462 1494 312 21
1 0 589 588 457 599 81 1 593 1909 12 211 589 0 209 600 601 81 1 595 1558 276 569
 572 574 602 589 603 82 3 596 4 14 1 14 569 236 600 ?604 549 605 5 606 -0 0 604
 549 23 81 1 572 1519 312 569 0 595 552 607 608 81 1 574 1839 324 569 595 600 55
4 609 610 81 1 602 1557 276 604 607 609 611 595 612 82 3 603 4 9 2 14 604 234 61
3 ?156 569 614 5 615 -0 0 156 569 23 81 1 607 1520 312 604 0 602 572 584 616 81
 1 609 1840 324 604 602 613 574 586 617 81 1 611 1554 276 618 619 620 621 602 62
2 82 3 612 4 8 2 14 618 228 623 ?624 17 625 5 626 -0 0 624 17 23 81 1 619 1510 3
12 618 0 611 410 627 628 81 1 620 1830 324 618 611 623 629 630 631 81 1 621 1553
 276 624 627 630 632 611 633 82 3 622 4 5 2 14 624 226 634 ?635 618 636 5 637 -0
 0 635 618 23 81 1 627 1511 312 624 0 621 619 638 639 81 1 630 1831 324 624 621
 634 620 640 641 81 1 632 1552 276 635 638 640 642 621 643 82 3 633 4 4 2 14 635
 224 644 ?645 624 646 5 647 +0 0 645 624 23 81 1 638 1512 312 635 0 632 627 648
 649 81 1 640 1832 324 635 632 644 630 650 651 81 1 642 1551 276 645 648 650 652
 632 653 82 3 643 4 3 2 14 645 222 654 ?655 635 656 5 657 +0 0 655 635 23 81 1 6
48 1513 312 645 0 642 638 658 659 81 1 650 1833 324 645 642 654 640 660 661 81 1
 652 1550 276 202 563 204 662 642 663 82 3 653 4 2 2 81 1 563 1477 312 202 0 652
 558 664 665 81 1 204 1916 12 202 652 0 654 201 666 81 1 662 1549 276 159 664 20
1 667 652 668 82 3 663 4 13 1 81 1 664 1478 312 159 0 662 563 669 670 81 1 201 1
917 12 159 662 0 204 198 671 81 1 667 1548 276 196 669 198 672 662 673 82 3 668
 4 12 1 81 1 669 1479 312 196 0 667 664 674 675 81 1 198 1918 12 196 667 0 201 1
94 676 81 1 672 1547 276 192 674 194 677 667 678 82 3 673 4 11 1 81 1 674 1481 3
12 192 0 672 669 679 680 81 1 194 1919 12 192 672 0 198 190 681 81 1 677 1546 27
6 188 679 190 682 672 683 82 3 678 4 10 1 81 1 679 1482 312 188 0 677 674 684 68
5 81 1 190 1920 12 188 677 0 194 186 686 81 1 682 1545 276 184 684 186 687 677 6
88 82 3 683 4 9 1 81 1 684 1483 312 184 0 682 679 689 690 81 1 186 1921 12 184 6
82 0 190 182 691 81 1 687 1544 276 179 689 182 692 682 693 82 3 688 4 8 1 81 1 6
89 1484 312 179 0 687 684 507 694 81 1 182 1922 12 179 687 0 186 177 695 81 1 69
2 1543 276 175 507 177 696 687 697 82 3 693 4 7 1 81 1 507 1485 312 175 0 692 68
9 502 698 81 1 177 1923 12 175 692 0 182 93 699 81 1 696 1542 276 60 443 93 700
 692 701 82 3 697 4 6 1 81 1 443 1454 312 60 0 696 702 438 703 81 1 93 1924 12 6
0 696 0 177 89 704 81 1 700 1541 276 87 702 89 705 696 706 82 3 701 4 3 0 81 1 7
02 1453 312 87 0 700 707 443 708 81 1 89 1925 12 87 700 0 93 709 710 81 1 705 15
40 276 152 591 709 711 700 712 82 3 706 4 2 0 16 152 160 709 ?151 162 207 174 0
 0 1 81 1 591 1492 312 152 0 705 713 588 714 81 1 709 1926 12 152 705 0 89 165 7
15 81 1 711 1539 276 162 713 165 164 705 716 82 3 712 4 5 1 81 1 713 1491 312 16
2 0 711 717 591 718 81 1 165 1927 12 162 711 0 709 160 719 81 1 164 1538 276 150
 717 160 720 711 721 82 3 716 4 4 1 81 1 717 1490 312 150 0 164 722 713 723 81 1
 720 1537 276 149 530 533 724 164 725 82 3 721 4 3 1 14 149 120 166 ?522 655 146
 5 726 -0 0 522 655 23 81 1 530 1515 312 149 0 720 658 523 727 81 1 533 1835 324
 149 720 166 660 524 728 81 1 724 1536 276 86 498 96 729 720 730 82 3 725 4 1 2
 81 1 498 1451 312 86 0 724 493 707 731 81 1 96 1930 12 86 724 0 166 99 732 81 1
 729 1535 276 91 707 99 733 724 734 82 3 730 4 1 0 81 1 707 1452 312 91 0 729 49
8 702 735 81 1 99 1931 12 91 729 0 96 736 737 81 1 733 1534 276 506 508 736 738
 729 739 82 3 734 4 0 0 16 506 17 736 ?740 180 170 741 0 0 1 81 1 508 1487 312 5
06 0 733 502 742 743 81 1 736 1932 12 506 733 0 99 744 745 81 1 738 1533 276 170
 742 744 746 733 747 82 3 739 4 2 1 16 170 12 744 ?97 506 161 748 0 0 1 81 1 742
 1488 312 170 0 738 508 722 749 81 1 744 1933 12 170 738 0 736 168 750 81 1 746
 1532 276 161 722 168 751 738 752 82 3 747 4 1 1 81 1 722 1489 312 161 0 746 742
 717 753 81 1 168 1934 12 161 746 0 744 14 754 81 1 751 1531 276 655 658 660 755
 746 756 82 3 752 4 0 1 14 655 1 14 ?149 645 757 5 758 +0 0 149 645 23 81 1 658
 1514 312 655 0 751 648 530 759 81 1 660 1834 324 655 751 14 650 533 760 81 1 75
5 1530 276 1 761 762 0 751 763 82 3 756 4 0 2 81 1 761 1528 764 1 421 755 0 0 76
5 81 1 762 1826 766 1 755 767 0 0 768 82 3 763 4 0 3 80 1 766 769 770 8038 0 0 0
 0 0 0 0 0 0 TTTTTTTTTTTTTFTF10 81 1 767 1827 769 1 762 13 0 0 771 98 255 6 768
 80 97 114 116 32 49 80 1 769 772 773 8017 0 0 0 0 0 0 0 0 0 TTTTTTTTTTTTTFTF3 8
1 1 13 1828 774 1 767 2 0 0 775 84 6 771 Part 180 1 774 324 776 8040 0 0 0 0 3 5
 0 0 0 TTTFFFFFFFFFFFFF2 83 255 3 775 .615686274509804 .811764705882353 .9294117
64705882 79 255 17 776 SDL/TYSA_COLOUR_279 13 773 SDL/TYSA_NAME79 14 770 SDL/TYS
A_UNAME80 1 764 312 777 9000 0 0 0 0 3 5 0 0 0 FFTFTFTTFFFFFFFF2 81 1 421 1527 3
12 1 0 761 415 778 779 83 1 765 77 80 1 312 780 781 9000 0 0 0 0 3 5 0 0 0 FFTFT
FTTFFFFFFFF2 81 1 778 1629 312 239 0 782 421 313 783 83 1 779 -1 81 1 782 1819 2
76 239 778 241 279 784 785 81 1 313 1634 312 257 0 784 778 309 786 83 1 783 46 1
6 257 1632 787 ?103 252 395 788 0 0 1 81 1 784 1820 276 257 313 787 782 789 790
 83 1 786 50 81 1 787 1853 12 257 784 0 791 241 792 81 1 789 1821 276 19 0 423 7
84 793 794 82 3 790 6 7 1 14 19 1784 791 ?0 414 795 5 6 -0 0 0 414 23 81 1 423 1
847 324 19 789 791 416 0 796 81 1 793 1822 276 17 410 629 789 797 798 82 3 794 6
 0 2 14 17 230 799 ?618 0 800 5 801 -0 0 618 0 23 81 1 410 1509 312 17 0 793 381
 619 802 81 1 629 1829 324 17 793 799 0 620 803 81 1 797 1823 276 156 584 586 79
3 804 805 82 3 798 6 1 2 14 156 232 806 ?576 604 807 5 808 -0 0 576 604 23 81 1
 584 1521 312 156 0 797 607 577 809 81 1 586 1841 324 156 797 806 609 578 810 81
 1 804 1824 276 319 321 325 797 811 812 82 3 805 6 2 2 14 319 1079 813 ?135 576
 34 5 814 -0 0 135 576 23 81 1 321 1523 312 319 0 804 577 315 815 81 1 325 1843
 324 319 804 813 578 316 816 81 1 811 1825 276 318 322 326 804 0 817 82 3 812 6
 3 2 14 318 932 818 ?414 135 819 5 20 +0 0 414 135 23 81 1 322 1525 312 318 0 81
1 315 415 820 81 1 326 1845 324 318 811 818 316 416 821 82 3 817 6 4 2 80 1 324
 0 822 8001 0 0 0 0 3 5 0 0 0 FFFFTFTFFFFFFFFF2 81 1 818 1848 12 318 326 0 0 813
 823 83 3 821 .615686274509804 .811764705882353 .929411764705882 81 1 813 1849 1
2 319 325 0 818 806 824 84 3 823 JHS81 1 806 1850 12 156 586 0 813 799 825 84 3
 824 JHO81 1 799 1851 12 17 629 0 806 791 826 84 3 825 JHK81 1 791 1852 12 19 42
3 0 799 787 827 84 3 826 JHG84 3 827 JHC79 15 822 SDL/TYSA_COLOUR83 1 820 76 15
 819 911 0 828 318 0 50 255 20 1611 0 318 529 6 0 +-.0475 .03649052020951725 -.0
687486354243376 0 1 0 0 0 1 13 23 89 0 0 0 0 0 0 9 17 52 255 529 486 0 522 551 2
0 0 --.03 .03 -.000849999999999988 0 0 1 .00275 .707106781186549 .70710678118654
7 -1 1224646799147352e-31 0 52 551 470 0 527 571 529 0 --.01 .03 -.0008499999999
9999 0 0 1 .00275 .707106781186549 .707106781186547 -1 1224646799147352e-31 0 52
 571 454 0 549 606 551 0 --.03 .01 -.000849999999999988 0 0 1 .00275 .7071067811
86549 .707106781186547 -1 1224646799147352e-31 0 50 606 244 0 569 615 571 0 +-.0
2 .04 .002 0 0 -1 1 -1224646799147352e-31 0 50 615 243 0 604 808 606 0 +48985871
9658941e-32 .04 .001 -1 1224646799147352e-31 0 0 0 -1 50 808 242 0 156 801 615 0
 +-.02 .04 0 0 0 1 -1 1224646799147352e-31 0 50 801 241 0 17 626 808 0 +-.043677
02481088695 .04 -.000479049621773913 -.129190075645216 1582122126205185e-32 .991
619848709566 -.991619848709566 1214384073693152e-31 -.129190075645216 51 626 240
 0 618 637 801 0 --.048 .04 .004 -1224646799147352e-31 -1 0 .005 0 0 1 50 637 23
9 0 624 647 626 0 +-.0445906781637722 .04 .002 0 0 1 -1 1224646799147352e-31 0 5
1 647 238 0 635 657 637 0 --.048 .04 .004 -1224646799147352e-31 -1 0 .003 0 0 1
 50 657 237 0 645 726 647 0 +-.04380946231240595 .04 .001512150750376135 -.12702
5125062688 155560912819313e-31 .991899499749248 -.991899499749248 12147265474437
78e-31 -.127025125062688 50 726 196 0 149 758 657 0 +-.0265 3245314017740485e-33
 .004 1224646799147352e-31 1 0 -1 1224646799147352e-31 0 50 758 3 0 655 583 726
 0 +-.0265 .04 .004 1224646799147352e-31 1 0 -1 1224646799147352e-31 0 52 583 43
1 0 576 320 758 0 --.01 .01 -.00084999999999999 0 0 1 .00275 .707106781186549 .7
07106781186547 -1 1224646799147352e-31 0 50 320 1103 0 135 814 583 0 +-.04 .0042
5 -.0687486354243376 -1 0 0 0 0 1 50 814 1104 0 319 420 320 0 +-.0475 .0085 -.06
87486354243376 -2312964634635745e-31 1 0 -1 -2312964634635745e-31 0 50 420 1109
 0 414 0 814 0 +-.04 .03575 -.0687486354243376 -1 0 0 0 0 1 17 828 0 819 48 77 7
9 246 243 0 0 -17 48 0 819 25 828 41 82 265 0 271 -17 77 0 819 828 72 74 250 238
 0 246 -17 246 0 419 119 199 74 828 243 0 829 +15 419 915 0 199 414 0 17 119 0 4
19 122 246 116 178 175 0 472 -17 199 0 419 246 122 79 830 196 0 828 +17 829 0 65
6 250 831 74 505 180 0 178 -15 656 646 0 829 645 0 17 250 0 656 183 829 55 77 23
8 0 832 +17 831 0 656 829 183 73 115 235 0 505 -17 505 0 833 138 178 73 829 180
 0 0 +17 178 0 833 505 834 74 119 175 0 0 +15 833 235 0 151 569 0 17 834 0 833 1
78 835 116 169 161 0 0 -17 835 0 833 834 151 91 205 202 0 0 -17 169 0 757 97 472
 91 834 161 0 835 +15 757 6 0 740 655 0 17 97 0 757 740 169 86 100 170 0 158 +17
 472 0 757 169 740 116 122 247 0 834 +17 740 0 757 472 97 78 157 506 0 830 +17 1
22 0 419 199 119 78 472 247 0 740 -17 157 0 140 155 830 86 740 506 0 0 -17 830 0
 140 157 82 78 199 196 0 0 -17 82 0 140 830 271 79 48 265 0 199 +17 271 0 140 82
 37 41 836 268 0 837 +17 37 0 140 271 39 29 28 38 0 836 +17 836 0 795 47 837 29
 271 268 0 0 -17 837 0 795 836 838 41 25 10 0 0 -15 795 1785 0 837 19 0 17 838 0
 795 837 47 53 264 251 0 0 -17 25 0 819 59 48 53 837 10 0 839 +17 59 0 819 64 25
 56 839 239 0 840 +17 839 0 800 264 841 53 59 239 0 838 -15 800 733 0 839 17 0 1
7 264 0 800 103 839 49 838 251 0 46 +17 841 0 800 839 103 56 195 192 0 0 -17 103
 0 800 841 264 69 46 257 0 842 +17 195 0 625 403 840 69 841 192 0 0 +15 625 713
 0 840 618 0 17 403 0 625 843 195 104 842 395 0 191 +17 840 0 625 195 843 56 64
 242 0 841 -17 843 0 625 840 403 61 191 188 0 0 -17 64 0 819 68 59 61 840 242 0
 844 +17 68 0 819 72 64 65 844 256 0 255 +17 844 0 636 191 845 61 68 256 0 843 -
15 636 693 0 844 624 0 17 191 0 636 394 844 104 843 188 0 0 +17 845 0 636 844 39
4 65 187 184 0 0 -17 394 0 636 845 191 108 107 364 0 187 +17 187 0 646 846 255 1
08 845 184 0 0 +15 646 668 0 832 635 0 17 846 0 646 832 187 112 111 143 0 183 -1
7 255 0 646 187 832 65 72 252 0 845 +17 832 0 646 255 846 55 183 179 0 0 -17 72
 0 819 77 68 55 255 252 0 250 -17 183 0 656 831 250 112 832 179 0 0 +17 111 0 34
 107 115 108 846 143 0 394 +15 34 1066 0 35 319 0 17 107 0 34 842 111 104 394 36
4 0 403 -17 115 0 34 111 35 112 831 235 0 846 +17 35 0 34 115 28 73 132 139 0 13
6 +17 136 0 131 132 125 73 138 144 0 831 -17 138 0 833 151 505 83 136 144 0 148
 +17 151 0 833 835 138 60 148 152 0 0 +17 842 0 34 46 107 69 403 395 0 195 -17 4
6 0 34 36 842 49 103 257 0 0 -17 47 0 795 838 836 49 36 26 0 264 -17 100 0 614 2
05 158 91 97 170 0 169 -17 158 0 614 100 90 86 155 159 0 157 -15 614 233 0 90 60
4 0 17 90 0 614 158 205 87 94 162 0 155 +17 205 0 614 90 100 60 835 202 0 151 +1
7 94 0 146 148 147 60 90 162 0 205 -83 3 816 .615686274509804 .811764705882353 .
929411764705882 83 1 815 74 83 3 810 .615686274509804 .811764705882353 .92941176
4705882 83 1 809 72 15 807 483 0 847 156 848 17 847 0 807 847 847 0 234 231 0 0
 -15 848 467 0 849 156 850 17 849 0 848 849 849 0 226 223 0 0 -15 850 451 0 851
 156 852 17 851 0 850 851 851 0 218 215 0 0 -15 852 369 0 853 156 140 17 853 0 8
52 853 853 0 210 207 0 0 -17 210 0 854 210 210 0 853 207 0 0 +15 854 406 0 210 5
76 0 17 218 0 855 218 218 0 851 215 0 0 +15 855 457 0 218 549 0 17 226 0 856 226
 226 0 849 223 0 0 +15 856 473 0 226 527 0 17 234 0 857 234 234 0 847 231 0 0 +1
5 857 489 0 234 522 0 83 3 803 .615686274509804 .811764705882353 .92941176470588
2 83 1 802 60 83 3 796 .615686274509804 .811764705882353 .929411764705882 81 1 2
41 1854 12 239 782 0 787 24 858 84 3 792 JHd84 3 858 JHZ30 788 1125 0 257 404 59
8 0 +-.04367702481088695 .0085 -.000479049621773912 -.991619848709566 -229358164
1068075e-31 -.129190075645216 31 404 1126 0 395 396 788 0 +-.048 .0085 .004 -231
2964634635745e-31 1 0 -1 -2312964634635745e-31 0 .005 31 598 434 0 211 788 171 0
 +-.01 .01 .002 0 0 1 -1 1224646799147352e-31 0 .0056 30 171 9 0 161 598 748 0 +
-.02 .04 .002 1 -1224646799147352e-31 0 30 748 14 0 170 171 741 0 +4898587196589
41e-32 .04 .001 0 0 -1 30 741 19 0 506 748 174 0 +-.02 .04 0 -1 1224646799147352
e-31 0 30 174 204 0 152 741 172 0 +-.02 2449293598294705e-33 .002 1 -12246467991
47352e-31 0 30 396 1127 0 364 365 404 0 +-.04459067816377215 .0085 .002 -1 -2312
964634635745e-31 0 31 365 1128 0 143 145 396 0 +-.048 .0085 .004 -23129646346357
45e-31 1 0 -1 -2312964634635745e-31 0 .003 30 145 1131 0 133 387 365 0 +-.04 .04
 -542101086242752e-33 0 -1 159549259553856e-31 30 387 1132 0 144 379 145 0 +-.04
 .04 .002 0 -1 1568313250068565e-32 30 379 1133 0 139 154 387 0 +-.04 .0085 -.06
87486354243376 0 0 1 30 154 1136 0 137 473 379 0 +-.04 693889390390723e-32 -.068
7486354243376 0 0 1 30 473 1145 0 247 0 154 0 +-.04 .04 -.0687486354243376 0 0 1
 81 1 279 1818 276 10 0 24 274 782 859 82 3 785 6 6 1 82 3 859 6 5 1 79 13 781 B
TI/importTag79 18 777 BTI/importMaxCount81 1 14 1935 12 655 660 0 168 2 860 83 3
 760 .615686274509804 .811764705882353 .929411764705882 84 3 860 JFC83 1 759 65
 84 3 754 JFB83 1 753 40 84 3 750 JFF83 1 749 39 84 3 745 JFJ83 1 743 38 84 2 73
7 IF83 1 735 3 81 1 166 1929 12 149 533 0 160 96 861 84 3 732 JFE84 3 861 JFG83
 1 731 2 83 3 728 .615686274509804 .811764705882353 .929411764705882 83 1 727 66
 83 1 723 41 84 3 719 JFR83 1 718 42 84 3 715 JFV83 1 714 43 84 3 710 JFI83 1 70
8 4 84 3 704 JFM83 1 703 5 84 3 699 JFZ83 1 698 36 84 3 695 JFd83 1 694 35 84 3
 691 JFh83 1 690 34 84 3 686 JFl83 1 685 33 84 3 681 JFp83 1 680 32 84 3 676 JFt
83 1 675 30 84 3 671 JFx83 1 670 29 81 1 654 1915 12 645 650 0 644 204 862 84 3
 666 JF181 1 644 1914 12 635 640 0 634 654 863 84 3 862 JFK81 1 634 1913 12 624
 630 0 623 644 864 84 3 863 JFO81 1 623 1912 12 618 620 0 613 634 865 84 3 864 J
FS81 1 613 1911 12 604 609 0 600 623 866 84 3 865 JFW81 1 600 1910 12 569 574 0
 593 613 867 84 3 866 JFi84 3 867 JFm83 1 665 28 83 3 661 .615686274509804 .8117
64705882353 .929411764705882 83 1 659 64 83 3 651 .615686274509804 .811764705882
353 .929411764705882 83 1 649 63 83 3 641 .615686274509804 .811764705882353 .929
411764705882 83 1 639 62 83 3 631 .615686274509804 .811764705882353 .92941176470
5882 83 1 628 61 83 3 617 .615686274509804 .811764705882353 .929411764705882 83
 1 616 71 83 3 610 .615686274509804 .811764705882353 .929411764705882 83 1 608 7
0 15 605 482 0 868 569 869 17 868 0 605 868 868 0 230 227 0 0 -15 869 466 0 870
 569 871 17 870 0 869 870 870 0 222 219 0 0 -15 871 450 0 872 569 873 17 872 0 8
71 872 872 0 214 206 0 0 -15 873 376 0 874 569 833 17 874 0 873 874 874 0 597 21
1 0 0 -17 597 0 582 597 597 0 874 211 0 0 +15 582 405 0 597 576 854 17 214 0 570
 214 214 0 872 206 0 0 +15 570 456 0 214 549 855 17 222 0 550 222 222 0 870 219
 0 0 +15 550 472 0 222 527 856 17 230 0 528 230 230 0 868 227 0 0 +15 528 488 0
 230 522 857 84 3 601 JF583 1 599 45 81 1 581 1907 12 576 578 0 565 209 875 84 3
 594 JF981 1 565 1906 12 549 554 0 213 581 876 84 3 875 JFq84 3 876 JFu83 1 592
 44 83 3 587 .615686274509804 .811764705882353 .929411764705882 83 1 585 73 83 3
 575 .615686274509804 .811764705882353 .929411764705882 83 1 573 69 84 4 566 KFB
B83 1 564 27 81 1 545 1903 12 527 534 0 221 217 877 84 4 560 KFFB84 3 877 JFy83
 1 559 26 83 3 555 .615686274509804 .811764705882353 .929411764705882 83 1 553 6
8 84 4 546 KFJB83 1 544 25 81 1 520 1900 12 522 524 0 229 225 878 84 4 540 KFNB8
4 3 878 JF283 1 539 24 83 3 535 .615686274509804 .811764705882353 .9294117647058
82 83 1 532 67 84 4 521 KFRB83 1 519 23 84 4 515 KFVB83 1 514 22 84 4 510 KFZB83
 1 509 37 84 3 501 JFQ83 1 499 1 84 3 495 JFU83 1 494 0 84 4 489 KFdB83 1 488 21
 84 4 484 KFhB83 1 483 20 84 4 479 KFpB83 1 478 49 84 4 475 KFtB83 1 474 56 84 4
 469 KFxB83 1 467 57 84 4 464 KF5B83 1 463 47 84 4 459 KF9B83 1 458 48 84 3 453
 JFY83 1 452 13 84 3 449 JFg83 1 448 14 84 3 445 JFk83 1 444 6 84 3 440 JFo83 1
 439 7 84 3 435 JFs83 1 434 8 81 1 412 1881 12 414 416 0 153 76 879 84 3 430 JFw
84 3 879 JF681 1 295 1465 312 79 0 292 425 331 880 83 1 429 15 83 1 880 16 83 3
 424 .615686274509804 .811764705882353 .929411764705882 83 1 422 77 84 4 413 KFB
C83 1 411 59 84 4 407 KFJC83 1 406 51 84 4 400 KFNC83 1 398 52 84 4 391 KFRC83 1
 389 55 84 4 384 KFVC83 1 382 58 84 4 375 KFZC83 1 373 54 84 4 369 KFdC83 1 368
 53 84 3 360 JF083 1 358 18 84 3 355 JF483 1 354 9 84 3 350 JF883 1 349 10 84 4
 345 KFAB83 1 344 11 84 4 340 KFEB83 1 339 12 83 1 333 19 81 1 32 1867 12 135 31
6 0 27 127 881 83 3 327 .615686274509804 .811764705882353 .929411764705882 84 4
 881 KFCB83 1 323 75 83 1 314 17 84 3 308 JHE84 3 306 JHI79 9 301 BTI/DetId82 3
 297 6 5 0 82 3 293 6 0 1 82 3 290 6 1 1 82 3 287 6 2 1 82 3 284 6 3 1 84 3 281
 JHV82 3 280 6 4 1 79 12 277 BTI/ExportId84 3 167 JFN84 4 130 KFMB84 3 45 JHM84
 2 33 IH19 18 254 0 1 0 9 5 0 S0 74 4 CI16 index_map_offset0 0 1 dCCZ20 16 8 0 0
 309 761 811 762 767 13 423 2 0 0 0 0 0 0 0 0 0 0 0 0 84 3 15 JFD1 0 
