**ABCDEFGHIJKLMNOPQRSTUVWXYZabcdefghijklmnopqrstuvwxyz**************************
**PARASOLID !"#$%&'()*+,-./:;<=>?@[\]^_`{|}~0123456789**************************
**PART1;
MC=unknown;
MC_MODEL=unknown;
MC_ID=unknown;
OS=unknown;
OS_RELEASE=unknown;
FRU=Parasolid 34.1.198;
APPL=Onshape;
SITE=unknown;
USER=unknown;
FORMAT=text;
GUISE=transmit;
KEY=BTGapi::writeModels_.xmt;
FILE=BTGapi::writeModels_.xmt;
DATE=2022-12-19T06:56:47 (UTC);
**PART2;
SCH=SCH_3401198_34101;
USFLD_SIZE=0;
**PART3;
**END_OF_HEADER*****************************************************************
T51 : TRANSMIT FILE created by modeller version 340119823 SCH_3401198_34101_1300
6231 0 12 36 CCCI7 lattice222 0 CCCI4 mesh1006 0 I8 polyline1008 0 CCCCCCCDI5 ow
ner1040 0 CCCI16 boundary_lattice222 0 CCCI13 boundary_mesh1006 0 I17 boundary_p
olyline1008 0 CCCA16 index_map_offset0 0 1 dA9 index_map82 0 A17 node_id_index_m
ap82 0 A20 schema_embedding_map82 0 A5 child12 0 A14 lowest_node_id0 0 1 dA16 me
sh_offset_data206 0 Z1 1968 2 3 0 0 0 0 0 0 0 1e3 1e-8 0 4 0 1 0 1 1 5 0 6 7 8 0
 0 9 10 11 0 0 0 0 0 0 0 81 255 1 2 1968 12 1 13 0 14 0 15 70 11 CI9 list_type0
 0 1 uI10 notransmit0 0 1 lCCCDCCDI12 finger_index0 0 1 dI12 finger_block1012 0
 CZ3 0 4 T1 0 0 8 20 1 16 16 13 255 5 253 0 1 0 17 0 0 18 0 52 255 6 486 0 19 20
 0 0 --.03 .03 -.000849999999999988 0 0 1 .00275 .707106781186549 .7071067811865
47 -1 1224646799147352e-31 0 30 255 7 653 0 10 21 0 0 +-.04380946231240595 .0315
 .001512150750376135 -.991899499749248 0 -.127025125062688 29 255 8 639 0 11 22
 0 -.0476189246248119 .0315 .00102430150075226 19 9 CCCCCCI5 frame230 0 CA5 owne
r12 0 Z9 88 0 1 18 0 23 0 V0 16 255 10 651 24 ?25 0 26 7 0 0 1 18 255 11 635 27
 28 0 29 8 ?1 81 1 27 1925 12 11 30 0 31 32 33 17 255 28 0 34 35 36 11 37 38 0 2
5 -18 29 630 32 39 11 40 22 ?1 81 1 32 1926 12 29 41 0 27 42 43 17 39 0 44 45 46
 29 47 48 0 49 +18 40 52 50 51 29 52 53 ?1 29 22 634 0 29 54 8 -.04 .0085 .002 2
9 54 211 0 55 56 22 0 0 0 18 55 188 57 58 52 59 54 ?1 29 56 212 0 59 53 54 0 0 .
002 18 59 192 60 61 55 62 56 ?1 29 53 54 0 40 63 56 489858719658941e-32 .04 0 29
 63 49 0 52 64 53 489858719658941e-32 .04 .002 18 52 47 65 66 40 55 63 ?1 29 64
 1165 0 62 67 63 -.0473540496217739 .0315 -.000958099243547827 18 62 895 68 69 5
9 70 64 ?1 29 67 1166 0 70 71 64 -.04341742430504415 .0315 .002 18 70 896 72 73
 62 74 67 ?1 29 71 1167 0 74 75 67 -.0457639320225002 .0315 .002 18 74 897 76 36
 70 77 71 ?1 29 75 1169 0 77 78 71 -.0473540496217739 .0085 -.000958099243547826
 18 77 1039 79 80 74 81 75 ?1 29 78 1170 0 81 82 75 -.04341742430504415 .0085 .0
02 18 81 1040 83 84 77 85 78 ?1 29 82 1171 0 85 86 78 -.0457639320225002 .0085 .
002 18 85 1041 87 88 81 89 82 ?1 29 86 1172 0 89 90 82 -.0476189246248119 .0085
 .00102430150075226 18 89 1042 91 45 85 92 86 ?1 29 90 1173 0 92 93 86 -.04 .04
 .002 18 92 879 94 95 89 96 90 ?1 29 93 1174 0 96 97 90 -.04 .04 0 18 96 885 98
 99 92 100 93 ?1 29 97 1175 0 100 101 93 -.04 .0315 .002 18 100 899 102 35 96 10
3 97 ?1 29 101 1176 0 103 104 97 -.04 .0315 -67762635780344e-31 18 103 880 105 1
06 100 107 101 ?1 29 104 1178 0 107 108 101 -.04 .0085 433680868994202e-33 18 10
7 1048 109 46 103 110 104 ?1 29 108 1179 0 110 111 104 -.04 693889390390723e-32
 .002 18 110 1031 112 113 107 114 108 ?1 29 111 1180 0 114 0 108 -.04 6938893903
90723e-32 0 18 114 1058 115 116 110 0 111 ?1 81 1 115 1892 12 114 117 0 118 109
 119 17 116 0 120 113 47 114 121 122 0 123 +15 255 120 1070 0 116 124 0 17 113 0
 120 49 116 110 123 125 0 126 +17 47 0 120 116 49 107 39 48 0 121 -17 121 0 127
 128 129 107 116 122 0 130 -16 122 987 131 ?116 132 133 134 0 0 1 17 123 0 135 1
36 137 114 113 125 0 129 -15 135 616 0 123 138 0 17 136 0 135 61 123 55 129 139
 0 0 -17 137 0 135 123 61 110 140 141 0 0 -16 125 951 142 ?113 48 0 143 0 0 1 17
 129 0 127 121 144 114 136 139 0 0 +15 127 231 0 129 145 0 17 144 0 127 129 146
 55 147 148 0 136 +16 139 152 149 ?129 150 151 152 0 0 1 81 1 149 1960 12 139 15
3 0 154 155 156 16 150 7 157 ?158 159 139 160 0 0 1 16 151 156 154 ?58 139 141 1
61 0 0 1 30 152 202 0 139 161 162 0 +-.02 2449293598294705e-33 0 -1 122464679914
7352e-31 0 30 161 203 0 151 163 152 0 +0 0 .001 0 0 -1 30 162 245 0 164 152 165
 0 +-.04 .04 .002 -1224646799147352e-31 -1 0 16 164 213 166 ?167 168 169 162 169
 169 1 30 165 246 0 168 162 170 0 +-.0476189246248119 .04 .00102430150075226 -12
24646799147352e-31 -1 0 16 168 214 171 ?172 173 164 165 0 0 1 30 170 247 0 173 1
65 174 0 +-.0457639320225002 .04 .002 -1224646799147352e-31 -1 0 16 173 215 175
 ?176 177 168 170 0 0 1 30 174 248 0 177 170 178 0 +-.04341742430504415 .04 .002
 -1224646799147352e-31 -1 0 16 177 216 179 ?180 181 173 174 0 0 1 30 178 249 0 1
81 174 182 0 +-.0473540496217739 .04 -.000958099243547826 -1224646799147352e-31
 -1 0 16 181 217 183 ?184 185 177 178 0 0 1 30 182 250 0 186 178 187 0 +-.04 .04
 0 -1224646799147352e-31 -1 0 16 186 218 188 ?106 148 185 182 185 185 1 30 187 2
51 0 148 182 189 0 +489858719658941e-32 .04 0 -1224646799147352e-31 -1 0 16 148
 219 190 ?144 191 186 187 0 0 1 30 189 252 0 191 187 192 0 +489858719658941e-32
 .04 .002 -1224646799147352e-31 -1 0 16 191 220 193 ?194 195 148 189 0 0 1 31 25
5 192 370 0 196 189 197 0 --.01 .01 0 0 0 1 -1 1224646799147352e-31 0 .0036 16 1
96 394 198 ?199 141 200 192 0 0 1 31 197 460 0 195 192 201 0 +-.03 .01 .002 0 0
 1 -1 1224646799147352e-31 0 .0056 16 195 458 202 ?203 204 191 197 0 0 1 31 201
 464 0 204 197 205 0 --.03 .01 216840434497101e-32 0 0 1 -1 1224646799147352e-31
 0 .0036 16 204 462 206 ?207 208 195 201 0 0 1 31 205 476 0 208 201 209 0 +-.01
 .03 .002 0 0 1 -1 1224646799147352e-31 0 .0056 16 208 474 210 ?211 212 204 205
 0 0 1 31 209 480 0 212 205 213 0 --.01 .03 0 0 0 1 -1 1224646799147352e-31 0 .0
036 16 212 478 214 ?215 216 208 209 0 0 1 31 213 492 0 216 209 217 0 +-.03 .03 .
002 0 0 1 -1 1224646799147352e-31 0 .0056 16 216 490 218 ?219 220 212 213 0 0 1
 31 217 496 0 220 213 21 0 --.03 .03 216840434497101e-32 0 0 1 -1 12246467991473
52e-31 0 .0036 16 220 494 221 ?222 26 216 217 0 0 1 30 21 647 0 26 217 7 0 +-.04
380946231240595 .0085 .001512150750376135 -.991899499749248 -2294228464032895e-3
1 -.127025125062688 16 26 645 31 ?45 10 220 21 0 0 1 81 1 31 1924 12 26 223 0 24
 27 224 17 45 0 44 88 39 89 225 26 0 226 +15 44 1066 0 39 227 0 17 88 0 44 84 45
 85 226 132 0 228 +17 225 0 229 230 172 29 45 26 0 231 -17 226 0 232 233 176 89
 88 132 0 172 -15 232 668 0 233 234 0 17 233 0 232 37 226 11 172 168 0 0 -17 176
 0 232 226 37 85 235 173 0 0 +16 132 999 236 ?88 237 122 238 0 0 1 17 172 0 229
 225 25 89 233 168 0 0 +15 229 646 0 230 239 0 17 25 0 229 172 230 11 35 10 0 23
3 +17 230 0 229 25 225 100 231 169 0 167 -17 35 0 34 240 28 100 25 10 0 241 -15
 34 911 0 69 242 0 17 240 0 34 69 35 103 241 243 0 244 -17 241 0 245 95 106 100
 240 243 0 230 +15 245 915 0 106 246 0 17 95 0 245 99 241 92 167 164 0 247 -17 1
06 0 245 241 99 103 248 186 0 240 +16 243 846 249 ?241 250 48 251 0 0 1 81 1 249
 1919 12 243 252 0 253 254 255 16 250 822 254 ?247 133 243 256 0 0 1 16 48 984 2
57 ?39 243 125 258 0 0 1 30 251 1148 0 243 0 256 0 +-.04 .0315 -.068748635424337
6 0 0 1 30 256 1145 0 250 251 143 0 +-.04 .04 -.0687486354243376 0 0 1 30 143 11
36 0 125 256 258 0 +-.04 693889390390723e-32 -.0687486354243376 0 0 1 30 258 113
3 0 48 143 259 0 +-.04 .0085 -.0687486354243376 0 0 1 30 259 1132 0 133 258 134
 0 +-.04 .04 .002 0 -1 1568313250068565e-32 16 133 975 260 ?126 122 250 259 0 0
 1 30 134 1131 0 122 259 238 0 +-.04 .04 -542101086242752e-33 0 -1 1595492595538
56e-31 31 238 1128 0 132 134 261 0 +-.048 .0085 .004 -2312964634635745e-31 1 0 -
1 -2312964634635745e-31 0 .003 30 261 1127 0 237 238 262 0 +-.04459067816377215
 .0085 .002 -1 -2312964634635745e-31 0 16 237 969 263 ?228 264 132 261 0 0 1 31
 262 1126 0 264 261 265 0 +-.048 .0085 .004 -2312964634635745e-31 1 0 -1 -231296
4634635745e-31 0 .005 16 264 966 266 ?267 268 237 262 0 0 1 30 265 1125 0 268 26
2 269 0 +-.04367702481088695 .0085 -.000479049621773912 -.991619848709566 -22935
81641068075e-31 -.129190075645216 16 268 963 270 ?271 38 264 265 0 0 1 31 269 11
24 0 38 265 272 0 +-.048 .0315 .004 0 1 0 0 0 1 .003 16 38 805 273 ?37 274 268 2
69 0 0 1 30 272 1123 0 274 269 275 0 +-.0445906781637722 .0315 .002 -1 0 0 16 27
4 855 276 ?36 277 38 272 0 0 1 31 275 1122 0 277 272 278 0 +-.048 .0315 .004 0 1
 0 0 0 1 .005 16 277 852 279 ?73 280 274 275 0 0 1 30 278 1121 0 280 275 281 0 +
-.04367702481088695 .0315 -.000479049621773913 -.991619848709566 0 -.12919007564
5216 16 280 849 253 ?69 200 277 278 0 0 1 31 281 434 0 200 278 160 0 +-.01 .01 .
002 0 0 1 -1 1224646799147352e-31 0 .0056 16 200 386 282 ?283 196 280 281 0 0 1
 30 160 9 0 150 281 284 0 +-.02 .04 .002 1 -1224646799147352e-31 0 30 284 14 0 1
59 160 285 0 +489858719658941e-32 .04 .001 0 0 -1 16 159 12 286 ?51 287 150 284
 0 0 1 30 285 19 0 287 284 163 0 +-.02 .04 0 -1 1224646799147352e-31 0 16 287 17
 288 ?289 169 159 285 0 0 1 30 163 204 0 141 285 161 0 +-.02 2449293598294705e-3
3 .002 1 -1224646799147352e-31 0 16 141 160 290 ?140 151 196 163 0 0 1 81 1 290
 1958 12 141 291 0 57 154 292 17 140 0 293 294 126 59 137 141 0 0 +15 293 235 0
 140 295 0 17 294 0 293 296 140 52 194 191 0 0 -17 126 0 293 140 231 110 49 133
 0 137 +17 231 0 293 126 167 29 230 169 0 0 +17 49 0 120 47 113 29 126 133 0 225
 -17 167 0 293 231 296 100 95 164 0 0 +16 169 626 42 ?231 164 287 162 164 164 1
 81 1 42 1927 12 169 297 0 32 221 298 80 7 CCCCCDI12 legal_owners0 16 1 lCZ1 12
 299 300 9000 0 0 0 0 3 5 0 0 0 FFTFTFTTFFFFFFFF3 81 1 297 1831 299 169 301 42 3
02 41 303 81 1 221 1928 12 220 302 0 42 218 304 84 255 4 298 KFZB81 1 302 1830 2
99 220 305 221 306 297 307 81 1 218 1929 12 216 306 0 221 308 309 84 4 304 KFVB8
1 1 306 1829 299 216 310 218 311 302 312 81 1 308 1930 12 19 313 0 218 214 314 8
4 4 309 KFRB14 255 19 484 308 ?315 138 316 5 6 +0 0 315 138 23 81 1 313 1879 317
 19 311 308 318 319 320 81 1 214 1931 12 212 321 0 308 210 322 84 3 314 JF281 1
 321 1827 299 212 323 214 324 311 325 81 1 210 1932 12 208 324 0 214 326 327 84
 4 322 KFNB81 1 324 1826 299 208 328 210 329 321 330 81 1 326 1933 12 315 319 0
 210 206 331 84 4 327 KFJB14 315 468 326 ?332 19 333 5 20 +0 0 332 19 23 81 1 31
9 1880 317 315 329 326 313 334 335 81 1 206 1934 12 204 336 0 326 202 337 84 3 3
31 JFy81 1 336 1824 299 204 338 206 339 329 340 81 1 202 1935 12 195 339 0 206 3
41 342 84 4 337 KFFB81 1 339 1823 299 195 343 202 344 336 345 81 1 341 1936 12 3
32 334 0 202 346 347 84 4 342 KFBB14 332 452 341 ?295 315 348 5 349 +0 0 295 315
 23 81 1 334 1881 317 332 344 341 319 350 351 81 1 346 1937 12 352 353 0 341 198
 354 84 3 347 JFu14 352 421 346 ?227 145 355 5 356 +0 0 227 145 23 81 1 353 1885
 317 352 357 346 358 359 360 81 1 198 1938 12 196 361 0 346 282 362 84 3 354 JFq
81 1 361 1820 299 196 363 198 364 357 365 81 1 282 1939 12 200 364 0 198 366 367
 84 3 362 JF981 1 364 1819 299 200 368 282 369 361 370 81 1 366 1940 12 295 350
 0 282 371 372 84 3 367 JF514 295 236 366 ?373 332 374 5 375 -0 0 373 332 23 81
 1 350 1882 317 295 369 366 334 376 377 81 1 371 1941 12 373 376 0 366 378 379 8
4 3 372 JFm14 373 234 371 ?145 295 380 5 381 -0 0 145 295 23 81 1 376 1883 317 3
73 382 371 350 358 383 81 1 378 1942 12 145 358 0 371 384 385 84 3 379 JFi14 145
 232 378 ?352 373 386 5 387 -0 0 352 373 23 81 1 358 1884 317 145 388 378 376 35
3 389 81 1 384 1943 12 17 390 0 378 391 392 84 3 385 JFe14 17 230 384 ?393 0 394
 5 395 -0 0 393 0 23 81 1 390 1872 317 17 396 384 0 397 398 81 1 391 1944 12 393
 397 0 384 399 400 84 3 392 JFa14 393 228 391 ?401 17 402 5 403 -0 0 401 17 23 8
1 1 397 1873 317 393 404 391 390 405 406 81 1 399 1945 12 401 405 0 391 407 408
 84 3 400 JFW14 401 226 399 ?234 393 409 5 410 -0 0 234 393 23 81 1 405 1874 317
 401 411 399 397 412 413 81 1 407 1946 12 234 412 0 399 414 415 84 3 408 JFS14 2
34 224 407 ?239 401 232 5 416 +0 0 239 401 23 81 1 412 1875 317 234 417 407 405
 418 419 81 1 414 1947 12 239 418 0 407 193 420 84 3 415 JFO14 239 222 414 ?421
 234 229 5 422 +0 0 421 234 23 81 1 418 1876 317 239 423 414 412 424 425 81 1 19
3 1948 12 191 426 0 414 190 427 84 3 420 JFK81 1 426 1810 299 191 428 193 429 42
3 430 81 1 190 1949 12 148 429 0 193 188 431 84 3 427 JF181 1 429 1809 299 148 4
32 190 433 426 434 81 1 188 1950 12 186 433 0 190 183 435 84 3 431 JFx81 1 433 1
808 299 186 436 188 437 429 438 81 1 183 1951 12 181 437 0 188 179 439 84 3 435
 JFt81 1 437 1807 299 181 440 183 441 433 442 81 1 179 1952 12 177 441 0 183 175
 443 84 3 439 JFp81 1 441 1806 299 177 444 179 445 437 446 81 1 175 1953 12 173
 445 0 179 171 447 84 3 443 JFl81 1 445 1805 299 173 448 175 449 441 450 81 1 17
1 1954 12 168 449 0 175 166 451 84 3 447 JFh81 1 449 1804 299 168 452 171 453 44
5 454 81 1 166 1955 12 164 453 0 171 60 455 84 3 451 JFd81 1 453 1803 299 164 45
6 166 457 449 458 81 1 60 1956 12 59 457 0 166 57 459 84 3 455 JFZ81 1 457 1802
 299 59 460 60 461 453 462 81 1 57 1957 12 55 461 0 60 290 463 84 3 459 JFM81 1
 461 1801 299 55 464 57 291 457 465 84 3 463 JFI80 1 299 466 467 9000 0 0 0 0 3
 6 0 0 0 FFTFTFTTFFFFFFFF1 81 1 464 1713 468 55 0 461 469 460 470 81 1 291 1800
 299 141 471 290 472 461 473 82 255 3 465 4 2 0 81 1 471 1752 468 141 0 291 474
 363 475 81 1 472 1799 299 151 474 154 153 291 476 82 3 473 4 5 1 81 1 474 1751
 468 151 0 472 477 471 478 81 1 154 1959 12 151 472 0 290 149 479 81 1 153 1798
 299 139 477 149 480 472 481 82 3 476 4 4 1 81 1 477 1750 468 139 0 153 482 474
 483 81 1 480 1797 299 138 484 318 485 153 486 82 3 481 4 3 1 14 138 120 155 ?19
 421 135 5 487 -0 0 19 421 23 81 1 484 1775 468 138 0 480 488 489 490 81 1 318 1
878 317 138 480 155 424 313 491 81 1 485 1796 299 40 492 50 493 480 494 82 3 486
 4 1 2 81 1 492 1711 468 40 0 485 495 469 496 81 1 50 1962 12 40 485 0 155 65 49
7 81 1 493 1795 299 52 469 65 498 485 499 82 3 494 4 1 0 81 1 469 1712 468 52 0
 493 492 464 500 81 1 65 1963 12 52 493 0 50 288 501 81 1 498 1794 299 287 502 2
88 503 493 504 82 3 499 4 0 0 81 1 502 1747 468 287 0 498 301 505 506 81 1 288 1
964 12 287 498 0 65 286 507 81 1 503 1793 299 159 505 286 508 498 509 82 3 504 4
 2 1 81 1 505 1748 468 159 0 503 502 482 510 81 1 286 1965 12 159 503 0 288 157
 511 81 1 508 1792 299 150 482 157 512 503 513 82 3 509 4 1 1 81 1 482 1749 468
 150 0 508 505 477 514 81 1 157 1966 12 150 508 0 286 14 515 81 1 512 1791 299 4
21 488 424 516 508 517 82 3 513 4 0 1 14 421 1 14 ?138 239 518 5 519 +0 0 138 23
9 23 81 1 488 1774 468 421 0 512 520 484 521 81 1 424 1877 317 421 512 14 418 31
8 522 81 1 516 1790 299 1 523 524 0 512 525 82 3 517 4 0 2 81 1 523 1788 526 1 5
27 516 0 0 528 81 1 524 1869 529 1 516 530 0 0 531 82 3 525 4 0 3 80 1 529 532 5
33 8038 0 0 0 0 0 0 0 0 0 TTTTTTTTTTTTTFTF10 81 1 530 1870 532 1 524 13 0 0 534
 98 255 6 531 80 97 114 116 32 49 80 1 532 535 536 8017 0 0 0 0 0 0 0 0 0 TTTTTT
TTTTTTTFTF3 81 1 13 1871 537 1 530 2 0 0 538 84 6 534 Part 180 1 537 317 539 804
0 0 0 0 0 3 5 0 0 0 TTTFFFFFFFFFFFFF2 83 255 3 538 .615686274509804 .81176470588
2353 .929411764705882 79 255 17 539 SDL/TYSA_COLOUR_279 13 536 SDL/TYSA_NAME79 1
4 533 SDL/TYSA_UNAME80 1 526 468 540 9000 0 0 0 0 3 5 0 0 0 FFTFTFTTFFFFFFFF2 81
 1 527 1787 468 1 0 523 541 0 542 83 1 528 77 80 1 468 543 544 9000 0 0 0 0 3 5
 0 0 0 FFTFTFTTFFFFFFFF2 81 1 541 1786 468 246 0 545 546 527 547 83 1 542 -1 14
 246 920 548 ?0 242 245 5 549 +0 0 0 242 23 81 1 545 1850 299 246 541 550 551 55
2 553 81 1 546 1785 468 242 0 552 554 541 555 83 1 547 77 14 242 932 556 ?246 12
4 34 5 557 +0 0 246 124 23 81 1 552 1851 299 242 546 558 545 559 560 81 1 554 17
84 468 124 0 561 562 546 563 83 1 555 76 14 124 1075 118 ?242 227 120 5 564 +0 0
 242 227 23 81 1 561 1867 299 124 554 565 117 566 567 81 1 562 1783 468 227 0 56
6 568 554 569 83 1 563 75 14 227 1079 570 ?124 352 44 5 571 -0 0 124 352 23 81 1
 566 1868 299 227 562 359 561 0 572 81 1 568 1782 468 352 0 357 573 562 574 83 1
 569 74 81 1 357 1821 299 352 568 353 361 344 575 81 1 573 1781 468 145 0 388 57
6 568 577 83 1 574 73 81 1 388 1816 299 145 573 358 396 382 578 81 1 576 1780 46
8 373 0 382 579 573 580 83 1 577 72 81 1 382 1817 299 373 576 376 388 369 581 81
 1 579 1779 468 295 0 369 582 576 583 83 1 580 71 81 1 369 1818 299 295 579 350
 382 364 584 81 1 582 1778 468 332 0 344 585 579 586 83 1 583 70 81 1 344 1822 2
99 332 582 334 357 339 587 81 1 585 1777 468 315 0 329 489 582 588 83 1 586 69 8
1 1 329 1825 299 315 585 319 336 324 589 81 1 489 1776 468 19 0 311 484 585 590
 83 1 588 68 81 1 311 1828 299 19 489 313 321 306 591 83 1 590 67 82 3 591 4 13
 2 82 3 589 4 12 2 82 3 587 4 11 2 82 3 584 4 9 2 82 3 581 4 8 2 81 1 396 1815 2
99 17 592 390 404 388 593 82 3 578 4 7 2 81 1 592 1769 468 17 0 396 594 595 596
 81 1 404 1814 299 393 595 397 411 396 597 82 3 593 4 6 2 81 1 595 1770 468 393
 0 404 592 598 599 81 1 411 1813 299 401 598 405 417 404 600 82 3 597 4 5 2 81 1
 598 1771 468 401 0 411 595 601 602 81 1 417 1812 299 234 601 412 423 411 603 82
 3 600 4 4 2 81 1 601 1772 468 234 0 417 598 520 604 81 1 423 1811 299 239 520 4
18 426 417 605 82 3 603 4 3 2 81 1 520 1773 468 239 0 423 601 488 606 82 3 605 4
 2 2 83 1 606 64 83 1 604 63 83 1 602 62 83 1 599 61 81 1 594 1768 468 125 0 559
 607 592 608 83 1 596 60 81 1 559 1852 299 125 594 142 552 609 610 81 1 607 1767
 468 48 0 611 612 594 613 83 1 608 59 81 1 611 1857 299 48 607 257 614 615 616 8
1 1 612 1766 468 243 0 252 617 607 618 83 1 613 58 81 1 252 1839 299 243 612 249
 619 620 621 81 1 617 1765 468 250 0 619 622 612 623 83 1 618 57 81 1 619 1838 2
99 250 617 254 624 252 625 81 1 622 1764 468 133 0 614 626 617 627 83 1 623 56 8
1 1 614 1856 299 133 622 260 628 611 629 81 1 626 1763 468 122 0 615 630 622 631
 83 1 627 55 81 1 615 1858 299 122 626 131 611 632 633 81 1 630 1762 468 132 0 6
32 634 626 635 83 1 631 54 81 1 632 1859 299 132 630 236 615 636 637 81 1 634 17
61 468 237 0 628 638 630 639 83 1 635 53 81 1 628 1855 299 237 634 263 640 614 6
41 81 1 638 1760 468 264 0 640 642 634 643 83 1 639 52 81 1 640 1854 299 264 638
 266 609 628 644 81 1 642 1759 468 268 0 609 645 638 646 83 1 643 51 81 1 609 18
53 299 268 642 270 559 640 647 81 1 645 1758 468 38 0 624 648 642 649 83 1 646 5
0 81 1 624 1837 299 38 645 273 650 619 651 81 1 648 1757 468 274 0 652 653 645 6
54 83 1 649 49 81 1 652 1842 299 274 648 276 655 656 657 81 1 653 1756 468 277 0
 655 658 648 659 83 1 654 48 81 1 655 1841 299 277 653 279 620 652 660 81 1 658
 1755 468 280 0 620 368 653 661 83 1 659 47 81 1 620 1840 299 280 658 253 252 65
5 662 81 1 368 1754 468 200 0 364 363 658 663 83 1 661 46 81 1 363 1753 468 196
 0 361 471 368 664 83 1 663 45 83 1 664 44 81 1 253 1918 12 280 620 0 279 249 66
5 82 3 662 4 29 1 81 1 279 1917 12 277 655 0 276 253 666 84 4 665 KF1B81 1 276 1
916 12 274 652 0 94 279 667 84 4 666 KF5B81 1 94 1915 12 92 656 0 105 276 668 84
 4 667 KF9B81 1 656 1843 299 92 669 94 652 670 671 81 1 105 1914 12 103 670 0 98
 94 672 84 3 668 JFY81 1 670 1844 299 103 673 105 656 674 675 81 1 98 1913 12 96
 674 0 68 105 676 84 3 672 JFc81 1 674 1845 299 96 677 98 670 678 679 81 1 68 19
12 12 62 678 0 72 98 680 84 3 676 JFg81 1 678 1846 299 62 681 68 674 682 683 81
 1 72 1911 12 70 682 0 76 68 684 84 3 680 JFk81 1 682 1847 299 70 685 72 678 686
 687 81 1 76 1910 12 74 686 0 102 72 688 84 3 684 JFo81 1 686 1848 299 74 689 76
 682 551 690 81 1 102 1909 12 100 551 0 548 76 691 84 3 688 JFs81 1 551 1849 299
 100 692 102 686 545 693 81 1 548 1908 12 246 550 0 556 102 694 84 3 691 JFw81 1
 550 1889 317 246 545 548 558 0 695 81 1 556 1907 12 242 558 0 142 548 696 84 3
 694 JF681 1 558 1888 317 242 552 556 565 550 697 81 1 142 1906 12 125 559 0 270
 556 698 84 3 696 JF+81 1 270 1905 12 268 609 0 266 142 699 84 4 698 KFBC81 1 26
6 1904 12 264 640 0 263 270 700 84 4 699 KFFC81 1 263 1903 12 237 628 0 260 266
 701 84 4 700 KFJC81 1 260 1902 12 133 614 0 257 263 702 84 4 701 KFNC81 1 257 1
901 12 48 611 0 131 260 703 84 4 702 KFRC81 1 131 1900 12 122 615 0 236 257 704
 84 4 703 KFVC81 1 236 1899 12 132 632 0 112 131 705 84 4 704 KFZC81 1 112 1898
 12 110 636 0 79 236 706 84 4 705 KFdC81 1 636 1860 299 110 707 112 632 708 709
 81 1 79 1897 12 77 708 0 83 112 710 84 3 706 JF081 1 708 1861 299 77 711 79 636
 712 713 81 1 83 1896 12 81 712 0 87 79 714 84 3 710 JF481 1 712 1862 299 81 715
 83 708 716 717 81 1 87 1895 12 85 716 0 91 83 718 84 3 714 JF881 1 716 1863 299
 85 719 87 712 720 721 81 1 91 1894 12 89 720 0 109 87 722 84 4 718 KFAB81 1 720
 1864 299 89 723 91 716 724 725 81 1 109 1893 12 107 724 0 115 91 726 84 4 722 K
FEB81 1 724 1865 299 107 727 109 720 117 728 84 4 726 KFIB81 1 727 1726 468 107
 0 724 673 707 729 81 1 117 1866 299 114 730 115 724 561 731 82 3 728 4 18 0 81
 1 730 1728 468 114 0 117 707 732 733 82 3 731 4 19 0 81 1 707 1727 468 110 0 63
6 727 730 734 81 1 732 1729 468 10 0 735 730 736 737 83 1 733 19 81 1 735 1835 2
99 10 732 24 223 650 738 81 1 736 1730 468 26 0 223 732 305 739 83 1 737 20 81 1
 223 1834 299 26 736 31 30 735 740 81 1 305 1731 468 220 0 302 736 310 741 83 1
 739 21 81 1 310 1732 468 216 0 306 305 323 742 83 1 741 22 81 1 323 1733 468 21
2 0 321 310 328 743 83 1 742 23 81 1 328 1734 468 208 0 324 323 338 744 83 1 743
 24 81 1 338 1735 468 204 0 336 328 343 745 83 1 744 25 81 1 343 1736 468 195 0
 339 338 428 746 83 1 745 26 81 1 428 1737 468 191 0 426 343 432 747 83 1 746 27
 81 1 432 1738 468 148 0 429 428 436 748 83 1 747 28 81 1 436 1739 468 186 0 433
 432 749 750 83 1 748 29 81 1 749 1740 468 185 0 650 436 440 751 83 1 750 30 16
 185 718 752 ?130 186 181 182 186 186 1 81 1 650 1836 299 185 749 752 735 624 75
3 81 1 440 1741 468 181 0 437 749 444 754 83 1 751 31 81 1 444 1742 468 177 0 44
1 440 448 755 83 1 754 32 81 1 448 1743 468 173 0 445 444 452 756 83 1 755 33 81
 1 452 1744 468 168 0 449 448 456 757 83 1 756 34 81 1 456 1745 468 164 0 453 45
2 301 758 83 1 757 35 81 1 301 1746 468 169 0 297 456 502 759 83 1 758 36 83 1 7
59 37 81 1 752 1922 12 185 650 0 273 24 760 82 3 753 4 25 1 81 1 273 1921 12 38
 624 0 254 752 761 81 1 24 1923 12 10 735 0 752 31 762 84 4 760 KFlB84 4 762 KFh
B81 1 254 1920 12 250 619 0 249 273 763 84 4 761 KFpB84 4 763 KFtB17 130 0 394 2
71 244 107 128 185 0 0 +15 394 733 0 244 17 0 17 271 0 394 764 130 77 46 268 0 1
84 +17 244 0 394 130 764 103 69 280 0 128 -17 128 0 127 248 121 103 130 185 0 0
 -17 248 0 127 146 128 96 106 186 0 0 -17 146 0 127 144 248 40 289 287 0 0 -17 2
89 0 518 247 51 96 146 287 0 248 +15 518 6 0 289 421 0 17 247 0 518 158 289 92 9
9 250 0 296 +17 51 0 518 289 158 40 66 159 0 147 +17 158 0 518 51 247 52 296 150
 0 294 +17 66 0 380 194 147 52 51 159 0 158 -17 147 0 380 66 58 40 144 148 0 146
 -15 380 233 0 58 373 0 17 58 0 380 147 194 55 61 151 0 144 +17 194 0 380 58 66
 59 294 191 0 140 +17 61 0 135 137 136 59 58 151 0 194 -17 296 0 293 167 294 92
 158 150 0 0 -17 99 0 245 106 95 96 247 250 0 289 -17 764 0 394 244 271 62 184 1
81 0 0 -17 69 0 34 73 240 62 244 280 0 765 +17 73 0 34 36 69 70 765 277 0 766 +1
7 765 0 402 184 767 62 73 277 0 764 -15 402 713 0 765 393 0 17 184 0 402 267 765
 77 764 181 0 0 +17 767 0 402 765 267 70 180 177 0 0 -17 267 0 402 767 184 81 80
 264 0 180 +17 180 0 409 228 766 81 767 177 0 0 +15 409 693 0 766 401 0 17 228 0
 409 235 180 85 84 237 0 176 +17 766 0 409 180 235 70 36 274 0 767 -17 235 0 409
 766 228 74 176 173 0 0 -17 36 0 34 28 73 74 766 274 0 37 +17 37 0 232 176 233 7
4 28 38 0 235 +17 84 0 44 80 88 81 228 237 0 267 -17 80 0 44 46 84 77 267 264 0
 271 -17 46 0 44 39 80 107 271 268 0 47 -81 1 30 1833 299 11 768 27 41 223 769 8
2 3 740 4 23 1 81 1 768 1709 468 11 0 30 0 495 770 81 1 41 1832 299 29 495 32 29
7 30 771 82 3 769 4 5 0 81 1 495 1710 468 29 0 41 768 492 772 82 3 771 4 4 0 83
 1 772 1 83 1 770 0 82 3 738 4 24 1 83 1 734 18 81 1 673 1725 468 103 0 670 692
 727 773 83 1 729 17 81 1 692 1724 468 100 0 551 677 673 774 83 1 773 16 81 1 67
7 1723 468 96 0 674 669 692 775 83 1 774 15 81 1 669 1722 468 92 0 656 723 677 7
76 83 1 775 14 81 1 723 1721 468 89 0 720 719 669 777 83 1 776 13 81 1 719 1720
 468 85 0 716 715 723 778 83 1 777 12 81 1 715 1719 468 81 0 712 711 719 779 83
 1 778 11 81 1 711 1718 468 77 0 708 689 715 780 83 1 779 10 81 1 689 1717 468 7
4 0 686 685 711 781 83 1 780 9 81 1 685 1716 468 70 0 682 681 689 782 83 1 781 8
 81 1 681 1715 468 62 0 678 460 685 783 83 1 782 7 81 1 460 1714 468 59 0 457 46
4 681 784 83 1 783 6 83 1 784 5 82 3 725 4 17 0 82 3 721 4 16 0 82 3 717 4 15 0
 82 3 713 4 14 0 82 3 709 4 13 0 80 1 317 0 785 8001 0 0 0 0 3 5 0 0 0 FFFFTFTFF
FFFFFFF2 81 1 565 1887 317 124 561 118 359 558 786 83 3 697 .615686274509804 .81
1764705882353 .929411764705882 81 1 118 1891 12 124 565 0 570 115 787 81 1 359 1
886 317 227 566 570 353 565 788 83 3 786 .615686274509804 .811764705882353 .9294
11764705882 81 1 570 1890 12 227 359 0 0 118 789 83 3 788 .615686274509804 .8117
64705882353 .929411764705882 84 4 789 KFGB84 4 787 KFCB79 15 785 SDL/TYSA_COLOUR
83 3 695 .615686274509804 .811764705882353 .929411764705882 82 3 693 4 12 0 82 3
 690 4 11 0 82 3 687 4 10 0 82 3 683 4 9 0 82 3 679 4 8 0 82 3 675 4 7 0 82 3 67
1 4 6 0 82 3 660 4 30 1 82 3 657 4 31 1 82 3 651 4 26 1 82 3 647 4 33 1 82 3 644
 4 34 1 82 3 641 4 35 1 82 3 637 4 39 1 82 3 633 4 38 1 82 3 629 4 36 1 82 3 625
 4 27 1 82 3 621 4 28 1 82 3 616 4 37 1 82 3 610 4 32 1 82 3 575 4 10 2 82 3 572
 4 17 2 50 255 571 1104 0 227 549 564 0 +-.0475 .0085 -.0687486354243376 -231296
4634635745e-31 1 0 -1 -2312964634635745e-31 0 13 23 89 0 0 0 0 0 0 9 17 50 549 1
109 0 246 557 571 0 +-.04 .03575 -.0687486354243376 -1 0 0 0 0 1 50 564 1103 0 1
24 571 356 0 +-.04 .00425 -.0687486354243376 -1 0 0 0 0 1 52 356 431 0 352 564 5
19 0 --.01 .01 -.00084999999999999 0 0 1 .00275 .707106781186549 .70710678118654
7 -1 1224646799147352e-31 0 50 519 3 0 421 356 487 0 +-.0265 .04 .004 1224646799
147352e-31 1 0 -1 1224646799147352e-31 0 50 487 196 0 138 519 422 0 +-.0265 3245
314017740485e-33 .004 1224646799147352e-31 1 0 -1 1224646799147352e-31 0 50 422
 237 0 239 487 416 0 +-.04380946231240595 .04 .001512150750376135 -.127025125062
688 155560912819313e-31 .991899499749248 -.991899499749248 1214726547443778e-31
 -.127025125062688 51 255 416 238 0 234 422 410 0 --.048 .04 .004 -1224646799147
352e-31 -1 0 .003 0 0 1 50 410 239 0 401 416 403 0 +-.0445906781637722 .04 .002
 0 0 1 -1 1224646799147352e-31 0 51 403 240 0 393 410 395 0 --.048 .04 .004 -122
4646799147352e-31 -1 0 .005 0 0 1 50 395 241 0 17 403 387 0 +-.04367702481088695
 .04 -.000479049621773913 -.129190075645216 1582122126205185e-32 .99161984870956
6 -.991619848709566 1214384073693152e-31 -.129190075645216 50 387 242 0 145 395
 381 0 +-.02 .04 0 0 0 1 -1 1224646799147352e-31 0 50 381 243 0 373 387 375 0 +4
89858719658941e-32 .04 .001 -1 1224646799147352e-31 0 0 0 -1 50 375 244 0 295 38
1 349 0 +-.02 .04 .002 0 0 -1 1 -1224646799147352e-31 0 52 349 454 0 332 375 20
 0 --.03 .01 -.000849999999999988 0 0 1 .00275 .707106781186549 .707106781186547
 -1 1224646799147352e-31 0 52 20 470 0 315 349 6 0 --.01 .03 -.00084999999999999
 0 0 1 .00275 .707106781186549 .707106781186547 -1 1224646799147352e-31 0 50 557
 1112 0 242 0 549 0 +-.0475 .0315 -.0687486354243376 0 1 0 0 0 1 82 3 567 4 16 2
 82 3 560 4 15 2 82 3 553 4 14 2 79 13 544 BTI/importTag79 18 540 BTI/importMaxC
ount81 1 14 1967 12 421 424 0 157 2 790 83 3 522 .615686274509804 .8117647058823
53 .929411764705882 84 3 790 JFC83 1 521 65 84 3 515 JFB83 1 514 40 84 3 511 JFF
83 1 510 39 84 3 507 JFJ83 1 506 38 84 2 501 IF83 1 500 3 81 1 155 1961 12 138 3
18 0 149 50 791 84 3 497 JFE84 3 791 JFG83 1 496 2 83 3 491 .615686274509804 .81
1764705882353 .929411764705882 83 1 490 66 83 1 483 41 84 3 479 JFR83 1 478 42 8
3 1 475 43 83 1 470 4 79 9 467 BTI/DetId82 3 462 4 3 0 82 3 458 4 6 1 82 3 454 4
 7 1 82 3 450 4 8 1 82 3 446 4 9 1 82 3 442 4 10 1 82 3 438 4 11 1 82 3 434 4 12
 1 82 3 430 4 13 1 83 3 425 .615686274509804 .811764705882353 .929411764705882 8
3 3 419 .615686274509804 .811764705882353 .929411764705882 83 3 413 .61568627450
9804 .811764705882353 .929411764705882 83 3 406 .615686274509804 .81176470588235
3 .929411764705882 83 3 398 .615686274509804 .811764705882353 .929411764705882 8
3 3 389 .615686274509804 .811764705882353 .929411764705882 15 386 483 0 792 145
 793 17 792 0 386 792 792 0 222 220 0 0 -15 793 467 0 794 145 795 17 794 0 793 7
94 794 0 215 212 0 0 -15 795 451 0 796 145 797 17 796 0 795 796 796 0 207 204 0
 0 -15 797 369 0 798 145 127 17 798 0 797 798 798 0 199 196 0 0 -17 199 0 799 19
9 199 0 798 196 0 0 +15 799 406 0 199 352 0 17 207 0 800 207 207 0 796 204 0 0 +
15 800 457 0 207 332 0 17 215 0 801 215 215 0 794 212 0 0 +15 801 473 0 215 315
 0 17 222 0 802 222 222 0 792 220 0 0 +15 802 489 0 222 19 0 83 3 383 .615686274
509804 .811764705882353 .929411764705882 83 3 377 .615686274509804 .811764705882
353 .929411764705882 15 374 482 0 803 295 804 17 803 0 374 803 803 0 219 216 0 0
 -15 804 466 0 805 295 806 17 805 0 804 805 805 0 211 208 0 0 -15 806 450 0 807
 295 808 17 807 0 806 807 807 0 203 195 0 0 -15 808 376 0 809 295 293 17 809 0 8
08 809 809 0 283 200 0 0 -17 283 0 355 283 283 0 809 200 0 0 +15 355 405 0 283 3
52 799 17 203 0 348 203 203 0 807 195 0 0 +15 348 456 0 203 332 800 17 211 0 333
 211 211 0 805 208 0 0 +15 333 472 0 211 315 801 17 219 0 316 219 219 0 803 216
 0 0 +15 316 488 0 219 19 802 82 3 370 4 14 1 82 3 365 4 15 1 83 3 360 .61568627
4509804 .811764705882353 .929411764705882 83 3 351 .615686274509804 .81176470588
2353 .929411764705882 82 3 345 4 16 1 82 3 340 4 17 1 83 3 335 .615686274509804
 .811764705882353 .929411764705882 82 3 330 4 18 1 82 3 325 4 19 1 83 3 320 .615
686274509804 .811764705882353 .929411764705882 82 3 312 4 20 1 82 3 307 4 21 1 8
2 3 303 4 22 1 79 12 300 BTI/ExportId84 3 292 JFV84 4 255 KFxB84 4 224 KFdB84 3
 156 JFN84 4 119 KFMB84 3 43 JFQ84 3 33 JFU19 18 254 0 1 0 9 5 0 S0 74 4 CI16 in
dex_map_offset0 0 1 dCCZ20 16 8 0 0 527 523 566 524 530 13 550 2 0 0 0 0 0 0 0 0
 0 0 0 0 84 3 15 JFD1 0 
