**ABCDEFGHIJKLMNOPQRSTUVWXYZabcdefghijklmnopqrstuvwxyz**************************
**PARASOLID !"#$%&'()*+,-./:;<=>?@[\]^_`{|}~0123456789**************************
**PART1;
MC=unknown;
MC_MODEL=unknown;
MC_ID=unknown;
OS=unknown;
OS_RELEASE=unknown;
FRU=Parasolid 34.1.198;
APPL=Onshape;
SITE=unknown;
USER=unknown;
FORMAT=text;
GUISE=transmit;
KEY=BTGapi::writeModels_.xmt;
FILE=BTGapi::writeModels_.xmt;
DATE=2023-01-15T06:12:56 (UTC);
**PART2;
SCH=SCH_3401198_34101;
USFLD_SIZE=0;
**PART3;
**END_OF_HEADER*****************************************************************
T51 : TRANSMIT FILE created by modeller version 340119823 SCH_3401198_34101_1300
6231 0 12 36 CCCI7 lattice222 0 CCCI4 mesh1006 0 I8 polyline1008 0 CCCCCCCDI5 ow
ner1040 0 CCCI16 boundary_lattice222 0 CCCI13 boundary_mesh1006 0 I17 boundary_p
olyline1008 0 CCCA16 index_map_offset0 0 1 dA9 index_map82 0 A17 node_id_index_m
ap82 0 A20 schema_embedding_map82 0 A5 child12 0 A14 lowest_node_id0 0 1 dA16 me
sh_offset_data206 0 Z1 238 2 3 0 0 0 0 0 0 0 1e3 1e-8 0 4 0 1 0 1 1 5 0 6 7 8 0
 0 9 10 11 0 0 0 0 0 0 0 81 255 1 2 214 12 1 13 0 14 15 16 70 11 CI9 list_type0
 0 1 uI10 notransmit0 0 1 lCCCDCCDI12 finger_index0 0 1 dI12 finger_block1012 0
 CZ3 0 4 T1 0 0 6 20 1 17 17 13 255 5 137 0 1 0 18 0 0 19 0 50 255 6 193 0 20 21
 0 0 +-.7 1221245327087672e-31 1 1 -555111512312578e-31 0 555111512312578e-31 1
 0 30 255 7 201 0 22 23 0 0 +-.7 -.5 1 0 0 -1 29 255 8 197 0 24 25 0 -.7 -.5 0 1
9 9 CCCCCCI5 frame230 0 CA5 owner12 0 Z9 48 0 1 19 0 26 0 V0 16 255 10 120 27 ?2
8 0 29 30 0 0 1 18 255 11 42 31 32 0 33 34 ?1 81 1 31 233 12 11 35 0 36 37 38 17
 255 32 0 39 40 41 11 42 43 0 44 -18 33 37 45 46 11 47 25 ?1 29 34 183 0 11 48 4
9 .6 -.5 1 29 48 182 0 50 0 34 .6 -.5 0 29 49 184 0 51 34 52 .6 .5 1 18 51 27 53
 54 47 50 49 ?1 29 52 185 0 55 49 56 .6 .5 0 18 55 104 57 28 58 0 52 ?1 29 56 19
4 0 58 52 59 -.7 .5 0 18 58 100 60 61 24 55 56 ?1 29 59 195 0 47 56 25 -.7 .5 1
 18 47 32 62 63 33 51 59 ?1 29 25 196 0 33 59 8 -.7 -.5 1 81 1 62 235 12 47 64 0
 37 60 65 17 63 0 66 46 67 47 68 69 0 70 +15 255 66 6 0 67 71 0 17 46 0 66 72 63
 33 73 74 0 75 +17 67 0 66 63 72 51 44 76 0 0 -17 68 0 77 28 70 51 63 69 0 67 -1
6 69 12 78 ?63 74 76 79 0 0 1 17 70 0 77 68 61 47 80 29 0 73 -15 77 125 0 61 81
 0 17 61 0 77 70 28 58 82 83 0 80 +17 80 0 84 85 73 58 70 29 0 86 +16 29 119 87
 ?80 10 22 88 0 0 1 17 73 0 84 80 75 47 46 74 0 0 -15 84 123 0 85 20 0 17 75 0 8
4 73 85 33 89 22 0 40 -16 74 17 90 ?46 91 69 23 0 0 1 81 1 90 219 12 74 92 0 93
 94 95 16 91 22 96 ?40 43 74 97 0 0 1 30 23 200 0 74 88 7 0 +-.7 122124532708767
2e-31 1 -555111512312578e-31 -1 0 30 88 199 0 29 98 23 0 +-.7 .5 1 0 0 -1 30 98
 198 0 99 30 88 0 +-.7 1221245327087672e-31 0 -555111512312578e-31 -1 0 16 99 80
 94 ?85 100 83 98 0 0 1 30 30 189 0 10 101 98 0 +.6 .5 1 0 0 -1 30 101 188 0 76
 102 30 0 +.6 1665334536937735e-32 1 -1110223024625156e-31 -1 0 16 76 7 103 ?44
 69 100 101 0 0 1 30 102 187 0 43 104 101 0 +.6 -.5 1 0 0 -1 16 43 117 105 ?42 2
2 91 102 0 0 1 30 104 186 0 106 107 102 0 +.6 1665334536937735e-32 0 -1110223024
625156e-31 -1 0 16 106 88 108 ?109 83 0 104 0 0 1 30 107 109 0 100 110 104 0 +0
 -.5 0 -1 0 0 16 100 76 111 ?112 76 99 107 0 0 1 30 110 111 0 83 97 107 0 +11102
23024625156e-31 .5 0 -1 0 0 16 83 84 113 ?61 99 106 110 0 0 1 30 97 24 0 91 79 1
10 0 +0 -.5 1 -1 0 0 30 79 14 0 69 0 97 0 +1110223024625156e-31 .5 1 -1 0 0 81 1
 113 226 12 83 114 0 78 115 116 80 7 CCCCCDI12 legal_owners0 16 1 lCZ1 12 117 11
8 9000 0 0 0 0 3 5 0 0 0 FFTFTFTTFFFFFFFF3 81 1 114 164 117 83 0 113 119 120 121
 81 1 78 225 12 69 120 0 111 113 122 81 1 115 227 12 22 119 0 113 105 123 84 255
 3 116 JHR16 22 118 115 ?89 29 43 7 0 0 1 81 1 119 163 117 22 0 115 124 114 125
 81 1 105 228 12 43 124 0 115 87 126 84 3 123 JHN81 1 124 162 117 43 0 105 127 1
19 128 81 1 87 229 12 29 127 0 105 27 129 84 3 126 JHJ81 1 127 161 117 29 0 87 1
30 124 131 81 1 27 230 12 10 130 0 87 45 132 84 3 129 JHF81 1 130 160 117 10 0 2
7 133 127 134 81 1 45 231 12 33 133 0 27 36 135 84 3 132 JHB81 1 133 159 117 33
 0 45 136 130 137 81 1 36 232 12 24 136 0 45 31 138 84 3 135 JHc18 24 96 36 89 5
0 58 8 ?1 81 1 136 158 117 24 0 36 35 133 139 84 3 138 JHY80 1 117 140 141 9000
 0 0 0 0 3 6 0 0 0 FFTFTFTTFFFFFFFF1 81 1 35 157 117 11 0 31 142 136 143 82 255
 3 139 6 6 0 81 1 142 156 117 50 0 37 64 35 144 82 3 143 6 5 0 18 50 92 37 42 51
 24 48 ?1 81 1 37 234 12 50 142 0 31 62 145 81 1 64 155 117 47 0 62 146 142 147
 82 3 144 6 4 0 81 1 146 154 117 58 0 60 148 64 149 82 3 147 6 3 0 81 1 60 236 1
2 58 146 0 62 53 150 81 1 148 153 117 51 0 53 151 146 152 82 3 149 6 2 0 81 1 53
 237 12 51 148 0 60 57 153 81 1 151 152 117 55 0 57 0 148 154 82 3 152 6 1 0 81
 1 57 238 12 55 151 0 53 0 155 82 3 154 6 0 0 84 2 155 IH84 3 153 JHE84 3 150 JH
I84 3 145 JHQ17 42 0 156 157 44 50 32 43 0 109 +15 156 127 0 157 18 0 17 157 0 1
56 54 42 55 109 106 0 0 -17 44 0 156 42 54 11 67 76 0 72 +17 109 0 158 112 82 50
 157 106 0 41 +15 158 75 0 109 159 0 17 112 0 158 86 109 24 41 100 0 0 +17 82 0
 158 109 86 55 61 83 0 157 -17 41 0 39 32 89 50 112 100 0 0 -15 39 121 0 41 160
 0 17 89 0 39 41 40 24 75 22 0 85 +17 40 0 39 89 32 33 72 91 0 0 +17 85 0 84 75
 80 24 86 99 0 112 +17 86 0 158 82 112 58 85 99 0 0 -17 72 0 66 67 46 11 40 91 0
 0 -14 255 160 122 15 ?71 20 39 5 161 +0 0 71 20 26 81 1 15 215 12 160 162 0 2 1
63 164 14 71 1 163 ?159 160 66 5 165 +0 0 159 160 26 14 20 124 166 ?160 81 84 5
 6 -0 0 160 81 26 50 161 129 0 160 167 168 0 +0 -.5 1 0 -1 0 0 0 -1 13 26 49 0 0
 0 0 0 0 9 18 14 18 128 14 ?81 0 156 5 21 +0 0 81 0 26 81 1 14 213 12 18 169 0 1
66 2 170 14 81 126 93 ?20 18 77 5 168 -0 0 20 18 26 50 21 181 0 18 168 6 0 +.6 1
665334536937735e-32 1 1 -1110223024625156e-31 0 1110223024625156e-31 1 0 50 168
 131 0 81 161 21 0 +1110223024625156e-31 .5 1 0 -1 0 0 0 -1 81 1 93 218 12 81 17
1 0 172 90 173 81 1 171 207 174 81 175 93 169 176 177 81 1 172 217 12 159 178 0
 163 93 179 84 3 173 JHC14 159 68 172 ?0 71 158 5 167 -0 0 0 71 26 81 1 178 211
 174 159 180 172 181 0 182 81 1 163 216 12 71 181 0 15 172 183 84 3 179 JHG81 1
 181 210 174 71 184 163 162 178 185 84 3 183 JHK80 1 174 0 186 8001 0 0 0 0 3 5
 0 0 0 FFFFTFTFFFFFFFFF2 81 1 184 174 117 71 0 181 180 187 188 81 1 162 209 174
 160 187 15 176 181 189 83 255 3 185 .615686274509804 .811764705882353 .92941176
4705882 81 1 187 175 117 160 0 162 184 190 191 81 1 176 208 174 20 192 166 171 1
62 193 83 3 189 .615686274509804 .811764705882353 .929411764705882 81 1 192 202
 117 20 0 176 194 0 195 81 1 166 212 12 20 176 0 0 14 196 83 3 193 .615686274509
804 .811764705882353 .929411764705882 84 3 196 JJC81 1 194 190 117 18 0 169 190
 192 197 82 3 195 8 0 2 81 1 169 206 174 18 194 14 0 171 198 81 1 190 178 117 1
 0 199 187 194 200 82 3 197 7 0 2 81 1 199 203 201 1 190 202 0 0 203 82 3 200 6
 0 3 80 1 201 204 205 8038 0 0 0 0 0 0 0 0 0 TTTTTTTTTTTTTFTF10 81 1 202 204 204
 1 199 13 0 0 206 98 255 6 203 80 97 114 116 32 49 80 1 204 207 208 8017 0 0 0 0
 0 0 0 0 0 TTTTTTTTTTTTTFTF3 81 1 13 205 209 1 202 2 0 0 210 84 6 206 Part 180 1
 209 174 211 8040 0 0 0 0 3 5 0 0 0 TTTFFFFFFFFFFFFF2 83 3 210 .615686274509804
 .811764705882353 .929411764705882 79 255 17 211 SDL/TYSA_COLOUR_279 13 208 SDL/
TYSA_NAME79 14 205 SDL/TYSA_UNAME83 3 198 .615686274509804 .811764705882353 .929
411764705882 82 3 191 6 3 2 81 1 180 173 117 159 0 178 175 184 212 82 3 188 6 2
 2 81 1 175 172 117 81 0 171 92 180 213 82 3 212 6 1 2 81 1 92 171 117 74 0 90 2
14 175 215 82 3 213 6 0 2 81 1 214 170 117 99 0 94 216 92 217 82 3 215 6 11 1 81
 1 94 220 12 99 214 0 90 103 218 81 1 216 169 117 76 0 103 219 214 220 82 3 217
 6 10 1 81 1 103 221 12 76 216 0 94 108 221 81 1 219 168 117 106 0 108 222 216 2
23 82 3 220 6 9 1 81 1 108 222 12 106 219 0 103 96 224 81 1 222 167 117 91 0 96
 225 219 226 82 3 223 6 8 1 81 1 96 223 12 91 222 0 108 111 227 81 1 225 166 117
 100 0 111 120 222 228 82 3 226 6 7 1 81 1 111 224 12 100 225 0 96 78 229 81 1 1
20 165 117 69 0 78 114 225 230 82 3 228 6 6 1 82 3 230 6 5 1 84 3 229 JHZ84 3 22
7 JHd84 3 224 JHh84 3 221 JHl84 3 218 JHp79 15 186 SDL/TYSA_COLOUR83 3 182 .6156
86274509804 .811764705882353 .929411764705882 50 167 108 0 159 165 161 0 +111022
3024625156e-31 1110223024625156e-31 0 0 0 1 1 0 0 50 165 3 0 71 0 167 0 +1110223
024625156e-31 1110223024625156e-31 1 0 0 1 1 0 0 83 3 177 .615686274509804 .8117
64705882353 .929411764705882 84 3 170 JIC84 3 164 JHO17 54 0 156 44 157 51 28 10
 0 68 -17 28 0 77 61 68 55 54 10 0 82 +79 9 141 BTI/DetId82 3 137 6 7 0 82 3 134
 6 0 1 82 3 131 6 1 1 82 3 128 6 2 1 82 3 125 6 3 1 84 3 122 JHV82 3 121 6 4 1 7
9 12 118 BTI/ExportId84 3 95 JHt84 3 65 JHM84 3 38 JHU19 19 138 0 1 0 9 5 0 S0 7
4 4 CI16 index_map_offset0 0 1 dCCZ20 17 6 0 0 192 199 202 13 178 57 0 0 0 0 0 0
 0 0 0 0 0 0 0 0 84 3 16 JHD1 0 
