**ABCDEFGHIJKLMNOPQRSTUVWXYZabcdefghijklmnopqrstuvwxyz**************************
**PARASOLID !"#$%&'()*+,-./:;<=>?@[\]^_`{|}~0123456789**************************
**PART1;
MC=unknown;
MC_MODEL=unknown;
MC_ID=unknown;
OS=unknown;
OS_RELEASE=unknown;
FRU=Parasolid 34.1.198;
APPL=Onshape;
SITE=unknown;
USER=unknown;
FORMAT=text;
GUISE=transmit;
KEY=BTGapi::writeModels_.xmt;
FILE=BTGapi::writeModels_.xmt;
DATE=2023-01-15T06:12:56 (UTC);
**PART2;
SCH=SCH_3401198_34101;
USFLD_SIZE=0;
**PART3;
**END_OF_HEADER*****************************************************************
T51 : TRANSMIT FILE created by modeller version 340119823 SCH_3401198_34101_1300
6231 0 12 36 CCCI7 lattice222 0 CCCI4 mesh1006 0 I8 polyline1008 0 CCCCCCCDI5 ow
ner1040 0 CCCI16 boundary_lattice222 0 CCCI13 boundary_mesh1006 0 I17 boundary_p
olyline1008 0 CCCA16 index_map_offset0 0 1 dA9 index_map82 0 A17 node_id_index_m
ap82 0 A20 schema_embedding_map82 0 A5 child12 0 A14 lowest_node_id0 0 1 dA16 me
sh_offset_data206 0 Z1 226 2 3 0 0 0 0 0 0 0 1e3 1e-8 0 4 0 1 0 1 1 5 0 6 7 8 0
 0 9 10 11 0 0 0 0 0 0 0 81 255 1 2 201 12 1 13 0 14 15 16 70 11 CI9 list_type0
 0 1 uI10 notransmit0 0 1 lCCCDCCDI12 finger_index0 0 1 dI12 finger_block1012 0
 CZ3 0 4 T1 0 0 6 20 1 17 17 13 255 5 137 0 1 0 18 0 0 19 0 50 255 6 181 0 18 20
 0 0 +.6 1665334536937735e-32 1 1 -1110223024625156e-31 0 1110223024625156e-31 1
 0 30 255 7 189 0 10 21 0 0 +.6 .5 1 0 0 -1 29 255 8 185 0 22 23 0 .6 .5 0 19 9
 CCCCCCI5 frame230 0 CA5 owner12 0 Z9 48 0 1 19 0 24 0 V0 16 255 10 120 25 ?26 0
 27 7 0 0 1 18 255 11 42 28 29 0 30 31 ?1 81 1 28 221 12 11 32 0 33 34 35 17 255
 29 0 36 37 38 11 39 40 0 41 -18 30 37 42 43 11 44 45 ?1 29 31 183 0 11 46 23 .6
 -.5 1 29 46 182 0 47 48 31 .6 -.5 0 29 23 184 0 49 31 8 .6 .5 1 18 49 27 50 51
 44 47 23 ?1 81 1 50 225 12 49 52 0 53 54 55 17 51 0 56 41 57 49 26 10 0 58 -18
 44 32 59 60 30 49 61 ?1 18 47 92 34 39 49 62 46 ?1 81 1 34 222 12 47 63 0 28 59
 64 17 39 0 56 57 41 47 29 40 0 65 +18 62 96 33 66 47 67 48 ?1 81 1 33 220 12 62
 68 0 42 28 69 17 66 0 36 38 37 62 70 71 0 72 +18 67 100 53 73 62 22 74 ?1 29 48
 114 0 62 74 46 -.5 -.5 0 29 74 115 0 67 45 48 -.5 .5 0 29 45 39 0 30 61 74 -.5
 -.5 1 29 61 34 0 44 0 45 -.5 .5 1 81 1 53 224 12 67 75 0 59 50 76 17 73 0 77 78
 26 67 79 80 0 81 +18 22 104 54 26 67 0 8 ?1 81 1 54 226 12 22 82 0 50 0 83 17 2
6 0 77 73 58 22 51 10 0 79 +15 255 77 125 0 73 84 0 17 58 0 77 26 78 49 60 85 0
 86 -17 79 0 87 65 88 22 73 80 0 57 -15 87 75 0 65 89 0 17 65 0 87 90 79 47 57 9
1 0 38 +17 88 0 87 79 90 67 72 92 0 0 -16 80 84 93 ?73 92 91 94 0 0 1 17 57 0 56
 51 39 22 65 91 0 0 -15 56 127 0 57 18 0 16 91 88 95 ?65 80 0 96 0 0 1 81 1 95 2
10 12 91 97 0 98 99 100 30 96 186 0 91 101 102 0 +.6 1665334536937735e-32 0 -111
0223024625156e-31 -1 0 30 101 135 0 27 103 96 0 +-.5 .5 1 0 0 -1 30 102 187 0 40
 96 21 0 +.6 -.5 1 0 0 -1 16 40 117 104 ?39 71 105 102 0 0 1 30 21 188 0 106 102
 7 0 +.6 1665334536937735e-32 1 -1110223024625156e-31 -1 0 16 106 7 98 ?41 85 10
7 21 0 0 1 81 1 98 209 12 106 108 0 109 95 110 17 41 0 56 39 51 11 86 106 0 111
 +16 85 12 112 ?60 113 106 114 0 0 1 16 107 76 115 ?90 106 92 116 0 0 1 81 1 115
 212 12 107 117 0 99 112 118 17 90 0 87 88 65 62 38 107 0 0 +16 92 80 109 ?72 10
7 80 119 0 0 1 30 116 109 0 107 119 103 0 +0 -.5 0 -1 0 0 30 119 110 0 92 94 116
 0 +-.5 1110223024625156e-31 0 -555111512312578e-31 -1 0 30 103 134 0 71 116 101
 0 +-.5 -.5 1 0 0 -1 16 71 118 120 ?66 27 40 103 0 0 1 81 1 120 215 12 71 121 0
 93 104 122 16 27 119 123 ?81 10 71 101 0 0 1 81 1 123 217 12 27 124 0 104 25 12
5 17 81 0 126 72 127 67 78 27 0 88 +15 126 123 0 72 128 0 17 72 0 126 70 81 62 8
8 92 0 90 +17 127 0 126 81 70 44 43 113 0 0 -17 78 0 77 58 73 44 81 27 0 127 -17
 70 0 126 127 72 30 66 71 0 37 -17 43 0 129 111 60 30 127 113 0 70 +16 113 17 13
0 ?43 105 85 131 0 0 1 81 1 130 207 12 113 132 0 133 109 134 16 105 22 99 ?37 40
 113 135 0 0 1 30 131 19 0 113 114 135 0 +-.5 1110223024625156e-31 1 -5551115123
12578e-31 -1 0 30 114 14 0 85 0 131 0 +1110223024625156e-31 .5 1 -1 0 0 30 135 2
4 0 105 131 94 0 +0 -.5 1 -1 0 0 30 94 111 0 80 135 119 0 +1110223024625156e-31
 .5 0 -1 0 0 81 1 99 211 12 105 136 0 95 115 137 17 37 0 36 66 29 30 111 105 0 0
 +15 36 121 0 38 138 0 17 111 0 129 86 43 11 37 105 0 0 -15 129 6 0 86 139 0 17
 86 0 129 60 111 49 41 106 0 0 -17 60 0 129 43 86 44 58 85 0 78 +14 255 139 1 14
0 ?89 138 129 5 141 +0 0 89 138 24 81 1 140 204 12 139 142 0 143 144 145 14 89 6
8 144 ?0 139 87 5 146 -0 0 0 139 24 14 138 122 143 ?139 128 36 5 147 +0 0 139 12
8 24 50 141 3 0 139 0 146 0 +1110223024625156e-31 1110223024625156e-31 1 0 0 1 1
 0 0 13 24 49 0 0 0 0 0 0 9 18 14 18 128 14 ?84 0 56 5 6 +0 0 84 0 24 81 1 14 20
0 12 18 148 0 0 2 149 14 84 126 133 ?128 18 77 5 20 -0 0 128 18 24 81 1 133 206
 12 84 150 0 144 130 151 14 128 124 15 ?138 84 126 5 152 -0 0 138 84 24 50 20 13
1 0 84 152 6 0 +1110223024625156e-31 .5 1 0 -1 0 0 0 -1 50 152 130 0 128 147 20
 0 +-.5 1110223024625156e-31 1 1 -555111512312578e-31 0 555111512312578e-31 1 0
 50 147 129 0 138 146 152 0 +0 -.5 1 0 -1 0 0 0 -1 50 146 108 0 89 141 147 0 +11
10223024625156e-31 1110223024625156e-31 0 0 0 1 1 0 0 81 1 15 202 12 128 153 0 2
 143 154 80 7 CCCCCDI12 legal_owners0 16 1 lCZ1 12 155 156 9000 0 0 0 0 3 5 0 0
 0 FFTFTFTTFFFFFFFF3 81 1 153 196 157 128 158 15 150 159 160 81 1 143 203 12 138
 159 0 15 140 161 84 255 3 154 JHW81 1 159 197 157 138 162 143 153 142 163 84 3
 161 JHO80 1 157 0 164 8001 0 0 0 0 3 5 0 0 0 FFFFTFTFFFFFFFFF2 81 1 162 175 155
 138 0 159 165 158 166 81 1 142 198 157 139 165 140 159 167 168 83 255 3 163 .61
5686274509804 .811764705882353 .929411764705882 81 1 165 174 155 139 0 142 169 1
62 170 81 1 167 199 157 89 169 144 142 0 171 83 3 168 .615686274509804 .81176470
5882353 .929411764705882 81 1 169 173 155 89 0 167 172 165 173 81 1 144 205 12 8
9 167 0 140 133 174 83 3 171 .615686274509804 .811764705882353 .929411764705882
 84 3 174 JHG80 1 155 175 176 9000 0 0 0 0 3 6 0 0 0 FFTFTFTTFFFFFFFF1 81 1 172
 172 155 84 0 150 132 169 177 82 255 3 173 6 1 2 81 1 150 195 157 84 172 133 148
 153 178 81 1 132 171 155 113 0 130 179 172 180 82 3 177 6 0 2 81 1 179 170 155
 92 0 109 108 132 181 82 3 180 6 11 1 81 1 109 208 12 92 179 0 130 98 182 81 1 1
08 169 155 106 0 98 97 179 183 82 3 181 6 10 1 81 1 97 168 155 91 0 95 136 108 1
84 82 3 183 6 9 1 81 1 136 167 155 105 0 99 117 97 185 82 3 184 6 8 1 81 1 117 1
66 155 107 0 115 186 136 187 82 3 185 6 7 1 81 1 186 165 155 85 0 112 188 117 18
9 82 3 187 6 6 1 81 1 112 213 12 85 186 0 115 93 190 81 1 188 164 155 80 0 93 12
1 186 191 82 3 189 6 5 1 81 1 93 214 12 80 188 0 112 120 192 81 1 121 163 155 71
 0 120 193 188 194 82 3 191 6 4 1 81 1 193 162 155 40 0 104 124 121 195 82 3 194
 6 3 1 81 1 104 216 12 40 193 0 120 123 196 81 1 124 161 155 27 0 123 197 193 19
8 82 3 195 6 2 1 81 1 197 160 155 10 0 25 199 124 200 82 3 198 6 1 1 81 1 25 218
 12 10 197 0 123 42 201 81 1 199 159 155 30 0 42 68 197 202 82 3 200 6 0 1 81 1
 42 219 12 30 199 0 25 33 203 81 1 68 158 155 62 0 33 32 199 204 82 3 202 6 7 0
 81 1 32 157 155 11 0 28 63 68 205 82 3 204 6 6 0 81 1 63 156 155 47 0 34 206 32
 207 82 3 205 6 5 0 81 1 206 155 155 44 0 59 75 63 208 82 3 207 6 4 0 81 1 59 22
3 12 44 206 0 34 53 209 81 1 75 154 155 67 0 53 52 206 210 82 3 208 6 3 0 81 1 5
2 153 155 49 0 50 82 75 211 82 3 210 6 2 0 81 1 82 152 155 22 0 54 0 52 212 82 3
 211 6 1 0 82 3 212 6 0 0 84 3 209 JHM84 3 203 JHc84 3 201 JHB84 3 196 JHJ84 3 1
92 JHR84 3 190 JHV84 3 182 JHp81 1 148 194 157 18 213 14 0 150 214 83 3 178 .615
686274509804 .811764705882353 .929411764705882 81 1 213 190 155 18 0 148 215 0 2
16 83 3 214 .615686274509804 .811764705882353 .929411764705882 81 1 215 178 155
 1 0 217 158 213 218 82 3 216 7 0 2 81 1 217 191 219 1 215 220 0 0 221 81 1 158
 177 155 128 0 153 162 215 222 82 3 218 6 0 3 82 3 222 6 5 2 80 1 219 223 224 80
38 0 0 0 0 0 0 0 0 0 TTTTTTTTTTTTTFTF10 81 1 220 192 223 1 217 13 0 0 225 98 255
 6 221 80 97 114 116 32 49 80 1 223 226 227 8017 0 0 0 0 0 0 0 0 0 TTTTTTTTTTTTT
FTF3 81 1 13 193 228 1 220 2 0 0 229 84 6 225 Part 180 1 228 157 230 8040 0 0 0
 0 3 5 0 0 0 TTTFFFFFFFFFFFFF2 83 3 229 .615686274509804 .811764705882353 .92941
1764705882 79 255 17 230 SDL/TYSA_COLOUR_279 13 227 SDL/TYSA_NAME79 14 224 SDL/T
YSA_UNAME79 9 176 BTI/DetId82 3 170 6 2 2 82 3 166 6 3 2 79 15 164 SDL/TYSA_COLO
UR83 3 160 .615686274509804 .811764705882353 .929411764705882 79 12 156 BTI/Expo
rtId84 3 151 JHC84 3 149 JIC84 3 145 JHK17 38 0 36 29 66 47 90 107 0 0 -84 3 137
 JHd84 3 134 JHt84 3 125 JHF84 3 122 JHN84 3 118 JHZ84 3 110 JHl84 3 100 JHh84 2
 83 IH84 3 76 JHI84 3 69 JHY84 3 64 JHQ84 3 55 JHE84 3 35 JHU19 19 138 0 1 0 9 5
 0 S0 74 4 CI16 index_map_offset0 0 1 dCCZ20 17 6 0 0 213 217 220 13 167 54 0 0
 0 0 0 0 0 0 0 0 0 0 0 0 84 3 16 JHD1 0 
