**ABCDEFGHIJKLMNOPQRSTUVWXYZabcdefghijklmnopqrstuvwxyz**************************
**PARASOLID !"#$%&'()*+,-./:;<=>?@[\]^_`{|}~0123456789**************************
**PART1;
MC=unknown;
MC_MODEL=unknown;
MC_ID=unknown;
OS=unknown;
OS_RELEASE=unknown;
FRU=Parasolid 34.1.198;
APPL=Onshape;
SITE=unknown;
USER=unknown;
FORMAT=text;
GUISE=transmit;
KEY=BTGapi::writeModels_.xmt;
FILE=BTGapi::writeModels_.xmt;
DATE=2023-01-12T05:29:36 (UTC);
**PART2;
SCH=SCH_3401198_34101;
USFLD_SIZE=0;
**PART3;
**END_OF_HEADER*****************************************************************
T51 : TRANSMIT FILE created by modeller version 340119823 SCH_3401198_34101_1300
6231 0 12 36 CCCI7 lattice222 0 CCCI4 mesh1006 0 I8 polyline1008 0 CCCCCCCDI5 ow
ner1040 0 CCCI16 boundary_lattice222 0 CCCI13 boundary_mesh1006 0 I17 boundary_p
olyline1008 0 CCCA16 index_map_offset0 0 1 dA9 index_map82 0 A17 node_id_index_m
ap82 0 A20 schema_embedding_map82 0 A5 child12 0 A14 lowest_node_id0 0 1 dA16 me
sh_offset_data206 0 Z1 214 2 3 0 0 0 0 0 0 0 1e3 1e-8 0 4 0 1 0 1 1 5 0 6 7 8 0
 0 9 10 11 0 0 0 0 0 0 0 81 255 1 2 188 12 1 13 0 0 14 15 70 11 CI9 list_type0 0
 1 uI10 notransmit0 0 1 lCCCDCCDI12 finger_index0 0 1 dI12 finger_block1012 0 CZ
3 0 4 T1 0 0 6 20 1 16 16 13 255 5 137 0 1 0 17 0 0 18 0 50 255 6 132 0 17 19 0
 0 +.0173318386077881 0 .0254 1 0 0 0 0 -1 30 255 7 136 0 10 20 0 0 +.0173318386
077881 .02037185057997705 .0254 0 0 -1 29 255 8 113 0 21 22 0 .0173318386077881
 -.02037185057997705 0 19 9 CCCCCCI5 frame230 0 CA5 owner12 0 Z9 48 0 1 18 0 23
 0 V0 16 255 10 120 24 ?25 0 26 7 0 0 1 18 255 11 42 27 28 0 29 30 ?1 81 1 27 20
9 12 11 31 0 32 33 34 17 255 28 0 35 36 37 11 38 39 0 40 -18 29 37 41 42 11 43 4
4 ?1 29 30 44 0 11 44 45 .0173318386077881 -.02037185057997705 .0254 29 44 39 0
 29 46 30 -.0173318386077881 -.02037185057997705 .0254 29 45 116 0 47 30 48 .017
3318386077881 .02037185057997705 0 18 47 104 49 25 50 0 45 ?1 29 48 115 0 50 45
 22 -.0173318386077881 .02037185057997705 0 18 50 100 51 52 53 47 48 ?1 29 22 11
4 0 53 48 8 -.0173318386077881 -.02037185057997705 0 18 53 96 32 54 21 50 22 ?1
 81 1 32 208 12 53 55 0 41 27 56 17 54 0 35 37 36 53 57 58 0 59 +18 21 92 33 38
 60 53 8 ?1 81 1 33 210 12 21 61 0 27 62 63 17 38 0 64 65 40 21 28 39 0 66 +18 6
0 27 67 68 43 21 69 ?1 81 1 67 213 12 60 70 0 51 49 71 17 68 0 64 40 65 60 25 10
 0 72 -18 43 32 62 73 29 60 46 ?1 29 69 29 0 60 0 46 .0173318386077881 .02037185
057997705 .0254 29 46 34 0 43 69 44 -.0173318386077881 .02037185057997705 .0254
 81 1 62 211 12 43 74 0 33 51 75 17 73 0 76 42 77 43 72 78 0 79 +15 255 76 6 0 7
7 80 0 17 42 0 76 81 73 29 82 83 0 57 +17 77 0 76 73 81 60 40 84 0 0 -17 72 0 85
 25 79 60 73 78 0 77 -16 78 12 86 ?73 83 84 87 0 0 1 17 79 0 85 72 52 43 88 26 0
 82 -15 85 125 0 52 89 0 17 52 0 85 79 25 50 90 91 0 88 +17 88 0 92 59 82 50 79
 26 0 93 +16 26 119 94 ?88 10 58 20 0 0 1 17 82 0 92 88 57 43 42 83 0 0 -15 92 1
23 0 59 95 0 17 57 0 92 82 59 29 54 58 0 36 -16 83 17 96 ?42 97 78 98 0 0 1 81 1
 96 195 12 83 99 0 100 101 102 16 97 22 103 ?36 39 83 104 0 0 1 30 98 19 0 83 87
 104 0 +-.0173318386077881 0 .0254 0 -1 0 30 87 14 0 78 105 98 0 +0 .02037185057
997705 .0254 -1 0 0 30 104 24 0 97 98 106 0 +0 -.02037185057997705 .0254 -1 0 0
 30 106 112 0 107 104 108 0 +.0173318386077881 0 0 0 -1 0 16 107 88 109 ?66 91 0
 106 0 0 1 30 108 111 0 91 106 110 0 +0 .02037185057997705 0 -1 0 0 16 91 84 111
 ?52 112 107 108 0 0 1 30 110 110 0 112 108 113 0 +-.0173318386077881 0 0 0 -1 0
 16 112 80 101 ?59 114 91 110 0 0 1 30 113 109 0 114 110 115 0 +0 -.020371850579
97705 0 -1 0 0 16 114 76 116 ?117 84 112 113 0 0 1 30 115 133 0 39 113 118 0 +.0
173318386077881 -.02037185057997705 .0254 0 0 -1 16 39 117 119 ?38 58 97 115 0 0
 1 30 118 134 0 58 115 20 0 +-.0173318386077881 -.02037185057997705 .0254 0 0 -1
 16 58 118 120 ?54 26 39 118 0 0 1 30 20 135 0 26 118 7 0 +-.0173318386077881 .0
2037185057997705 .0254 0 0 -1 81 1 120 203 12 58 121 0 111 119 122 80 7 CCCCCDI1
2 legal_owners0 16 1 lCZ1 12 123 124 9000 0 0 0 0 3 5 0 0 0 FFTFTFTTFFFFFFFF3 81
 1 121 163 123 58 0 120 125 126 127 81 1 111 202 12 91 126 0 86 120 128 81 1 119
 204 12 39 125 0 120 94 129 84 255 3 122 JHN81 1 125 162 123 39 0 119 130 121 13
1 81 1 94 205 12 26 130 0 119 24 132 84 3 129 JHJ81 1 130 161 123 26 0 94 133 12
5 134 81 1 24 206 12 10 133 0 94 41 135 84 3 132 JHF81 1 133 160 123 10 0 24 136
 130 137 81 1 41 207 12 29 136 0 24 32 138 84 3 135 JHB81 1 136 159 123 29 0 41
 55 133 139 84 3 138 JHc80 1 123 140 141 9000 0 0 0 0 3 6 0 0 0 FFTFTFTTFFFFFFFF
1 81 1 55 158 123 53 0 32 31 136 142 82 255 3 139 6 7 0 81 1 31 157 123 11 0 27
 61 55 143 82 3 142 6 6 0 81 1 61 156 123 21 0 33 74 31 144 82 3 143 6 5 0 81 1
 74 155 123 43 0 62 145 61 146 82 3 144 6 4 0 81 1 145 154 123 50 0 51 70 74 147
 82 3 146 6 3 0 81 1 51 212 12 50 145 0 62 67 148 81 1 70 153 123 60 0 67 149 14
5 150 82 3 147 6 2 0 81 1 149 152 123 47 0 49 0 70 151 82 3 150 6 1 0 81 1 49 21
4 12 47 149 0 67 0 152 82 3 151 6 0 0 84 2 152 IH84 3 148 JHI79 255 9 141 BTI/De
tId82 3 137 6 0 1 82 3 134 6 1 1 82 3 131 6 2 1 81 1 126 164 123 91 0 111 121 15
3 154 81 1 86 201 12 78 153 0 116 111 155 84 3 128 JHR81 1 153 165 123 78 0 86 1
26 156 157 81 1 116 200 12 114 156 0 103 86 158 84 3 155 JHV81 1 156 166 123 114
 0 116 153 159 160 81 1 103 199 12 97 159 0 109 116 161 84 3 158 JHZ81 1 159 167
 123 97 0 103 156 162 163 81 1 109 198 12 107 162 0 164 103 165 84 3 161 JHd81 1
 162 168 123 107 0 109 159 166 167 81 1 164 197 12 84 166 0 101 109 168 84 3 165
 JHh16 84 7 164 ?40 78 114 105 0 0 1 81 1 166 169 123 84 0 164 162 169 170 81 1
 101 196 12 112 169 0 96 164 171 84 3 168 JHl81 1 169 170 123 112 0 101 166 99 1
72 84 3 171 JHp81 1 99 171 123 83 0 96 169 173 174 82 3 172 6 10 1 81 1 173 172
 123 89 0 175 99 176 177 82 3 174 6 11 1 14 255 89 126 100 ?95 17 85 5 19 -0 0 9
5 17 23 81 1 175 183 178 89 173 100 179 180 181 81 1 176 173 123 182 0 183 173 1
84 185 82 3 177 6 0 2 14 182 68 186 ?0 80 187 5 188 -0 0 0 80 23 81 1 183 187 17
8 182 176 186 189 0 190 81 1 184 174 123 80 0 189 176 191 192 82 3 185 6 1 2 14
 80 1 193 ?182 194 76 5 195 +0 0 182 194 23 81 1 189 186 178 80 184 193 196 183
 197 81 1 191 175 123 194 0 196 184 198 199 82 3 192 6 2 2 14 194 122 200 ?80 95
 35 5 201 +0 0 80 95 23 81 1 196 185 178 194 191 200 180 189 202 81 1 198 176 12
3 17 0 179 191 203 204 82 3 199 6 3 2 14 17 128 205 ?89 0 64 5 6 +0 0 89 0 23 81
 1 179 182 178 17 198 205 0 175 206 81 1 203 177 123 95 0 180 198 207 208 82 3 2
04 6 4 2 14 95 124 14 ?194 89 92 5 209 -0 0 194 89 23 81 1 180 184 178 95 203 14
 175 196 210 81 1 207 178 123 1 0 211 203 0 212 82 3 208 6 5 2 81 1 211 179 213
 1 207 214 0 0 215 82 3 212 6 0 3 80 1 213 216 217 8038 0 0 0 0 0 0 0 0 0 TTTTTT
TTTTTTTFTF10 81 1 214 180 216 1 211 13 0 0 218 98 255 6 215 80 97 114 116 32 49
 80 1 216 219 220 8017 0 0 0 0 0 0 0 0 0 TTTTTTTTTTTTTFTF3 81 1 13 181 221 1 214
 2 0 0 222 84 6 218 Part 180 1 221 178 223 8040 0 0 0 0 3 5 0 0 0 TTTFFFFFFFFFFF
FF2 83 255 3 222 .615686274509804 .811764705882353 .929411764705882 79 17 223 SD
L/TYSA_COLOUR_279 13 220 SDL/TYSA_NAME79 14 217 SDL/TYSA_UNAME80 1 178 0 224 800
1 0 0 0 0 3 5 0 0 0 FFFFTFTFFFFFFFFF2 81 1 14 189 12 95 180 0 2 205 225 83 3 210
 .615686274509804 .811764705882353 .929411764705882 81 1 205 190 12 17 179 0 14
 200 226 84 3 225 JHW81 1 200 191 12 194 196 0 205 193 227 84 3 226 JHS81 1 193
 192 12 80 189 0 200 186 228 84 3 227 JHO81 1 186 193 12 182 183 0 193 100 229 8
4 3 228 JHK81 1 100 194 12 89 175 0 186 96 230 84 3 229 JHG84 3 230 JHC79 15 224
 SDL/TYSA_COLOUR50 209 130 0 95 201 19 0 +-.0173318386077881 0 .0254 1 0 0 0 0 -
1 13 23 49 0 0 0 0 0 0 9 17 50 201 129 0 194 188 209 0 +0 -.02037185057997705 .0
254 0 -1 0 0 0 -1 50 19 131 0 89 209 6 0 +0 .02037185057997705 .0254 0 -1 0 0 0
 -1 50 188 108 0 182 195 201 0 +0 0 0 0 0 1 1 0 0 50 195 3 0 80 0 188 0 +0 0 .02
54 0 0 1 1 0 0 83 3 206 .615686274509804 .811764705882353 .929411764705882 15 64
 127 0 65 17 0 17 65 0 64 68 38 47 66 107 0 0 -17 66 0 187 117 90 21 65 107 0 37
 +15 187 75 0 66 182 0 17 117 0 187 93 66 53 37 114 0 0 +17 90 0 187 66 93 47 52
 91 0 65 -17 37 0 35 28 54 21 117 114 0 0 -15 35 121 0 37 194 0 17 93 0 187 90 1
17 50 59 112 0 0 -17 59 0 92 57 88 53 93 112 0 117 +83 3 202 .615686274509804 .8
11764705882353 .929411764705882 83 3 197 .615686274509804 .811764705882353 .9294
11764705882 83 3 190 .615686274509804 .811764705882353 .929411764705882 83 3 181
 .615686274509804 .811764705882353 .929411764705882 82 3 170 6 9 1 17 40 0 64 38
 68 11 77 84 0 81 +30 105 9 0 84 0 87 0 +.0173318386077881 0 .0254 0 -1 0 17 81
 0 76 77 42 11 36 97 0 0 -17 36 0 35 54 28 29 81 97 0 0 +82 3 167 6 8 1 82 3 163
 6 7 1 82 3 160 6 6 1 82 3 157 6 5 1 82 3 154 6 4 1 82 3 127 6 3 1 79 12 124 BTI
/ExportId84 3 102 JHt17 25 0 85 52 72 47 68 10 0 90 +84 3 75 JHM84 3 71 JHE84 3
 63 JHQ84 3 56 JHY84 3 34 JHU19 18 138 0 1 0 9 5 0 S0 74 4 CI16 index_map_offset
0 0 1 dCCZ20 16 6 0 0 207 211 214 13 183 49 0 0 0 0 0 0 0 0 0 0 0 0 0 0 84 3 15
 JHD1 0 
