**ABCDEFGHIJKLMNOPQRSTUVWXYZabcdefghijklmnopqrstuvwxyz**************************
**PARASOLID !"#$%&'()*+,-./:;<=>?@[\]^_`{|}~0123456789**************************
**PART1;
MC=unknown;
MC_MODEL=unknown;
MC_ID=unknown;
OS=unknown;
OS_RELEASE=unknown;
FRU=Parasolid 34.1.198;
APPL=Onshape;
SITE=unknown;
USER=unknown;
FORMAT=text;
GUISE=transmit;
KEY=BTGapi::writeModels_.xmt;
FILE=BTGapi::writeModels_.xmt;
DATE=2022-12-14T07:01:24 (UTC);
**PART2;
SCH=SCH_3401198_34101;
USFLD_SIZE=0;
**PART3;
**END_OF_HEADER*****************************************************************
T51 : TRANSMIT FILE created by modeller version 340119823 SCH_3401198_34101_1300
6231 0 12 36 CCCI7 lattice222 0 CCCI4 mesh1006 0 I8 polyline1008 0 CCCCCCCDI5 ow
ner1040 0 CCCI16 boundary_lattice222 0 CCCI13 boundary_mesh1006 0 I17 boundary_p
olyline1008 0 CCCA16 index_map_offset0 0 1 dA9 index_map82 0 A17 node_id_index_m
ap82 0 A20 schema_embedding_map82 0 A5 child12 0 A14 lowest_node_id0 0 1 dA16 me
sh_offset_data206 0 Z1 2212 2 3 0 0 0 0 0 0 0 1e3 1e-8 0 4 0 1 0 1 1 5 0 6 7 8 0
 0 9 10 11 0 0 0 0 0 0 0 81 255 1 2 2212 12 1 13 0 14 0 15 70 11 CI9 list_type0
 0 1 uI10 notransmit0 0 1 lCCCDCCDI12 finger_index0 0 1 dI12 finger_block1012 0
 CZ3 0 4 T1 0 0 9 20 1 16 16 13 255 5 192 0 1 0 17 0 0 18 0 52 255 6 1524 19 20
 21 0 0 -0 2755455298081545e-34 0 0 0 -1 .0055 .707106781186548 .707106781186548
 -1 0 0 31 255 7 1508 0 10 22 0 0 -0 2755455298081545e-34 .001 0 0 1 1 0 0 .0045
 29 255 8 1121 0 11 23 0 -.01 -.005 .006 19 9 CCCCCCI5 frame230 0 CA5 owner12 0
 Z9 74 0 1 18 0 24 0 V0 16 255 10 1505 25 ?26 0 27 7 0 0 1 18 255 11 1119 28 29
 0 30 8 ?1 81 1 28 2131 12 11 31 0 32 33 34 17 255 29 0 35 36 37 11 38 39 0 40 +
18 30 1094 41 42 11 43 23 ?1 81 1 41 2134 12 30 44 0 45 46 47 17 42 0 48 49 50 3
0 51 52 0 53 -18 43 1073 54 55 30 56 57 ?1 29 23 1096 0 30 57 8 .01 -.0025 .0035
 29 57 1075 0 43 58 23 -.003741657386773935 -.0025 .0035 29 58 530 0 56 59 57 .0
01936363897816745 .00829426761667302 .008 18 56 526 60 61 43 62 58 ?1 29 59 299
 0 62 63 58 -.01 -.012 .008 18 62 296 64 65 56 66 59 ?1 29 63 285 0 66 67 59 .00
7 -.015 .008 18 66 282 68 69 62 70 63 ?1 29 67 281 0 70 71 63 -.007 -.015 .008 1
8 70 278 72 73 66 74 67 ?1 29 71 267 0 74 75 67 .007 -.015 0 18 74 264 76 77 70
 78 71 ?1 29 75 263 0 78 79 71 -.007 -.015 0 18 78 260 80 81 74 82 75 ?1 29 79 2
59 0 82 83 75 -.01 -.012 0 18 82 256 84 85 78 86 79 ?1 29 83 250 0 86 87 79 .01
 -.012 .008 18 86 247 88 89 82 90 83 ?1 29 87 246 0 90 91 83 .01 -.012 0 18 90 2
43 92 93 86 94 87 ?1 29 91 163 0 95 96 87 -.01 5e-4 0 18 95 141 97 98 99 100 91
 ?1 29 96 164 0 100 101 91 .01 5e-4 0 18 100 145 102 103 95 104 96 ?1 29 101 65
 0 94 105 96 -.01 5e-4 .008 18 94 63 106 107 90 99 101 ?1 29 105 60 0 99 108 101
 .01 5e-4 .008 18 99 58 109 110 94 95 105 ?1 29 108 993 0 104 111 105 -.00163135
594083802 .00577396551724138 .011 18 104 952 112 113 100 114 108 ?1 29 111 994 0
 114 115 108 .00163135594083802 .00577396551724138 .011 18 114 950 116 117 104 1
18 111 ?1 29 115 996 0 118 119 111 -.001936363897816745 .00829426761667302 .008
 18 118 949 120 121 114 122 115 ?1 29 119 1399 0 122 123 115 .01 -.007 .006 18 1
22 1300 124 125 118 126 119 ?1 29 123 1400 0 126 127 119 .01 -.007 .0015 18 126
 1279 128 129 122 130 123 ?1 29 127 1401 0 130 131 123 -.003741657386773945 -.00
25 .0015 18 130 1295 132 133 126 134 127 ?1 29 131 1402 0 134 135 127 .003741657
38677394 -.0025 .0015 18 134 1287 136 137 130 138 131 ?1 29 135 1403 0 138 139 1
31 .01 -.0025 .0015 18 138 1289 140 141 134 142 135 ?1 29 139 1405 0 142 143 135
 .00374165738677395 -.0025 .0035 18 142 1290 144 50 138 145 139 ?1 29 143 1407 0
 145 146 139 .01 -.005 .006 18 145 1303 147 49 142 148 143 ?1 29 146 1408 0 148
 149 143 -.01 -.0025 .0035 18 148 1306 150 151 145 152 146 ?1 29 149 1410 0 152
 153 146 -.01 -.007 .006 18 152 1301 154 37 148 155 149 ?1 29 153 1411 0 155 156
 149 -.01 -.007 .0015 18 155 1298 157 158 152 159 153 ?1 29 156 1412 0 159 0 153
 -.01 -.0025 .0015 18 159 1296 160 161 155 0 156 ?1 81 1 160 2110 12 159 162 0 1
57 132 163 17 161 0 164 165 133 159 166 167 0 168 +15 255 164 1351 0 141 169 0 1
7 165 0 164 170 161 155 171 172 0 173 +17 133 0 164 161 174 130 175 176 0 166 +1
7 166 0 177 178 168 130 161 167 0 179 -16 167 1236 180 ?161 181 182 183 181 181
 1 17 168 0 177 166 151 159 184 185 0 171 +15 177 1347 0 178 186 0 17 151 0 177
 168 178 148 55 187 0 188 +17 184 0 189 190 171 148 168 185 0 0 -16 185 1254 191
 ?168 172 0 192 0 0 1 17 171 0 189 184 173 159 165 172 0 0 -15 189 1117 0 171 19
3 194 17 173 0 189 171 38 155 195 196 0 0 -16 172 1259 197 ?165 196 185 198 0 0
 1 81 1 197 2119 12 172 199 0 200 191 201 16 196 1264 200 ?195 39 172 202 0 0 1
 30 255 198 1392 0 172 192 202 0 +-.01 -.00475 .0015 -2312964634635745e-31 -1 0
 30 192 1393 0 185 0 198 0 +-.01 -.0025 .0025 0 0 -1 30 202 1391 0 196 198 203 0
 +-.01 -.007 .00375 0 0 1 30 203 1390 0 39 202 204 0 +-.01 -.006 .006 2312964634
635745e-31 1 0 16 39 1269 205 ?29 206 196 203 0 0 1 30 204 1389 0 206 203 207 0
 +-.01 -.00375 .00475 16355129777956e-29 .707106781186548 -.707106781186548 16 2
06 1274 208 ?188 187 39 204 0 0 1 30 207 1388 0 187 204 209 0 +.0242335299172952
 -.0025 .0035 -1 2312964634635745e-31 0 16 187 1251 210 ?151 52 206 207 52 52 1
 30 209 1387 0 211 207 212 0 +.0242335299172952 -.005 .006 -1 2312964634635745e-
31 0 16 211 1179 213 ?40 214 52 209 0 0 1 30 212 1386 0 214 209 215 0 +.02423352
99172952 -.007 .006 -1 2312964634635745e-31 0 16 214 1170 32 ?37 182 211 212 0 0
 1 30 215 1385 0 182 212 183 0 +.0242335299172952 -.007 .0015 -1 231296463463574
5e-31 0 16 182 1209 216 ?158 167 214 215 0 0 1 30 183 1384 0 167 215 217 0 +.024
2335299172952 -.0025 .0015 -1 2312964634635745e-31 0 30 217 1383 0 218 183 219 0
 +.01 -.00725 .00825 -16355129777956e-29 -.707106781186548 .707106781186548 16 2
18 1224 220 ?49 221 181 217 0 0 1 30 219 1382 0 221 217 222 0 +.01 -.0075 .0015
 2312964634635745e-31 1 0 16 221 1212 223 ?141 224 218 219 0 0 1 30 222 1381 0 2
24 219 225 0 +.01 -.0025 .008 0 0 1 16 224 1191 226 ?53 227 221 222 0 0 1 38 12
 CCCCCCCCCCCA17 intersection_data204 0 Z225 988 0 227 222 228 0 +229 230 231 232
 233 234 16 227 931 235 ?236 237 224 225 0 0 1 38 228 987 0 237 225 238 0 +229 2
30 239 240 241 242 52 229 460 0 17 243 244 245 +0 0 .008 0 0 -1 .008517298893531
84 .642787609686539 .766044443118978 -1 0 0 51 255 230 982 0 1 246 247 248 -7439
32557513033e-35 .00725 .0402335299172952 0 0 -1 .0022 -1 0 0 40 255 4 231 0 1 4
 .0002940206701800365 .336025595417364 ??.001936257559583665 .00829446477343906
 .0079998 .002196539098657195 .00737335310320478 .00898167407260131 .00197352259
6808385 .00627778162952525 .0103079739395292 .001631230269676145 .00577382663372
75 .0110002 41 3 CI8 term_use0 0 1 cCZ1 232 L?.001936257559583665 .0082944647734
3906 .0079998 41 1 233 L?.001631230269676145 .0057738266337275 .0110002 204 2 17
 INTERSECTION_DATA17 Intersection data7 uv_type0 0 1 u6 values0 1 1 fT16 234 4 1
.8001291541637 200000000000547e-21 2.64690506571413 .0322337299172952 1.86032754
769777 -.000981674072601309 3.085493640994045 .0312518558446939 1.87538049369192
 -.00230797393952921 3.59932768715201 .029925555977766 1.846141699422815 -.00300
02 3.877132987125995 .0292333299172952 50 255 246 1374 0 186 249 230 0 +.0242335
299172952 -.0025 .0025 2312964634635745e-31 1 0 -1 2312964634635745e-31 0 51 247
 764 0 250 230 251 0 --.007 -.012 -.02655400325776035 0 0 1 .0022 1 0 0 141 255
 248 225 252 252 230 141 252 228 248 248 230 14 255 250 629 253 ?254 255 256 5 2
47 +0 0 254 255 24 50 251 763 0 255 247 257 0 +-.007 -.01035 .006 0 0 1 1 0 0 14
 255 624 258 ?250 259 260 5 251 +0 0 250 259 24 51 257 762 0 259 251 261 0 --.00
7 -.012 -.02655400325776035 0 0 1 .0011 1 0 0 14 259 619 262 ?255 263 264 5 257
 +0 0 255 263 24 51 261 759 0 263 257 265 0 -.007 -.012 -.02655400325776035 0 0
 1 .0022 1 0 0 14 263 678 266 ?259 267 268 5 261 +0 0 259 267 24 50 265 758 0 26
7 261 269 0 +.007 -.01035 .006 0 0 1 1 0 0 14 267 673 270 ?263 271 272 5 265 +0
 0 263 271 24 51 269 757 0 271 265 273 0 -.007 -.012 -.02655400325776035 0 0 1 .
0011 1 0 0 14 271 668 274 ?267 275 276 5 269 +0 0 267 275 24 51 273 754 0 275 26
9 277 0 -743932557513033e-35 .00725 -.02655400325776035 0 0 1 .0022 1 0 0 14 275
 739 278 ?271 279 280 5 273 +0 0 271 279 24 50 277 753 0 279 273 243 0 +74393255
7513033e-35 .0089 .006 0 0 1 1 0 0 14 279 734 281 ?275 282 283 5 277 +0 0 275 28
2 24 51 243 752 0 282 277 229 0 -743932557513033e-35 .00725 -.02655400325776035
 0 0 1 .0011 1 0 0 14 282 729 284 ?279 285 286 5 243 +0 0 279 285 24 81 1 284 21
48 12 282 287 0 281 288 289 14 285 445 290 ?282 291 292 5 244 +0 0 282 291 24 15
 286 714 0 293 282 294 13 24 75 0 0 0 0 0 0 9 17 14 17 450 295 ?296 0 297 5 229
 +0 0 296 0 24 81 1 295 2169 12 17 298 0 60 290 299 14 296 1 14 ?193 17 300 5 30
1 +0 0 193 17 24 15 297 454 0 302 17 0 17 302 0 297 121 236 104 303 304 0 0 +17
 121 0 297 305 302 118 113 237 0 306 +17 236 0 297 302 305 114 61 227 0 303 +17
 303 0 307 308 308 114 302 304 0 0 -16 304 432 309 ?302 310 311 312 0 0 1 81 1 3
09 2171 12 304 313 0 290 314 315 16 310 429 314 ?316 317 304 318 0 0 1 16 311 52
7 319 ?320 304 321 322 0 0 1 31 312 463 0 304 322 318 0 +0 0 .011 0 0 -1 -1 0 0
 .006 31 322 464 0 311 323 312 0 +0 0 .008 0 0 -1 -1 0 0 .00851729889353184 31 3
18 462 0 310 312 324 0 +0 0 .011 0 0 -1 -1 0 0 .0045 30 324 15 0 325 318 326 0 +
-.01 -.0075 .008 -2312964634635745e-31 -1 0 16 325 13 327 ?328 329 330 324 0 0 1
 30 326 20 0 329 324 331 0 +0 -.015 .008 1 0 0 16 329 279 332 ?333 334 325 326 0
 0 1 30 331 25 0 334 326 335 0 +.01 -.0075 .008 -2312964634635745e-31 -1 0 16 33
4 23 336 ?337 338 329 331 0 0 1 31 335 35 0 338 331 339 0 +0 5e-4 .008 0 0 1 1 0
 0 .01 16 338 33 340 ?107 341 334 335 0 0 1 30 339 161 0 317 335 342 0 +-.01 -.0
075 0 -2312964634635745e-31 -1 0 16 317 131 343 ?344 345 310 339 0 0 1 30 342 16
0 0 345 339 346 0 +0 -.015 0 1 0 0 16 345 261 347 ?348 349 317 342 0 0 1 30 346
 159 0 349 342 350 0 +.01 -.0075 0 -2312964634635745e-31 -1 0 16 349 121 351 ?35
2 330 345 346 0 0 1 31 350 158 0 330 346 353 0 +0 5e-4 0 0 0 1 1 0 0 .01 16 330
 117 354 ?98 325 349 350 0 0 1 30 353 188 0 341 350 355 0 +-.01 5e-4 .008 0 0 -1
 16 341 167 356 ?357 358 338 353 0 0 1 30 355 189 0 358 353 359 0 +.01 5e-4 .008
 0 0 -1 16 358 168 360 ?103 361 341 355 0 0 1 30 359 253 0 361 355 362 0 +.01 -.
012 0 0 0 -1 16 361 251 363 ?364 365 358 359 0 0 1 31 362 270 0 365 359 366 0 --
.007 -.012 0 0 0 1 1 0 0 .003 16 365 268 367 ?85 368 361 362 0 0 1 31 366 275 0
 368 362 369 0 -.007 -.012 0 0 0 1 1 0 0 .003 16 368 273 370 ?77 371 365 366 0 0
 1 30 369 288 0 371 366 372 0 +-.007 -.015 .008 0 0 -1 16 371 286 373 ?374 375 3
68 369 0 0 1 30 372 293 0 375 369 376 0 -.007 -.015 .008 0 0 -1 16 375 291 377 ?
69 378 371 372 0 0 1 31 376 302 0 378 372 379 0 +-.007 -.012 .008 0 0 1 1 0 0 .0
03 16 378 300 380 ?73 381 375 376 0 0 1 31 379 307 0 381 376 382 0 +.007 -.012 .
008 0 0 1 1 0 0 .003 16 381 305 383 ?89 384 378 379 0 0 1 30 382 312 0 384 379 3
85 0 --.01 -.012 .008 0 0 -1 16 384 310 386 ?65 387 381 382 0 0 1 31 385 534 0 3
88 382 389 0 -743932557513033e-35 .00725 0 0 0 1 1 0 0 .0011 16 388 695 390 ?391
 392 393 385 0 0 1 31 389 541 0 392 385 394 0 -.007 -.012 0 0 0 1 1 0 0 .0011 16
 392 640 395 ?396 321 388 389 0 0 1 31 394 548 0 321 389 397 0 --.007 -.012 0 0
 0 1 1 0 0 .0011 16 321 591 398 ?399 311 392 394 0 0 1 32 255 397 1079 0 387 394
 400 0 +0 2755455298081545e-34 .001 16355129777956e-29 .707106781186548 .7071067
81186548 16355129777956e-29 .707106781186548 -.707106781186548 .0063639610306789
3 .0045 16 387 1077 401 ?50 402 384 397 0 0 1 30 400 1083 0 402 397 403 0 --.003
741657386773945 -.0025 .008 0 0 -1 16 402 1081 404 ?178 405 387 400 0 0 1 30 403
 1087 0 405 400 406 0 +.00374165738677394 -.0025 .008 0 0 -1 16 405 1085 407 ?13
7 176 402 403 0 0 1 31 406 1090 0 176 403 408 0 +0 2755455298081545e-34 .0015 0
 0 -1 -1 0 0 .0045 16 176 1088 46 ?133 409 405 406 0 0 1 30 408 1103 0 409 406 4
10 0 +.01 -.0075 .006 -2312964634635745e-31 -1 0 16 409 1101 45 ?125 411 176 408
 0 0 1 30 410 1107 0 411 408 22 0 +.01 -.007 .008 0 0 -1 16 411 1105 33 ?129 27
 409 410 0 0 1 31 22 1502 0 27 410 7 0 +0 2755455298081545e-34 0 0 0 1 1 0 0 .00
55 16 27 1499 412 ?413 10 411 22 0 0 1 81 1 412 2098 12 27 414 0 25 415 416 17 4
13 0 417 413 413 0 418 27 0 0 +15 417 1500 0 413 419 420 17 418 0 421 418 418 0
 413 27 0 0 -15 421 1519 0 418 20 0 14 20 1517 422 ?0 423 424 5 6 +0 0 0 423 24
 81 1 422 2096 12 20 425 0 0 25 426 14 423 1360 415 ?20 427 48 5 428 -0 0 20 427
 24 15 424 1518 0 429 20 421 17 429 0 424 429 429 0 26 10 0 0 -17 26 0 430 26 26
 0 429 10 0 0 +15 430 1506 0 26 431 432 14 431 180 433 ?434 435 430 5 436 +0 0 4
34 435 24 15 432 1089 0 175 431 437 17 175 0 432 438 179 134 133 176 0 0 -15 437
 444 0 439 431 0 17 439 0 437 439 439 0 316 310 0 0 -17 316 0 292 316 316 0 439
 310 0 0 +15 292 448 0 316 285 307 15 307 449 0 303 285 0 17 438 0 432 440 175 1
42 137 405 0 0 -17 179 0 432 175 440 130 178 402 0 0 -17 440 0 432 179 438 43 50
 387 0 0 -17 178 0 177 151 166 43 179 402 0 440 +17 50 0 48 42 55 142 440 387 0
 51 +15 48 1363 0 49 423 0 17 55 0 48 50 188 43 151 187 0 178 -17 51 0 441 137 5
3 142 42 52 0 438 +15 441 1327 0 53 254 0 17 137 0 441 442 51 134 438 405 0 174
 +17 53 0 441 51 442 30 443 224 0 444 +16 52 1221 445 ?51 211 187 207 187 187 1
 81 1 445 2124 12 52 446 0 220 223 447 80 7 CCCCCDI12 legal_owners0 16 1 lCZ1 12
 448 449 9000 0 0 0 0 3 5 0 0 0 FFTFTFTTFFFFFFFF3 81 1 446 2037 448 52 450 445 4
51 452 453 81 1 220 2123 12 218 452 0 180 445 454 81 1 223 2125 12 221 451 0 445
 216 455 84 255 4 447 KFBD81 1 451 2036 448 221 456 223 457 446 458 81 1 216 212
6 12 182 457 0 223 226 459 84 4 455 KF9C81 1 457 2035 448 182 460 216 461 451 46
2 81 1 226 2127 12 224 461 0 216 463 464 84 4 459 KF5C81 1 461 2034 448 224 465
 226 466 457 467 81 1 463 2128 12 181 466 0 226 213 468 84 4 464 KF1C16 181 1188
 463 ?174 218 167 183 167 167 1 81 1 466 2033 448 181 469 463 470 461 471 81 1 2
13 2129 12 211 470 0 463 32 472 84 4 468 KFxC81 1 470 2032 448 211 473 213 474 4
66 475 81 1 32 2130 12 214 474 0 213 28 476 84 4 472 KFtC81 1 474 2031 448 214 4
77 32 31 470 478 84 4 476 KFpC80 1 448 479 480 9000 0 0 0 0 3 6 0 0 0 FFTFTFTTFF
FFFFFF1 81 1 477 1910 481 214 0 474 460 473 482 81 1 31 2030 448 11 483 28 484 4
74 485 82 255 3 478 4 42 1 81 1 483 1830 481 11 0 31 0 486 487 81 1 484 2029 448
 411 488 33 489 31 490 82 3 485 4 18 0 81 1 488 1862 481 411 0 484 491 492 493 8
1 1 33 2132 12 411 484 0 28 45 494 81 1 489 2028 448 409 492 45 44 484 495 82 3
 490 4 41 1 81 1 492 1863 481 409 0 489 488 496 497 81 1 45 2133 12 409 489 0 33
 41 498 81 1 44 2027 448 30 486 41 499 489 500 82 3 495 4 40 1 81 1 486 1831 481
 30 0 44 483 501 502 81 1 499 2026 448 176 496 46 503 44 504 82 3 500 4 17 0 81
 1 496 1864 481 176 0 499 492 505 506 81 1 46 2135 12 176 499 0 41 407 507 81 1
 503 2025 448 405 505 407 508 499 509 82 3 504 4 39 1 81 1 505 1865 481 405 0 50
3 496 510 511 81 1 407 2136 12 405 503 0 46 404 512 81 1 508 2024 448 402 510 40
4 513 503 514 82 3 509 4 38 1 81 1 510 1866 481 402 0 508 505 515 516 81 1 404 2
137 12 402 508 0 407 401 517 81 1 513 2023 448 387 515 401 518 508 519 82 3 514
 4 37 1 81 1 515 1867 481 387 0 513 510 520 521 81 1 401 2138 12 387 513 0 404 5
4 522 81 1 518 2022 448 43 501 54 523 513 524 82 3 519 4 36 1 81 1 501 1832 481
 43 0 518 486 525 526 81 1 54 2139 12 43 518 0 401 112 527 81 1 523 2021 448 104
 528 112 529 518 530 82 3 524 4 16 0 81 1 528 1846 481 104 0 523 531 532 533 81
 1 112 2140 12 104 523 0 54 116 534 81 1 529 2020 448 114 532 116 535 523 536 82
 3 530 4 15 0 81 1 532 1847 481 114 0 529 528 537 538 81 1 116 2141 12 114 529 0
 112 120 539 81 1 535 2019 448 118 537 120 540 529 541 82 3 536 4 14 0 81 1 537
 1848 481 118 0 535 532 542 543 81 1 120 2142 12 118 535 0 116 544 545 81 1 540
 2018 448 237 546 544 547 535 548 82 3 541 4 13 0 16 237 937 544 ?121 549 227 22
8 0 0 1 81 1 546 1902 481 237 0 540 550 551 552 81 1 544 2143 12 237 540 0 120 5
53 554 81 1 547 2017 448 549 550 553 555 540 556 82 3 548 4 35 1 16 549 934 553
 ?308 557 237 238 0 0 1 81 1 550 1901 481 549 0 547 558 546 559 81 1 553 2144 12
 549 547 0 544 235 560 81 1 555 2016 448 227 551 235 561 547 562 82 3 556 4 34 1
 81 1 551 1903 481 227 0 555 546 465 563 81 1 235 2145 12 227 555 0 553 278 564
 81 1 561 2015 448 275 565 566 567 555 568 82 3 562 4 33 1 81 1 565 1932 481 275
 0 561 569 570 571 81 1 566 2082 572 275 561 278 573 574 575 81 1 567 2014 448 2
79 569 573 576 561 577 82 3 568 4 19 2 81 1 569 1931 481 279 0 567 578 565 579 8
1 1 573 2081 572 279 567 281 287 566 580 81 1 576 2013 448 282 578 287 581 567 5
82 82 3 577 4 18 2 81 1 578 1930 481 282 0 576 583 569 584 81 1 287 2080 572 282
 576 284 585 573 586 81 1 581 2012 448 587 588 288 589 576 590 82 3 582 4 17 2 1
6 587 704 288 ?591 592 557 593 0 0 1 81 1 588 1899 481 587 0 581 594 558 595 81
 1 288 2149 12 587 581 0 284 596 597 81 1 589 2011 448 592 594 596 598 581 599 8
2 3 590 4 32 1 16 592 701 596 ?293 600 587 323 0 0 1 81 1 594 1898 481 592 0 589
 601 588 602 81 1 596 2150 12 592 589 0 288 390 603 81 1 598 2010 448 388 604 39
0 605 589 606 82 3 599 4 31 1 81 1 604 1891 481 388 0 598 607 608 609 81 1 390 2
151 12 388 598 0 596 610 611 81 1 605 2009 448 557 558 610 612 598 613 82 3 606
 4 30 1 16 557 687 610 ?306 587 549 614 0 0 1 81 1 558 1900 481 557 0 605 588 55
0 615 81 1 610 2152 12 557 605 0 390 266 616 81 1 612 2008 448 263 617 618 619 6
05 620 82 3 613 4 29 1 81 1 617 1935 481 263 0 612 621 622 623 81 1 618 2085 572
 263 612 266 624 625 626 81 1 619 2007 448 267 621 624 627 612 628 82 3 620 4 16
 2 81 1 621 1934 481 267 0 619 570 617 629 81 1 624 2084 572 267 619 270 574 618
 630 81 1 627 2006 448 271 570 574 631 619 632 82 3 628 4 15 2 81 1 570 1933 481
 271 0 627 565 621 633 81 1 574 2083 572 271 627 274 566 624 634 81 1 631 2005 4
48 635 636 637 638 627 639 82 3 632 4 14 2 16 635 649 637 ?640 641 600 642 0 0 1
 81 1 636 1896 481 635 0 631 643 601 644 81 1 637 2156 12 635 631 0 274 645 646
 81 1 638 2004 448 641 643 645 647 631 648 82 3 639 4 28 1 16 641 646 645 ?649 6
50 635 651 0 0 1 81 1 643 1895 481 641 0 638 652 636 653 81 1 645 2157 12 641 63
8 0 637 395 654 81 1 647 2003 448 392 607 395 655 638 656 82 3 648 4 27 1 81 1 6
07 1890 481 392 0 647 657 604 658 81 1 395 2158 12 392 647 0 645 659 660 81 1 65
5 2002 448 600 601 659 661 647 662 82 3 656 4 26 1 16 600 635 659 ?663 635 592 6
64 0 0 1 81 1 601 1897 481 600 0 655 636 594 665 81 1 659 2159 12 600 655 0 395
 253 666 81 1 661 2001 448 250 667 668 669 655 670 82 3 662 4 25 1 81 1 667 1938
 481 250 0 661 671 672 673 81 1 668 2088 572 250 661 253 674 675 676 81 1 669 20
00 448 255 671 674 677 661 678 82 3 670 4 13 2 81 1 671 1937 481 255 0 669 622 6
67 679 81 1 674 2087 572 255 669 258 625 668 680 81 1 677 1999 448 259 622 625 6
81 669 682 82 3 678 4 12 2 81 1 622 1936 481 259 0 677 617 671 683 81 1 625 2086
 572 259 677 262 618 674 684 81 1 681 1998 448 685 686 687 688 677 689 82 3 682
 4 11 2 16 685 600 687 ?690 393 650 691 0 0 1 81 1 686 1893 481 685 0 681 608 65
2 692 81 1 687 2163 12 685 681 0 262 693 694 81 1 688 1997 448 393 608 693 695 6
81 696 82 3 689 4 24 1 16 393 597 693 ?697 388 685 698 0 0 1 81 1 608 1892 481 3
93 0 688 604 686 699 81 1 693 2164 12 393 688 0 687 398 700 81 1 695 1996 448 32
1 657 398 701 688 702 82 3 696 4 23 1 81 1 657 1889 481 321 0 695 703 607 704 81
 1 398 2165 12 321 695 0 693 705 706 81 1 701 1995 448 650 652 705 707 695 708 8
2 3 702 4 22 1 16 650 586 705 ?709 685 641 710 0 0 1 81 1 652 1894 481 650 0 701
 686 643 711 81 1 705 2166 12 650 701 0 398 319 712 81 1 707 1994 448 311 703 31
9 713 701 714 82 3 708 4 21 1 81 1 703 1888 481 311 0 707 715 657 716 81 1 319 2
167 12 311 707 0 705 60 717 81 1 713 1993 448 56 525 60 718 707 719 82 3 714 4 2
0 1 81 1 525 1833 481 56 0 713 501 720 721 81 1 60 2168 12 56 713 0 319 295 722
 81 1 718 1992 448 17 723 298 724 713 725 82 3 719 4 12 0 81 1 723 1919 481 17 0
 718 726 727 728 81 1 298 2069 572 17 718 295 0 729 730 81 1 724 1991 448 285 58
3 585 313 718 731 82 3 725 4 10 2 81 1 583 1929 481 285 0 724 732 578 733 81 1 5
85 2079 572 285 724 290 734 287 735 81 1 313 1990 448 304 715 309 736 724 737 82
 3 731 4 9 2 81 1 715 1887 481 304 0 313 738 703 739 81 1 736 1989 448 310 738 3
14 740 313 741 82 3 737 4 19 1 81 1 738 1886 481 310 0 736 742 715 743 81 1 314
 2172 12 310 736 0 309 744 745 81 1 740 1988 448 291 732 734 746 736 747 82 3 74
1 4 18 1 14 291 345 744 ?285 748 749 5 21 +0 0 285 748 24 81 1 732 1928 481 291
 0 740 750 583 751 81 1 734 2078 572 291 740 744 752 585 753 81 1 746 1987 448 7
48 750 752 754 740 755 82 3 747 4 8 2 14 748 324 756 ?291 419 757 5 758 +0 0 291
 419 24 81 1 750 1927 481 748 0 746 759 732 760 81 1 752 2077 572 748 746 756 76
1 734 762 81 1 754 1986 448 384 520 386 763 746 764 82 3 755 4 7 2 81 1 520 1868
 481 384 0 754 515 765 766 81 1 386 2175 12 384 754 0 756 383 767 81 1 763 1985
 448 381 765 383 768 754 769 82 3 764 4 17 1 81 1 765 1869 481 381 0 763 520 770
 771 81 1 383 2176 12 381 763 0 386 380 772 81 1 768 1984 448 378 770 380 773 76
3 774 82 3 769 4 16 1 81 1 770 1870 481 378 0 768 765 775 776 81 1 380 2177 12 3
78 768 0 383 64 777 81 1 773 1983 448 62 720 64 778 768 779 82 3 774 4 15 1 81 1
 720 1834 481 62 0 773 525 780 781 81 1 64 2178 12 62 773 0 380 377 782 81 1 778
 1982 448 375 775 377 783 773 784 82 3 779 4 11 0 81 1 775 1871 481 375 0 778 77
0 785 786 81 1 377 2179 12 375 778 0 64 373 787 81 1 783 1981 448 371 785 373 78
8 778 789 82 3 784 4 14 1 81 1 785 1872 481 371 0 783 775 790 791 81 1 373 2180
 12 371 783 0 377 68 792 81 1 788 1980 448 66 780 68 793 783 794 82 3 789 4 13 1
 81 1 780 1835 481 66 0 788 720 795 796 81 1 68 2181 12 66 788 0 373 332 797 81
 1 793 1979 448 329 798 332 799 788 800 82 3 794 4 10 0 81 1 798 1880 481 329 0
 793 801 802 803 81 1 332 2182 12 329 793 0 68 72 804 81 1 799 1978 448 70 795 7
2 805 793 806 82 3 800 4 12 1 81 1 795 1836 481 70 0 799 780 807 808 81 1 72 218
3 12 70 799 0 332 370 809 81 1 805 1977 448 368 790 370 810 799 811 82 3 806 4 9
 0 81 1 790 1873 481 368 0 805 785 812 813 81 1 370 2184 12 368 805 0 72 367 814
 81 1 810 1976 448 365 812 367 815 805 816 82 3 811 4 11 1 81 1 812 1874 481 365
 0 810 790 817 818 81 1 367 2185 12 365 810 0 370 76 819 81 1 815 1975 448 74 80
7 76 820 810 821 82 3 816 4 10 1 81 1 807 1837 481 74 0 815 795 822 823 81 1 76
 2186 12 74 815 0 367 347 824 81 1 820 1974 448 345 825 347 826 815 827 82 3 821
 4 8 0 81 1 825 1884 481 345 0 820 828 742 829 81 1 347 2187 12 345 820 0 76 80
 830 81 1 826 1973 448 78 822 80 831 820 832 82 3 827 4 9 1 81 1 822 1838 481 78
 0 826 807 833 834 81 1 80 2188 12 78 826 0 347 84 835 81 1 831 1972 448 82 833
 84 836 826 837 82 3 832 4 7 0 81 1 833 1839 481 82 0 831 822 838 839 81 1 84 21
89 12 82 831 0 80 363 840 81 1 836 1971 448 361 817 363 841 831 842 82 3 837 4 6
 0 81 1 817 1875 481 361 0 836 812 843 844 81 1 363 2190 12 361 836 0 84 88 845
 81 1 841 1970 448 86 838 88 846 836 847 82 3 842 4 8 1 81 1 838 1840 481 86 0 8
41 833 848 849 81 1 88 2191 12 86 841 0 363 92 850 81 1 846 1969 448 90 848 92 8
51 841 852 82 3 847 4 5 0 81 1 848 1841 481 90 0 846 838 853 854 81 1 92 2192 12
 90 846 0 88 433 855 81 1 851 1968 448 431 856 857 858 846 859 82 3 852 4 4 0 81
 1 856 1924 481 431 0 851 860 861 862 81 1 857 2074 572 431 851 433 863 864 865
 81 1 858 1967 448 193 866 867 868 851 869 82 3 859 4 6 2 14 193 178 870 ?871 29
6 189 5 872 -0 0 871 296 24 81 1 866 1921 481 193 0 858 727 873 874 81 1 867 207
1 572 193 858 870 729 875 876 81 1 868 1966 448 871 873 875 877 858 878 82 3 869
 4 5 2 14 871 176 879 ?435 193 880 5 881 -0 0 435 193 24 81 1 873 1922 481 871 0
 868 866 860 882 81 1 875 2072 572 871 868 879 867 863 883 81 1 877 1965 448 435
 860 863 884 868 885 82 3 878 4 4 2 14 435 174 886 ?431 871 887 5 888 +0 0 431 8
71 24 81 1 860 1923 481 435 0 877 873 856 889 81 1 863 2073 572 435 877 886 875
 857 890 81 1 884 1964 448 434 861 864 891 877 892 82 3 885 4 3 2 14 434 172 893
 ?419 431 894 5 895 -0 0 419 431 24 81 1 861 1925 481 434 0 884 856 759 896 81 1
 864 2075 572 434 884 893 857 761 897 81 1 891 1963 448 358 843 360 898 884 899
 82 3 892 4 2 2 81 1 843 1876 481 358 0 891 817 900 901 81 1 360 2198 12 358 891
 0 893 356 902 81 1 898 1962 448 341 900 356 903 891 904 82 3 899 4 7 1 81 1 900
 1877 481 341 0 898 843 905 906 81 1 356 2199 12 341 898 0 360 102 907 81 1 903
 1961 448 100 531 102 908 898 909 82 3 904 4 6 1 81 1 531 1845 481 100 0 903 910
 528 911 81 1 102 2200 12 100 903 0 356 97 912 81 1 908 1960 448 95 910 97 913 9
03 914 82 3 909 4 3 0 81 1 910 1844 481 95 0 908 915 531 916 81 1 97 2201 12 95
 908 0 102 343 917 81 1 913 1959 448 317 742 343 918 908 919 82 3 914 4 2 0 81 1
 742 1885 481 317 0 913 825 738 920 81 1 343 2202 12 317 913 0 97 351 921 81 1 9
18 1958 448 349 828 351 922 913 923 82 3 919 4 5 1 81 1 828 1883 481 349 0 918 9
24 825 925 81 1 351 2203 12 349 918 0 343 354 926 81 1 922 1957 448 330 924 354
 927 918 928 82 3 923 4 4 1 81 1 924 1882 481 330 0 922 802 828 929 81 1 354 220
4 12 330 922 0 351 930 931 81 1 927 1956 448 419 759 761 932 922 933 82 3 928 4
 3 1 14 419 105 930 ?748 434 417 5 934 -0 0 748 434 24 81 1 759 1926 481 419 0 9
27 861 750 935 81 1 761 2076 572 419 927 930 864 752 936 81 1 932 1955 448 94 85
3 106 937 927 938 82 3 933 4 1 2 81 1 853 1842 481 94 0 932 848 915 939 81 1 106
 2206 12 94 932 0 930 109 940 81 1 937 1954 448 99 915 109 941 932 942 82 3 938
 4 1 0 81 1 915 1843 481 99 0 937 853 910 943 81 1 109 2207 12 99 937 0 106 340
 944 81 1 941 1953 448 338 905 340 945 937 946 82 3 942 4 0 0 81 1 905 1878 481
 338 0 941 900 801 947 81 1 340 2208 12 338 941 0 109 336 948 81 1 945 1952 448
 334 801 336 949 941 950 82 3 946 4 2 1 81 1 801 1879 481 334 0 945 905 798 951
 81 1 336 2209 12 334 945 0 340 327 952 81 1 949 1951 448 325 802 327 953 945 95
4 82 3 950 4 1 1 81 1 802 1881 481 325 0 949 798 924 955 81 1 327 2210 12 325 94
9 0 336 14 956 81 1 953 1950 448 296 727 729 957 949 958 82 3 954 4 0 1 81 1 727
 1920 481 296 0 953 723 866 959 81 1 729 2070 572 296 953 14 298 867 960 81 1 95
7 1949 448 1 961 962 0 953 963 82 3 958 4 0 2 81 1 961 1947 964 1 965 957 0 0 96
6 81 1 962 2066 967 1 957 968 0 0 969 82 3 963 4 0 3 80 1 967 970 971 8038 0 0 0
 0 0 0 0 0 0 TTTTTTTTTTTTTFTF10 81 1 968 2067 970 1 962 13 0 0 972 98 255 3 969
 84 111 112 80 1 970 973 974 8017 0 0 0 0 0 0 0 0 0 TTTTTTTTTTTTTFTF3 81 1 13 20
68 975 1 968 2 0 0 976 84 3 972 Top80 1 975 572 977 8040 0 0 0 0 3 5 0 0 0 TTTFF
FFFFFFFFFFF2 83 255 3 976 .615686274509804 .811764705882353 .929411764705882 79
 255 17 977 SDL/TYSA_COLOUR_279 13 974 SDL/TYSA_NAME79 14 971 SDL/TYSA_UNAME80 1
 964 481 978 9000 0 0 0 0 3 5 0 0 0 FFTFTFTTFFFFFFFF2 81 1 965 1946 481 1 0 961
 979 0 980 83 1 966 115 80 1 481 981 982 9000 0 0 0 0 3 5 0 0 0 FFTFTFTTFFFFFFFF
2 81 1 979 1945 481 20 0 983 984 965 985 83 1 980 -1 81 1 983 2065 448 20 979 42
5 986 0 987 81 1 984 1944 481 423 0 988 989 979 990 83 1 985 115 81 1 988 2062 4
48 423 984 991 992 414 993 81 1 989 1943 481 427 0 992 994 984 995 83 1 990 114
 14 427 1356 996 ?423 997 35 5 998 -0 0 423 997 24 81 1 992 2061 448 427 989 999
 1000 988 1001 81 1 994 1942 481 997 0 1000 1002 989 1003 83 1 995 113 14 997 13
52 1004 ?427 169 1005 5 1006 -0 0 427 169 24 81 1 1000 2060 448 997 994 1007 100
8 992 1009 81 1 1002 1941 481 169 0 1008 1010 994 1011 83 1 1003 112 14 169 1348
 1012 ?997 186 164 5 249 -0 0 997 186 24 81 1 1008 2059 448 169 1002 1013 1014 1
000 1015 81 1 1010 1940 481 186 0 1014 672 1002 1016 83 1 1011 111 14 186 1344 1
017 ?169 254 177 5 246 -254 254 169 254 24 81 1 1014 2058 448 186 1010 1018 1019
 1008 1020 81 1 672 1939 481 254 0 1019 667 1010 1021 83 1 1016 110 14 254 1324
 1022 ?186 250 441 5 246 -186 186 186 250 24 81 1 1019 2057 448 254 672 675 1023
 1014 1024 83 1 1021 109 81 1 675 2089 572 254 1019 1022 668 1018 1025 81 1 1023
 2056 448 148 1026 150 1027 1019 1028 82 3 1024 4 20 2 81 1 1026 1856 481 148 0
 1023 1029 1030 1031 81 1 150 2105 12 148 1023 0 1022 147 1032 81 1 1027 2055 44
8 145 1029 147 1033 1023 1034 82 3 1028 4 29 0 81 1 1029 1855 481 145 0 1027 103
5 1026 1036 81 1 147 2106 12 145 1027 0 150 154 1037 81 1 1033 2054 448 152 1030
 154 1038 1027 1039 82 3 1034 4 28 0 81 1 1030 1857 481 152 0 1033 1026 1040 104
1 81 1 154 2107 12 152 1033 0 147 124 1042 81 1 1038 2053 448 122 542 124 1043 1
033 1044 82 3 1039 4 27 0 81 1 542 1849 481 122 0 1038 537 1045 1046 81 1 124 21
08 12 122 1038 0 154 157 1047 81 1 1043 2052 448 155 1040 157 162 1038 1048 82 3
 1044 4 26 0 81 1 1040 1858 481 155 0 1043 1030 1049 1050 81 1 157 2109 12 155 1
043 0 124 160 1051 81 1 162 2051 448 159 1049 160 1052 1043 1053 82 3 1048 4 25
 0 81 1 1049 1859 481 159 0 162 1040 1054 1055 81 1 1052 2050 448 130 1056 132 1
057 162 1058 82 3 1053 4 24 0 81 1 1056 1851 481 130 0 1052 1045 1059 1060 81 1
 132 2111 12 130 1052 0 160 144 1061 81 1 1057 2049 448 142 1035 144 1062 1052 1
063 82 3 1058 4 23 0 81 1 1035 1854 481 142 0 1057 1064 1029 1065 81 1 144 2112
 12 142 1057 0 132 140 1066 81 1 1062 2048 448 138 1064 140 1067 1057 1068 82 3
 1063 4 22 0 81 1 1064 1853 481 138 0 1062 1059 1035 1069 81 1 140 2113 12 138 1
062 0 144 136 1070 81 1 1067 2047 448 134 1059 136 1071 1062 1072 82 3 1068 4 21
 0 81 1 1059 1852 481 134 0 1067 1056 1064 1073 81 1 136 2114 12 134 1067 0 140
 128 1074 81 1 1071 2046 448 126 1045 128 1075 1067 1076 82 3 1072 4 20 0 81 1 1
045 1850 481 126 0 1071 542 1056 1077 81 1 128 2115 12 126 1071 0 136 208 1078 8
1 1 1075 2045 448 206 1079 208 1080 1071 1081 82 3 1076 4 19 0 81 1 1079 1914 48
1 206 0 1075 1082 1083 1084 81 1 208 2116 12 206 1075 0 128 205 1085 81 1 1080 2
044 448 39 1083 205 1086 1075 1087 82 3 1081 4 56 1 81 1 1083 1915 481 39 0 1080
 1079 1088 1089 81 1 205 2117 12 39 1080 0 208 200 1090 81 1 1086 2043 448 196 1
088 200 199 1080 1091 82 3 1087 4 55 1 81 1 1088 1916 481 196 0 1086 1083 1092 1
093 81 1 200 2118 12 196 1086 0 205 197 1094 81 1 199 2042 448 172 1092 197 1095
 1086 1096 82 3 1091 4 54 1 81 1 1092 1917 481 172 0 199 1088 726 1097 81 1 1095
 2041 448 185 726 191 1098 199 1099 82 3 1096 4 53 1 81 1 726 1918 481 185 0 109
5 1092 723 1100 81 1 191 2120 12 185 1095 0 197 210 1101 81 1 1098 2040 448 187
 1082 210 1102 1095 1103 82 3 1099 4 52 1 81 1 1082 1913 481 187 0 1098 450 1079
 1104 81 1 210 2121 12 187 1098 0 191 180 1105 81 1 1102 2039 448 167 1106 180 4
52 1098 1107 82 3 1103 4 51 1 81 1 1106 1908 481 167 0 1102 469 460 1108 81 1 18
0 2122 12 167 1102 0 210 220 1109 81 1 452 2038 448 218 1110 220 446 1102 1111 8
2 3 1107 4 50 1 81 1 1110 1906 481 218 0 452 456 469 1112 82 3 1111 4 49 1 81 1
 456 1905 481 221 0 451 465 1110 1113 81 1 469 1907 481 181 0 466 1110 1106 1114
 83 1 1112 76 83 1 1114 77 81 1 465 1904 481 224 0 461 551 456 1115 83 1 1113 75
 83 1 1115 74 84 4 1109 KFJD81 1 460 1909 481 182 0 457 1106 477 1116 83 1 1108
 78 83 1 1116 79 84 4 1105 KFND81 1 450 1912 481 52 0 446 473 1082 1117 83 1 110
4 83 81 1 473 1911 481 211 0 470 477 450 1118 83 1 1117 82 83 1 1118 81 84 4 110
1 KFRD83 1 1100 88 83 1 1097 87 84 4 1094 KFZD83 1 1093 86 84 4 1090 KFdD83 1 10
89 85 84 4 1085 KFhD83 1 1084 84 84 4 1078 KFMB83 1 1077 20 84 4 1074 KFQB83 1 1
073 22 84 4 1070 KFUB83 1 1069 23 84 4 1066 KFYB83 1 1065 24 84 4 1061 KFcB83 1
 1060 21 81 1 1054 1860 481 10 0 986 1049 491 1119 83 1 1055 29 81 1 986 2064 44
8 10 1054 25 414 983 1120 81 1 491 1861 481 27 0 414 1054 488 1121 83 1 1119 30
 81 1 414 2063 448 27 491 412 988 986 1122 83 1 1121 31 82 3 1122 4 57 1 81 1 25
 2097 12 10 986 0 422 412 1123 82 3 1120 4 58 1 84 4 1123 KFpD84 4 1051 KFkB83 1
 1050 28 84 4 1047 KFoB83 1 1046 19 84 4 1042 KFsB83 1 1041 27 84 4 1037 KFwB83
 1 1036 25 81 1 1022 2104 12 254 675 0 1017 150 1124 84 4 1032 KF0B81 1 1017 210
3 12 186 1018 0 1012 1022 1125 84 4 1124 KFSB81 1 1018 2090 572 186 1014 1017 67
5 1013 1126 81 1 1012 2102 12 169 1013 0 1004 1017 1127 84 4 1125 KFWB81 1 1013
 2091 572 169 1008 1012 1018 1007 1128 81 1 1004 2101 12 997 1007 0 996 1012 112
9 84 4 1127 KFaB81 1 1007 2092 572 997 1000 1004 1013 999 1130 81 1 996 2100 12
 427 999 0 415 1004 1131 84 4 1129 KFeB81 1 999 2093 572 427 992 996 1007 991 11
32 81 1 415 2099 12 423 991 0 412 996 1133 84 4 1131 KFiB81 1 991 2094 572 423 9
88 415 999 425 1134 84 4 1133 KFmB80 1 572 0 1135 8001 0 0 0 0 3 5 0 0 0 FFFFTFT
FFFFFFFFF2 81 1 425 2095 572 20 983 422 991 0 1136 83 3 1134 .615686274509804 .8
11764705882353 .929411764705882 83 3 1136 .615686274509804 .811764705882353 .929
411764705882 79 15 1135 SDL/TYSA_COLOUR83 3 1132 .615686274509804 .8117647058823
53 .929411764705882 83 3 1130 .615686274509804 .811764705882353 .929411764705882
 83 3 1128 .615686274509804 .811764705882353 .929411764705882 83 3 1126 .6156862
74509804 .811764705882353 .929411764705882 83 1 1031 26 83 3 1025 .6156862745098
04 .811764705882353 .929411764705882 82 3 1020 4 21 2 82 3 1015 4 22 2 50 249 13
75 0 169 1006 246 0 +.0242335299172952 -.00475 .0015 0 0 -1 -1 0 0 50 1006 1376
 0 997 998 249 0 +.0242335299172952 -.007 .00375 -2312964634635745e-31 -1 0 1 -2
312964634635745e-31 0 50 998 1377 0 427 428 1006 0 +.0242335299172952 -.006 .006
 0 0 1 1 0 0 50 428 1378 0 423 0 998 0 +.0242335299172952 -.00375 .00475 1635512
9777956e-29 .707106781186548 .707106781186548 0 -.707106781186548 .7071067811865
48 82 3 1009 4 23 2 15 1005 1355 0 129 997 0 17 129 0 1005 158 1137 126 1138 411
 0 170 +17 158 0 1005 195 129 155 170 182 0 165 +17 1137 0 1005 129 195 122 37 2
14 0 1138 -17 1138 0 887 1139 1140 122 129 411 0 0 -17 170 0 164 141 165 126 158
 182 0 1140 -17 141 0 164 174 170 138 1140 221 0 442 +17 1140 0 887 1138 443 126
 141 221 0 0 -15 887 1112 0 443 435 1141 17 443 0 887 1140 444 138 53 224 0 0 -1
7 444 0 887 443 1139 30 49 218 0 0 -17 1139 0 887 444 1138 145 125 409 0 0 -17 4
9 0 48 40 42 145 444 218 0 36 +17 40 0 48 188 49 11 36 211 0 190 +17 36 0 35 125
 29 145 40 211 0 1139 -15 35 1359 0 125 427 0 17 125 0 35 37 36 122 1139 409 0 1
137 +17 37 0 35 29 125 152 1137 214 0 195 +17 195 0 1005 1137 158 152 173 196 0
 38 +17 38 0 189 173 190 152 29 39 0 0 -17 190 0 189 38 184 11 188 206 0 0 -17 1
88 0 48 55 40 148 190 206 0 184 +15 1141 173 0 337 435 0 17 337 0 1141 364 110 8
6 1142 334 0 1143 +17 364 0 1141 1144 337 90 1143 361 0 352 +17 110 0 1141 337 1
144 99 103 358 0 1145 -17 1142 0 300 107 89 99 337 334 0 0 -17 1143 0 757 1146 9
3 86 364 361 0 0 -15 757 325 0 1146 748 0 17 1146 0 757 1147 1143 66 89 381 0 0
 -17 93 0 757 1143 1147 90 77 368 0 364 -17 1147 0 757 93 1146 74 69 375 0 0 -17
 77 0 1148 1149 352 74 93 368 0 348 +15 1148 116 0 352 419 0 17 1149 0 1148 85 7
7 78 348 345 0 0 -17 352 0 1148 77 1150 90 1144 349 0 0 +17 348 0 880 69 374 74
 1149 345 0 1147 +15 880 175 0 348 871 0 17 69 0 880 1151 348 66 1147 375 0 333
 +17 374 0 880 348 1151 78 1152 371 0 1149 +17 1151 0 880 374 69 70 333 329 0 11
52 -17 1152 0 749 1153 81 70 374 371 0 0 -15 749 346 0 1153 291 0 17 1153 0 749
 1154 1152 62 73 378 0 0 -17 81 0 749 1152 1154 78 85 365 0 374 -17 1154 0 749 8
1 1153 82 65 384 0 0 -17 85 0 1148 1155 1149 82 81 365 0 344 +17 1155 0 1148 115
0 85 95 344 317 0 0 -17 344 0 194 65 357 82 1155 317 0 1154 +15 194 177 0 344 19
3 0 17 65 0 194 1156 344 62 1154 384 0 328 +17 357 0 194 344 1156 95 1157 341 0
 1155 +17 1156 0 194 357 65 94 328 325 0 0 -17 1157 0 894 1145 98 94 357 341 0 1
156 -15 894 171 0 98 434 0 17 1145 0 894 103 1157 99 107 338 0 1142 -17 98 0 894
 1157 103 95 1150 330 0 357 +17 103 0 894 98 1145 100 110 358 0 1150 +17 1150 0
 1148 352 1155 100 98 330 0 1144 -17 1144 0 1141 110 364 100 352 349 0 0 -17 107
 0 300 328 1142 94 1145 338 0 1157 +15 300 7 0 333 296 1158 17 328 0 300 73 107
 62 1156 325 0 1153 +17 73 0 300 333 328 70 1153 378 0 1151 +17 333 0 300 89 73
 66 1151 329 0 1146 +17 89 0 300 1142 333 86 1146 381 0 337 +15 1158 553 0 1159
 296 1160 17 1159 0 1158 1159 1159 0 663 600 0 0 -15 1160 560 0 1161 296 1162 17
 1161 0 1160 1161 1161 0 709 650 0 0 -15 1162 567 0 1163 296 0 17 1163 0 1162 32
0 320 56 306 557 0 305 -17 320 0 1162 1163 1163 118 305 311 0 0 +17 306 0 280 11
3 61 118 1163 557 0 320 +17 305 0 297 236 121 56 320 311 0 0 -15 280 742 0 306 2
75 1164 17 113 0 280 117 306 104 121 237 0 308 -17 61 0 280 306 117 56 236 227 0
 1163 -17 117 0 280 61 113 114 308 549 0 236 -17 308 0 307 303 303 104 117 549 0
 302 +15 1164 743 0 1165 275 0 17 1165 0 1164 1165 1165 0 591 587 0 0 -17 591 0
 283 591 591 0 1165 587 0 0 +15 283 737 0 591 279 1166 15 1166 738 0 1167 279 0
 17 1167 0 1166 1167 1167 0 293 592 0 0 -17 293 0 286 293 293 0 1167 592 0 0 +17
 709 0 256 709 709 0 1161 650 0 0 +15 256 632 0 709 250 1168 15 1168 633 0 1169
 250 0 17 1169 0 1168 1169 1169 0 690 685 0 0 -17 690 0 260 690 690 0 1169 685 0
 0 +15 260 627 0 690 255 1170 15 1170 628 0 1171 255 0 17 1171 0 1170 1171 1171
 0 697 393 0 0 -17 697 0 264 697 697 0 1171 393 0 0 +15 264 608 0 697 259 1172 1
5 1172 609 0 399 259 0 17 399 0 1172 399 399 0 1173 321 0 0 +17 1173 0 420 1173
 1173 0 399 321 0 0 -15 420 547 0 1173 419 1174 15 1174 540 0 1175 419 1176 17 1
175 0 1174 1175 1175 0 396 392 0 0 -15 1176 533 0 1177 419 1148 17 1177 0 1176 1
177 1177 0 391 388 0 0 -17 391 0 294 391 391 0 1177 388 0 0 +15 294 715 0 391 28
2 0 17 396 0 1178 396 396 0 1175 392 0 0 +15 1178 658 0 396 271 0 17 663 0 268 6
63 663 0 1159 600 0 0 +15 268 681 0 663 263 1179 15 1179 682 0 1180 263 0 17 118
0 0 1179 1180 1180 0 640 635 0 0 -17 640 0 272 640 640 0 1180 635 0 0 +15 272 67
6 0 640 267 1181 15 1181 677 0 1182 267 0 17 1182 0 1181 1182 1182 0 649 641 0 0
 -17 649 0 276 649 649 0 1182 641 0 0 +15 276 657 0 649 271 1178 17 174 0 164 13
3 141 134 442 181 0 175 +17 442 0 441 53 137 138 174 181 0 443 -82 3 1001 4 24 2
 82 3 993 4 25 2 82 3 987 4 26 2 79 13 982 BTI/importTag79 18 978 BTI/importMaxC
ount81 1 14 2211 12 296 729 0 327 2 1183 83 3 960 .615686274509804 .811764705882
353 .929411764705882 84 3 1183 JFC83 1 959 90 84 3 956 JFB83 1 955 51 84 3 952 J
FF83 1 951 49 84 3 948 JFJ83 1 947 48 84 2 944 IF83 1 943 13 81 1 930 2205 12 41
9 761 0 354 106 1184 84 3 940 JFE84 3 1184 JFG83 1 939 12 83 3 936 .615686274509
804 .811764705882353 .929411764705882 83 1 935 96 50 934 157 0 419 301 895 0 +0
 -.00225 0 0 0 1 1 0 0 50 301 3 0 296 244 934 0 +0 -.00225 .008 0 0 1 1 0 0 51 8
95 183 0 434 934 888 0 -0 5e-4 .008 0 0 -1 .01 -1 0 0 50 888 184 0 435 895 881 0
 +.01 -.0075 .008 1 -2312964634635745e-31 0 2312964634635745e-31 1 0 50 881 185
 0 871 888 872 0 +0 -.015 .008 0 1 0 0 0 1 50 872 186 0 193 881 436 0 +-.01 -.00
75 .008 1 -2312964634635745e-31 0 2312964634635745e-31 1 0 51 436 187 0 431 872
 758 0 -0 2755455298081545e-34 .008 0 0 -1 .0045 -1 0 0 51 758 336 0 748 436 21
 0 +.007 -.012 .008 0 0 1 .003 1 0 0 51 21 357 0 291 758 6 0 +-.007 -.012 .008 0
 0 -1 .003 -1 0 0 50 244 459 0 285 229 301 0 +-.00525 0 .011 0 0 1 1 0 0 84 3 93
1 JFN83 1 929 52 84 3 926 JFR83 1 925 53 84 3 921 JFV83 1 920 55 84 3 917 JFI83
 1 916 14 84 3 912 JFM83 1 911 15 84 3 907 JFZ83 1 906 47 81 1 893 2197 12 434 8
64 0 886 360 1185 84 3 902 JFd81 1 886 2196 12 435 863 0 879 893 1186 84 3 1185
 JFK81 1 879 2195 12 871 875 0 870 886 1187 84 3 1186 JFO81 1 870 2194 12 193 86
7 0 433 879 1188 84 3 1187 JFS81 1 433 2193 12 431 857 0 92 870 1189 84 3 1188 J
FW84 3 1189 JFa83 1 901 46 83 3 897 .615686274509804 .811764705882353 .929411764
705882 83 1 896 95 83 3 890 .615686274509804 .811764705882353 .929411764705882 8
3 1 889 93 83 3 883 .615686274509804 .811764705882353 .929411764705882 83 1 882
 92 83 3 876 .615686274509804 .811764705882353 .929411764705882 83 1 874 91 83 3
 865 .615686274509804 .811764705882353 .929411764705882 83 1 862 94 84 3 855 JFQ
83 1 854 11 84 3 850 JFU83 1 849 10 84 3 845 JFh83 1 844 45 84 3 840 JFY83 1 839
 9 84 3 835 JFc83 1 834 8 84 3 830 JFl83 1 829 54 84 3 824 JFg83 1 823 7 84 3 81
9 JFp83 1 818 44 84 3 814 JFt83 1 813 43 84 3 809 JFk83 1 808 6 84 3 804 JFx83 1
 803 50 84 3 797 JFo83 1 796 5 84 3 792 JF183 1 791 42 84 3 787 JF583 1 786 41 8
4 3 782 JFs83 1 781 4 84 3 777 JF983 1 776 40 84 4 772 KFBB83 1 771 39 81 1 756
 2174 12 748 752 0 744 386 1190 84 4 767 KFFB81 1 744 2173 12 291 734 0 314 756
 1191 84 3 1190 JFe84 3 1191 JFi83 1 766 38 83 3 762 .615686274509804 .811764705
882353 .929411764705882 83 1 760 97 83 3 753 .615686274509804 .811764705882353 .
929411764705882 83 1 751 98 84 4 745 KFJB83 1 743 56 83 1 739 57 81 1 290 2170 1
2 285 585 0 295 309 1192 83 3 735 .615686274509804 .811764705882353 .92941176470
5882 84 3 1192 JFm83 1 733 99 83 3 730 .615686274509804 .811764705882353 .929411
764705882 83 1 728 89 84 3 722 JFw83 1 721 3 84 4 717 KFRB83 1 716 58 84 4 712 K
FVB83 1 711 64 31 710 776 0 650 238 691 0 +-.007 -.012 .008 0 0 1 1 0 0 .0022 31
 238 986 0 549 228 710 0 -743932557513033e-35 .00725 .011 0 0 1 1 0 0 .0022 31 6
91 775 0 685 710 698 0 +-.007 -.012 .006 0 0 1 1 0 0 .0022 31 698 774 0 393 691
 664 0 +-.007 -.012 .006 0 0 1 1 0 0 .0011 31 664 772 0 600 698 642 0 +.007 -.01
2 .008 0 0 1 1 0 0 .0022 31 642 771 0 635 664 651 0 +.007 -.012 .006 0 0 1 1 0 0
 .0022 31 651 770 0 641 642 614 0 +.007 -.012 .006 0 0 1 1 0 0 .0011 31 614 768
 0 557 651 593 0 +743932557513033e-35 .00725 .008 0 0 1 1 0 0 .0022 31 593 767 0
 587 614 323 0 +743932557513033e-35 .00725 .006 0 0 1 1 0 0 .0022 31 323 766 0 5
92 593 322 0 +743932557513033e-35 .00725 .006 0 0 1 1 0 0 .0011 84 4 706 KFZB83
 1 704 59 84 4 700 KFdB83 1 699 62 81 1 262 2162 12 259 625 0 258 687 1193 84 4
 694 KFhB81 1 258 2161 12 255 674 0 253 262 1194 84 3 1193 JFu81 1 253 2160 12 2
50 668 0 659 258 1195 84 3 1194 JFy84 3 1195 JF283 1 692 63 83 3 684 .6156862745
09804 .811764705882353 .929411764705882 83 1 683 106 83 3 680 .615686274509804 .
811764705882353 .929411764705882 83 1 679 107 83 3 676 .615686274509804 .8117647
05882353 .929411764705882 83 1 673 108 84 4 666 KFlB83 1 665 67 84 4 660 KFpB83
 1 658 60 84 4 654 KFtB83 1 653 65 81 1 274 2155 12 271 574 0 270 637 1196 84 4
 646 KFxB81 1 270 2154 12 267 624 0 266 274 1197 84 3 1196 JF681 1 266 2153 12 2
63 618 0 610 270 1198 84 3 1197 JF+84 4 1198 KFCB83 1 644 66 83 3 634 .615686274
509804 .811764705882353 .929411764705882 83 1 633 103 83 3 630 .615686274509804
 .811764705882353 .929411764705882 83 1 629 104 83 3 626 .615686274509804 .81176
4705882353 .929411764705882 83 1 623 105 84 4 616 KF1B83 1 615 70 84 4 611 KF5B8
3 1 609 61 84 4 603 KF9B83 1 602 68 84 4 597 KFBC83 1 595 69 83 3 586 .615686274
509804 .811764705882353 .929411764705882 83 1 584 1e2 81 1 281 2147 12 279 573 0
 278 284 1199 83 3 580 .615686274509804 .811764705882353 .929411764705882 81 1 2
78 2146 12 275 566 0 235 281 1200 84 4 1199 KFKB84 4 1200 KFOB83 1 579 101 83 3
 575 .615686274509804 .811764705882353 .929411764705882 83 1 571 102 84 4 564 KF
FC83 1 563 73 84 4 560 KFJC83 1 559 71 84 4 554 KFNC83 1 552 72 84 3 545 JF083 1
 543 18 84 3 539 JF483 1 538 17 84 3 534 JF883 1 533 16 84 4 527 KFAB83 1 526 2
 84 4 522 KFRC83 1 521 37 84 4 517 KFVC83 1 516 36 84 4 512 KFZC83 1 511 35 84 4
 507 KFdC83 1 506 34 83 1 502 1 84 4 498 KFhC83 1 497 33 84 4 494 KFlC83 1 493 3
2 83 1 487 0 83 1 482 80 79 9 480 BTI/DetId82 3 475 4 43 1 82 3 471 4 44 1 82 3
 467 4 45 1 82 3 462 4 46 1 82 3 458 4 47 1 84 4 454 KFFD82 3 453 4 48 1 79 12 4
49 BTI/ExportId84 4 426 KFqB84 4 416 KFlD84 4 315 KFNB84 3 299 JFq84 4 289 KFGB1
41 245 225 1201 1201 229 141 1201 228 245 245 229 40 4 239 0 1 4 .00030369131328
4539 .3486533785882845 ??-.001631230269676145 .0057738266337275 .0110002 -.00213
48017161224 .00671837829912515 .00974937843093064 -.002121711692798575 .00783166
957341935 .00848065399563227 -.001936257559583665 .00829446477343906 .0079998 41
 1 240 L?-.001631230269676145 .0057738266337275 .0110002 41 1 241 L?-.0019362575
59583665 .00829446477343906 .0079998 204 16 242 4 1.29545095416698 -.0030002 5.5
4764497364338 .0292333299172952 1.263130710967362 -.001749378430930645 6.0391233
0896753 .03048415148636455 1.306232463156922 -.000480653995632267 .2675768149483
41 .03175287592166295 1.341463499426092 200000000000547e-21 .494687587875664 .03
22337299172952 84 4 201 KFVD84 4 163 KFgB84 4 47 KFEB84 4 34 KFIB19 18 193 0 1 0
 9 5 0 S0 81 2 19 1525 1202 6 0 0 0 0 1203 1204 80 2 1202 1205 1206 8044 0 0 0 0
 3 5 0 0 0 FFFFTFFFTTFFFFFF3 2 84 6 1203 BAAAAB83 3 1204 -.001 0 .001 79 17 1206
 SDL/TYSA_BLEND_ID74 4 CI16 index_map_offset0 0 1 dCCZ20 16 9 0 0 19 965 961 983
 962 968 13 425 2 0 0 0 0 0 0 0 0 0 0 0 84 3 15 JFD1 0 
