**ABCDEFGHIJKLMNOPQRSTUVWXYZabcdefghijklmnopqrstuvwxyz**************************
**PARASOLID !"#$%&'()*+,-./:;<=>?@[\]^_`{|}~0123456789**************************
**PART1;
MC=unknown;
MC_MODEL=unknown;
MC_ID=unknown;
OS=unknown;
OS_RELEASE=unknown;
FRU=Parasolid 34.1.198;
APPL=Onshape;
SITE=unknown;
USER=unknown;
FORMAT=text;
GUISE=transmit;
KEY=BTGapi::writeModels_.xmt;
FILE=BTGapi::writeModels_.xmt;
DATE=2022-12-14T07:02:16 (UTC);
**PART2;
SCH=SCH_3401198_34101;
USFLD_SIZE=0;
**PART3;
**END_OF_HEADER*****************************************************************
T51 : TRANSMIT FILE created by modeller version 340119823 SCH_3401198_34101_1300
6231 0 12 36 CCCI7 lattice222 0 CCCI4 mesh1006 0 I8 polyline1008 0 CCCCCCCDI5 ow
ner1040 0 CCCI16 boundary_lattice222 0 CCCI13 boundary_mesh1006 0 I17 boundary_p
olyline1008 0 CCCA16 index_map_offset0 0 1 dA9 index_map82 0 A17 node_id_index_m
ap82 0 A20 schema_embedding_map82 0 A5 child12 0 A14 lowest_node_id0 0 1 dA16 me
sh_offset_data206 0 Z1 2236 2 3 0 0 0 0 0 0 0 1e3 1e-8 0 4 0 1 0 1 1 5 0 6 7 8 0
 0 9 10 11 0 0 0 0 0 0 0 81 255 1 2 2236 12 1 13 0 14 0 15 70 11 CI9 list_type0
 0 1 uI10 notransmit0 0 1 lCCCDCCDI12 finger_index0 0 1 dI12 finger_block1012 0
 CZ3 0 4 T1 0 0 9 20 1 16 16 13 255 5 192 0 1 0 17 0 0 18 0 51 255 6 1822 0 19 2
0 0 0 +-.007 -.01835 .008 0 0 -1 .003 -1 0 0 31 255 7 1820 0 21 22 0 0 -.007 -.0
1835 0 0 0 1 1 0 0 .003 29 255 8 1810 0 23 24 0 .007 -.02135 0 19 9 CCCCCCI5 fra
me230 0 CA5 owner12 0 Z9 74 0 1 18 0 25 0 V0 16 255 10 1505 26 ?27 0 28 29 0 0 1
 18 255 11 1119 30 31 0 32 33 ?1 81 1 30 2155 12 11 34 0 35 36 37 17 255 31 0 38
 39 40 11 41 42 0 43 +18 32 1094 44 45 11 46 47 ?1 29 33 1121 0 11 47 48 -.01 -.
005 .006 29 47 1096 0 32 49 33 .01 -.0025 .0035 29 48 1803 0 50 33 51 -.007 -.02
135 0 18 50 260 52 53 23 54 48 ?1 29 51 1804 0 54 48 55 -.01 -.01835 0 18 54 256
 56 57 50 58 51 ?1 29 55 1805 0 59 51 60 -.01 -.01835 .008 18 59 296 61 62 63 64
 55 ?1 29 60 1806 0 65 55 66 -.007 -.02135 .008 18 65 278 67 68 64 23 60 ?1 29 6
6 1807 0 64 60 69 .007 -.02135 .008 18 64 282 70 71 59 65 66 ?1 29 69 1808 0 58
 66 24 .01 -.01835 .008 18 58 247 72 73 54 74 69 ?1 29 24 1809 0 74 69 8 .01 -.0
1835 0 18 74 243 75 76 58 77 24 ?1 81 1 75 2216 12 74 78 0 72 79 80 17 76 0 81 8
2 83 74 84 21 0 85 -18 77 63 86 87 74 88 89 ?1 81 1 86 2230 12 77 90 0 91 92 93
 17 87 0 94 95 96 77 97 98 0 99 +18 88 58 92 100 77 101 102 ?1 29 89 65 0 77 102
 103 -.01 5e-4 .008 29 102 60 0 88 104 89 .01 5e-4 .008 29 103 164 0 105 89 106
 .01 5e-4 0 18 105 145 107 108 101 109 103 ?1 29 106 163 0 101 103 110 -.01 5e-4
 0 18 101 141 111 112 88 105 106 ?1 29 110 530 0 63 106 49 .001936363897816745 .
00829426761667302 .008 18 63 526 113 114 46 59 110 ?1 29 49 1075 0 46 110 47 -.0
03741657386773935 -.0025 .0035 18 46 1073 115 116 32 63 49 ?1 81 1 115 2163 12 4
6 117 0 118 119 120 17 116 0 121 122 123 46 124 125 0 126 -15 255 121 1363 0 127
 128 0 17 122 0 121 45 116 129 130 131 0 132 +17 123 0 121 116 43 133 134 135 0
 136 +17 124 0 137 138 126 133 116 125 0 123 +16 125 1251 139 ?124 140 135 141 1
40 140 1 17 126 0 137 124 142 46 143 144 0 130 +15 137 1347 0 126 145 0 17 142 0
 137 126 138 146 147 148 0 143 -17 143 0 149 150 130 146 126 144 0 0 -16 144 108
1 151 ?126 152 131 153 0 0 1 17 130 0 149 143 154 46 122 131 0 0 -15 149 1089 0
 150 155 156 17 154 0 149 130 150 129 157 152 0 0 -16 131 1077 118 ?122 144 158
 159 0 0 1 81 1 118 2162 12 131 160 0 151 115 161 16 158 310 162 ?62 131 163 164
 0 0 1 32 255 159 1079 0 131 165 153 0 +0 2755455298081545e-34 .001 163551297779
56e-29 .707106781186548 .707106781186548 16355129777956e-29 .707106781186548 -.7
07106781186548 .00636396103067893 .0045 31 165 548 0 166 167 159 0 --.007 -.012
 0 0 0 1 1 0 0 .0011 30 255 153 1083 0 144 159 168 0 --.003741657386773945 -.002
5 .008 0 0 -1 30 168 1087 0 152 153 169 0 +.00374165738677394 -.0025 .008 0 0 -1
 16 152 1085 170 ?157 171 144 168 0 0 1 31 169 1090 0 171 168 172 0 +0 275545529
8081545e-34 .0015 0 0 -1 -1 0 0 .0045 16 171 1088 173 ?174 175 152 169 0 0 1 30
 172 1103 0 175 169 176 0 +.01 -.0075 .006 -2312964634635745e-31 -1 0 16 175 110
1 177 ?178 179 171 172 0 0 1 30 176 1107 0 179 172 180 0 +.01 -.007 .008 0 0 -1
 16 179 1105 36 ?181 28 175 176 0 0 1 31 180 1502 0 28 176 29 0 +0 2755455298081
545e-34 0 0 0 1 1 0 0 .0055 16 28 1499 182 ?183 10 179 180 0 0 1 31 29 1508 0 10
 180 184 0 -0 2755455298081545e-34 .001 0 0 1 1 0 0 .0045 30 184 1811 0 185 29 1
86 0 -.007 -.02135 .008 0 0 -1 16 185 291 187 ?71 188 189 184 0 0 1 30 186 1812
 0 189 184 190 0 +-.007 -.02135 .008 0 0 -1 16 189 286 191 ?192 185 21 186 0 0 1
 30 190 1813 0 193 186 194 0 +0 -.02135 0 1 0 0 16 193 261 195 ?196 197 198 190
 0 0 1 31 194 1814 0 199 190 164 0 --.007 -.01835 0 0 0 1 1 0 0 .003 16 199 268
 200 ?57 21 201 194 0 0 1 30 164 1815 0 158 194 202 0 --.01 -.01835 .008 0 0 -1
 31 202 1816 0 188 164 203 0 +-.007 -.01835 .008 0 0 1 1 0 0 .003 16 188 300 204
 ?68 163 185 202 0 0 1 30 203 1817 0 205 202 206 0 +0 -.02135 .008 1 0 0 16 205
 279 207 ?208 209 210 203 0 0 1 31 206 1818 0 163 203 22 0 +.007 -.01835 .008 0
 0 1 1 0 0 .003 16 163 305 211 ?73 158 188 206 0 0 1 30 22 1819 0 201 206 7 0 +.
01 -.01835 0 0 0 -1 16 201 251 212 ?85 199 213 22 0 0 1 81 1 212 2214 12 201 214
 0 56 72 215 17 85 0 216 217 218 74 82 201 0 219 +16 213 168 220 ?108 201 221 22
2 0 0 1 81 1 220 2222 12 213 223 0 224 225 226 17 108 0 227 112 97 105 100 213 0
 228 +16 221 167 225 ?229 213 98 230 0 0 1 30 222 189 0 213 230 231 0 +.01 5e-4
 .008 0 0 -1 30 230 188 0 221 232 222 0 +-.01 5e-4 .008 0 0 -1 31 231 534 0 233
 222 167 0 -743932557513033e-35 .00725 0 0 0 1 1 0 0 .0011 16 233 695 234 ?235 2
36 237 231 0 0 1 31 167 541 0 236 231 165 0 -.007 -.012 0 0 0 1 1 0 0 .0011 16 2
36 640 238 ?239 166 233 167 0 0 1 81 1 238 2182 12 236 240 0 241 242 243 17 239
 0 244 239 239 0 245 236 0 0 +16 166 591 246 ?247 248 236 165 0 0 1 81 1 246 218
9 12 166 249 0 250 251 252 17 247 0 253 247 247 0 254 166 0 0 +16 248 527 255 ?2
56 257 166 258 0 0 1 81 1 255 2191 12 248 259 0 251 113 260 17 256 0 261 262 262
 263 264 248 0 0 +16 257 432 265 ?266 267 248 268 0 0 1 31 258 464 0 248 269 268
 0 +0 0 .008 0 0 -1 -1 0 0 .00851729889353184 31 269 766 0 270 271 258 0 +743932
557513033e-35 .00725 .006 0 0 1 1 0 0 .0011 31 268 463 0 257 258 272 0 +0 0 .011
 0 0 -1 -1 0 0 .006 31 272 462 0 267 268 273 0 +0 0 .011 0 0 -1 -1 0 0 .0045 16
 267 429 274 ?275 198 257 272 0 0 1 30 273 15 0 210 272 276 0 +-.01 -.0075 .008
 -2312964634635745e-31 -1 0 16 210 13 277 ?95 205 278 273 0 0 1 30 276 25 0 209
 273 279 0 +.01 -.0075 .008 -2312964634635745e-31 -1 0 16 209 23 280 ?218 98 205
 276 0 0 1 31 279 35 0 98 276 281 0 +0 5e-4 .008 0 0 1 1 0 0 .01 16 98 33 282 ?8
7 221 209 279 0 0 1 30 281 161 0 198 279 283 0 +-.01 -.0075 0 -2312964634635745e
-31 -1 0 16 198 131 284 ?285 193 267 281 0 0 1 30 283 159 0 197 281 232 0 +.01 -
.0075 0 -2312964634635745e-31 -1 0 16 197 121 286 ?219 278 193 283 0 0 1 31 232
 158 0 278 283 230 0 +0 5e-4 0 0 0 1 1 0 0 .01 16 278 117 287 ?112 210 197 232 0
 0 1 81 1 287 2228 12 278 288 0 286 91 289 17 112 0 227 99 108 101 228 278 0 229
 +15 227 171 0 112 290 0 17 99 0 227 97 112 77 229 221 0 291 -17 228 0 292 219 2
93 105 112 278 0 217 -17 229 0 294 285 291 101 99 221 0 293 +15 294 177 0 285 29
5 0 17 285 0 294 62 229 54 293 198 0 296 +17 291 0 294 229 62 77 95 210 0 0 -17
 293 0 292 228 57 101 285 198 0 0 -15 292 116 0 219 297 0 17 57 0 292 293 298 54
 53 199 0 285 +17 298 0 292 57 84 50 196 193 0 0 -17 53 0 299 300 296 50 57 199
 0 192 -15 299 346 0 301 19 0 17 300 0 299 301 53 65 192 189 0 0 -17 296 0 299 5
3 301 54 62 158 0 0 -17 192 0 302 196 303 50 300 189 0 298 +15 302 175 0 196 304
 0 17 196 0 302 71 192 23 298 193 0 83 +17 303 0 302 192 71 65 208 205 0 300 -17
 71 0 302 303 196 64 83 185 0 208 +17 208 0 94 73 68 64 303 205 0 305 +15 94 7 0
 208 306 307 17 73 0 94 96 208 58 305 163 0 218 +17 68 0 94 208 95 65 301 188 0
 303 +17 305 0 81 83 82 64 73 163 0 0 -15 81 325 0 305 308 0 17 83 0 81 76 305 2
3 71 185 0 0 -17 82 0 81 305 76 58 85 201 0 0 -18 23 264 309 84 65 50 8 ?1 81 1
 309 2210 12 23 310 0 200 195 311 17 84 0 292 298 219 23 76 21 0 196 +17 219 0 2
92 84 228 74 217 197 0 0 +16 21 273 312 ?84 189 199 7 0 0 1 81 1 312 2208 12 21
 313 0 67 200 314 80 7 CCCCCDI12 legal_owners0 16 1 lCZ1 12 315 316 9000 0 0 0 0
 3 5 0 0 0 FFTFTFTTFFFFFFFF3 81 1 313 2001 315 21 317 312 318 319 320 81 1 67 22
07 12 65 319 0 207 312 321 81 1 200 2209 12 199 318 0 312 309 322 84 255 3 314 J
Ft81 1 318 2000 315 199 323 200 310 313 324 84 3 322 JFp80 1 315 325 326 9000 0
 0 0 0 3 6 0 0 0 FFTFTFTTFFFFFFFF1 81 1 323 1898 327 199 0 318 317 328 329 81 1
 310 1999 315 23 330 309 331 318 332 82 255 3 324 4 10 1 81 1 330 1861 327 23 0
 310 333 334 335 81 1 331 1998 315 193 336 195 337 310 338 82 3 332 4 8 0 81 1 3
36 1908 327 193 0 331 339 340 341 81 1 195 2211 12 193 331 0 309 52 342 81 1 337
 1997 315 50 334 52 343 331 344 82 3 338 4 9 1 81 1 334 1862 327 50 0 337 330 34
5 346 81 1 52 2212 12 50 337 0 195 56 347 81 1 343 1996 315 54 345 56 214 337 34
8 82 3 344 4 7 0 81 1 345 1863 327 54 0 343 334 349 350 81 1 56 2213 12 54 343 0
 52 212 351 81 1 214 1995 315 201 328 212 352 343 353 82 3 348 4 6 0 81 1 328 18
99 327 201 0 214 323 354 355 81 1 352 1994 315 58 349 72 78 214 356 82 3 353 4 8
 1 81 1 349 1864 327 58 0 352 345 357 358 81 1 72 2215 12 58 352 0 212 75 359 81
 1 78 1993 315 74 357 75 360 352 361 82 3 356 4 5 0 81 1 357 1865 327 74 0 78 34
9 362 363 81 1 360 1992 315 155 364 365 366 78 367 82 3 361 4 4 0 14 255 155 180
 79 ?290 368 369 5 370 +0 0 290 368 25 81 1 364 1948 327 155 0 360 371 372 373 8
1 1 365 2098 374 155 360 79 375 376 377 81 1 366 1991 315 295 378 379 380 360 38
1 82 3 367 4 6 2 14 295 178 382 ?304 306 383 5 384 -0 0 304 306 25 81 1 378 1945
 327 295 0 366 385 386 387 81 1 379 2095 374 295 366 382 388 389 390 81 1 380 19
90 315 304 386 389 391 366 392 82 3 381 4 5 2 14 304 176 393 ?368 295 302 5 394
 -0 0 368 295 25 81 1 386 1946 327 304 0 380 378 371 395 81 1 389 2096 374 304 3
80 393 379 375 396 81 1 391 1989 315 368 371 375 397 380 398 82 3 392 4 4 2 14 3
68 174 399 ?155 304 400 5 401 +0 0 155 304 25 81 1 371 1947 327 368 0 391 386 36
4 402 81 1 375 2097 374 368 391 399 389 365 403 81 1 397 1988 315 290 372 376 22
3 391 404 82 3 398 4 3 2 14 290 172 224 ?297 155 227 5 405 -0 0 297 155 25 81 1
 372 1949 327 290 0 397 364 406 407 81 1 376 2099 374 290 397 224 365 408 409 81
 1 223 1987 315 213 354 220 410 397 411 82 3 404 4 2 2 81 1 354 1900 327 213 0 2
23 328 412 413 81 1 410 1986 315 221 412 225 414 223 415 82 3 411 4 7 1 81 1 412
 1901 327 221 0 410 354 416 417 81 1 225 2223 12 221 410 0 220 107 418 81 1 414
 1985 315 105 419 107 420 410 421 82 3 415 4 6 1 81 1 419 1869 327 105 0 414 422
 423 424 81 1 107 2224 12 105 414 0 225 111 425 81 1 420 1984 315 101 422 111 42
6 414 427 82 3 421 4 3 0 81 1 422 1868 327 101 0 420 428 419 429 81 1 111 2225 1
2 101 420 0 107 284 430 81 1 426 1983 315 198 340 284 431 420 432 82 3 427 4 2 0
 81 1 340 1909 327 198 0 426 336 433 434 81 1 284 2226 12 198 426 0 111 286 435
 81 1 431 1982 315 197 339 286 288 426 436 82 3 432 4 5 1 81 1 339 1907 327 197
 0 431 437 336 438 81 1 286 2227 12 197 431 0 284 287 439 81 1 288 1981 315 278
 437 287 440 431 441 82 3 436 4 4 1 81 1 437 1906 327 278 0 288 442 339 443 81 1
 440 1980 315 297 406 408 90 288 444 82 3 441 4 3 1 14 297 105 91 ?308 290 445 5
 446 -0 0 308 290 25 81 1 406 1950 327 297 0 440 372 447 448 81 1 408 2100 374 2
97 440 91 376 449 450 81 1 90 1979 315 77 362 86 451 440 452 82 3 444 4 1 2 81 1
 362 1866 327 77 0 90 357 428 453 81 1 451 1978 315 88 428 92 454 90 455 82 3 45
2 4 1 0 81 1 428 1867 327 88 0 451 362 422 456 81 1 92 2231 12 88 451 0 86 282 4
57 81 1 454 1977 315 98 416 282 458 451 459 82 3 455 4 0 0 81 1 416 1902 327 98
 0 454 412 460 461 81 1 282 2232 12 98 454 0 92 280 462 81 1 458 1976 315 209 46
0 280 463 454 464 82 3 459 4 2 1 81 1 460 1903 327 209 0 458 416 465 466 81 1 28
0 2233 12 209 458 0 282 277 467 81 1 463 1975 315 210 442 277 468 458 469 82 3 4
64 4 1 1 81 1 442 1905 327 210 0 463 465 437 470 81 1 277 2234 12 210 463 0 280
 14 471 81 1 468 1974 315 306 385 388 472 463 473 82 3 469 4 0 1 14 306 1 14 ?29
5 17 94 5 474 +0 0 295 17 25 81 1 385 1944 327 306 0 468 475 378 476 81 1 388 20
94 374 306 468 14 477 379 478 81 1 472 1973 315 1 479 480 0 468 481 82 3 473 4 0
 2 81 1 479 1971 482 1 483 472 0 0 484 81 1 480 2090 485 1 472 486 0 0 487 82 3
 481 4 0 3 80 1 485 488 489 8038 0 0 0 0 0 0 0 0 0 TTTTTTTTTTTTTFTF10 81 1 486 2
091 488 1 480 13 0 0 490 98 255 3 487 84 111 112 80 1 488 491 492 8017 0 0 0 0 0
 0 0 0 0 TTTTTTTTTTTTTFTF3 81 1 13 2092 493 1 486 2 0 0 494 84 3 490 Top80 1 493
 374 495 8040 0 0 0 0 3 5 0 0 0 TTTFFFFFFFFFFFFF2 83 255 3 494 .615686274509804
 .811764705882353 .929411764705882 79 255 17 495 SDL/TYSA_COLOUR_279 13 492 SDL/
TYSA_NAME79 14 489 SDL/TYSA_UNAME80 1 482 327 496 9000 0 0 0 0 3 5 0 0 0 FFTFTFT
TFFFFFFFF2 81 1 483 1970 327 1 0 479 497 0 498 83 1 484 115 80 1 327 499 500 900
0 0 0 0 0 3 5 0 0 0 FFTFTFTTFFFFFFFF2 81 1 497 1969 327 501 0 502 503 483 504 83
 1 498 -1 14 501 1517 505 ?0 128 506 5 507 +0 0 0 128 25 81 1 502 2089 315 501 4
97 508 509 0 510 81 1 503 1968 327 128 0 511 512 497 513 83 1 504 115 14 128 136
0 514 ?501 515 121 5 516 -0 0 501 515 25 81 1 511 2086 315 128 503 517 518 519 5
20 81 1 512 1967 327 515 0 518 521 503 522 83 1 513 114 14 515 1356 523 ?128 524
 38 5 525 -0 0 128 524 25 81 1 518 2085 315 515 512 526 527 511 528 81 1 521 196
6 327 524 0 527 529 512 530 83 1 522 113 14 524 1352 531 ?515 532 533 5 534 -0 0
 515 532 25 81 1 527 2084 315 524 521 535 536 518 537 81 1 529 1965 327 532 0 53
6 538 521 539 83 1 530 112 14 532 1348 540 ?524 145 541 5 542 -0 0 524 145 25 81
 1 536 2083 315 532 529 543 544 527 545 81 1 538 1964 327 145 0 544 546 529 547
 83 1 539 111 14 145 1344 548 ?532 549 137 5 550 -549 549 532 549 25 81 1 544 20
82 315 145 538 551 552 536 553 81 1 546 1963 327 549 0 552 554 538 555 83 1 547
 110 14 549 1324 556 ?145 557 558 5 550 -145 145 145 557 25 81 1 552 2081 315 54
9 546 559 560 544 561 81 1 554 1962 327 557 0 562 563 546 564 83 1 555 109 14 55
7 629 565 ?549 566 567 5 568 +0 0 549 566 25 81 1 562 2025 315 557 554 569 570 5
71 572 81 1 563 1961 327 566 0 570 573 554 574 83 1 564 108 14 566 624 575 ?557
 576 577 5 578 +0 0 557 576 25 81 1 570 2024 315 566 563 579 580 562 581 81 1 57
3 1960 327 576 0 580 582 563 583 83 1 574 107 14 576 619 584 ?566 585 586 5 587
 +0 0 566 585 25 81 1 580 2023 315 576 573 588 589 570 590 81 1 582 1959 327 585
 0 591 592 573 593 83 1 583 106 14 585 678 594 ?576 595 596 5 597 +0 0 576 595 2
5 81 1 591 2032 315 585 582 598 599 600 601 81 1 592 1958 327 595 0 599 602 582
 603 83 1 593 105 14 595 673 604 ?585 605 606 5 607 +0 0 585 605 25 81 1 599 203
1 315 595 592 608 609 591 610 81 1 602 1957 327 605 0 609 611 592 612 83 1 603 1
04 14 605 668 613 ?595 614 615 5 616 +0 0 595 614 25 81 1 609 2030 315 605 602 6
17 618 599 619 81 1 611 1956 327 614 0 620 621 602 622 83 1 612 103 14 614 739 6
23 ?605 624 625 5 626 +0 0 605 624 25 81 1 620 2039 315 614 611 627 628 629 630
 81 1 621 1955 327 624 0 628 631 611 632 83 1 622 102 14 624 734 633 ?614 634 63
5 5 636 +0 0 614 634 25 81 1 628 2038 315 624 621 637 638 620 639 81 1 631 1954
 327 634 0 638 640 621 641 83 1 632 101 14 634 729 642 ?624 643 644 5 645 +0 0 6
24 643 25 81 1 638 2037 315 634 631 646 647 628 648 81 1 640 1953 327 643 0 649
 650 631 651 83 1 641 1e2 14 643 445 652 ?634 19 653 5 654 +0 0 634 19 25 81 1 6
49 2015 315 643 640 655 656 657 658 81 1 650 1952 327 19 0 659 447 640 660 83 1
 651 99 14 19 345 661 ?643 308 299 5 6 +0 0 643 308 25 81 1 659 2012 315 19 650
 662 663 664 665 81 1 447 1951 327 308 0 663 406 650 666 83 1 660 98 14 308 324
 667 ?19 297 81 5 20 +0 0 19 297 25 81 1 663 2011 315 308 447 449 668 659 669 83
 1 666 97 81 1 449 2101 374 308 663 667 408 662 670 81 1 668 2010 315 158 671 16
2 672 663 673 82 3 669 4 7 2 81 1 671 1892 327 158 0 668 674 675 676 81 1 162 21
99 12 158 668 0 667 211 677 81 1 672 2009 315 163 675 211 678 668 679 82 3 673 4
 17 1 81 1 675 1893 327 163 0 672 671 680 681 81 1 211 2200 12 163 672 0 162 204
 682 81 1 678 2008 315 188 680 204 683 672 684 82 3 679 4 16 1 81 1 680 1894 327
 188 0 678 675 685 686 81 1 204 2201 12 188 678 0 211 61 687 81 1 683 2007 315 5
9 688 61 689 678 690 82 3 684 4 15 1 81 1 688 1858 327 59 0 683 691 692 693 81 1
 61 2202 12 59 683 0 204 187 694 81 1 689 2006 315 185 685 187 695 683 696 82 3
 690 4 11 0 81 1 685 1895 327 185 0 689 680 697 698 81 1 187 2203 12 185 689 0 6
1 191 699 81 1 695 2005 315 189 697 191 700 689 701 82 3 696 4 14 1 81 1 697 189
6 327 189 0 695 685 317 702 81 1 191 2204 12 189 695 0 187 70 703 81 1 700 2004
 315 64 692 70 704 695 705 82 3 701 4 13 1 81 1 692 1859 327 64 0 700 688 333 70
6 81 1 70 2205 12 64 700 0 191 207 707 81 1 704 2003 315 205 465 207 319 700 708
 82 3 705 4 10 0 81 1 465 1904 327 205 0 704 460 442 709 81 1 207 2206 12 205 70
4 0 70 67 710 81 1 319 2002 315 65 333 67 313 704 711 82 3 708 4 12 1 81 1 333 1
860 327 65 0 319 692 330 712 82 3 711 4 9 0 83 1 712 6 84 3 710 JFx83 1 709 50 8
4 3 707 JFo83 1 706 5 84 3 703 JF181 1 317 1897 327 21 0 313 697 323 713 83 1 70
2 42 83 1 713 43 84 3 699 JF583 1 698 41 84 3 694 JFs81 1 691 1857 327 63 0 714
 715 688 716 83 1 693 4 81 1 714 2017 315 63 691 113 657 259 717 81 1 715 1856 3
27 46 0 117 718 691 719 83 1 716 3 81 1 117 2046 315 46 715 115 720 160 721 81 1
 718 1855 327 32 0 722 723 715 724 83 1 719 2 81 1 722 2051 315 32 718 44 725 72
6 727 81 1 723 1854 327 11 0 34 0 718 728 83 1 724 1 81 1 34 2054 315 11 723 30
 729 730 731 83 1 728 0 81 1 729 2053 315 179 732 36 726 34 733 81 1 730 2055 31
5 734 735 35 34 736 737 82 3 731 4 18 0 16 734 1170 35 ?40 738 739 740 0 0 1 81
 1 735 1934 327 734 0 730 741 742 743 81 1 35 2154 12 734 730 0 744 30 745 81 1
 736 2056 315 739 742 744 730 746 747 82 3 737 4 42 1 16 739 1179 744 ?43 734 14
0 748 0 0 1 81 1 742 1935 327 739 0 736 735 749 750 81 1 744 2153 12 739 736 0 7
51 35 752 81 1 746 2057 315 753 754 751 736 755 756 82 3 747 4 43 1 16 753 1188
 751 ?757 758 148 759 148 148 1 81 1 754 1931 327 753 0 746 760 761 762 81 1 751
 2152 12 753 746 0 763 744 764 81 1 755 2058 315 765 766 763 746 767 768 82 3 75
6 4 44 1 16 765 1191 763 ?769 770 771 772 0 0 1 81 1 766 1928 327 765 0 755 773
 774 775 81 1 763 2151 12 765 755 0 776 751 777 81 1 767 2059 315 738 741 776 75
5 778 779 82 3 768 4 45 1 16 738 1209 776 ?780 148 734 781 0 0 1 81 1 741 1933 3
27 738 0 767 761 735 782 81 1 776 2150 12 738 767 0 783 763 784 81 1 778 2060 31
5 771 774 783 767 785 786 82 3 779 4 46 1 16 771 1212 783 ?787 765 758 788 0 0 1
 81 1 774 1929 327 771 0 778 766 760 789 81 1 783 2149 12 771 778 0 790 776 791
 81 1 785 2061 315 140 749 790 778 792 793 82 3 786 4 47 1 16 140 1221 790 ?132
 739 125 141 125 125 1 81 1 749 1936 327 140 0 785 742 794 795 81 1 790 2148 12
 140 785 0 796 783 797 81 1 792 2062 315 758 760 796 785 798 799 82 3 793 4 48 1
 16 758 1224 796 ?127 771 753 800 0 0 1 81 1 760 1930 327 758 0 792 774 754 801
 81 1 796 2147 12 758 792 0 802 790 803 81 1 798 2063 315 148 761 802 792 804 80
5 82 3 799 4 49 1 16 148 1236 802 ?147 753 738 759 753 753 1 81 1 761 1932 327 1
48 0 798 754 741 806 81 1 802 2146 12 148 798 0 139 796 807 81 1 804 2064 315 12
5 794 139 798 808 809 82 3 805 4 50 1 81 1 794 1937 327 125 0 804 749 810 811 81
 1 139 2145 12 125 804 0 812 802 813 81 1 808 2065 315 814 815 812 804 816 817 8
2 3 809 4 51 1 16 814 1254 812 ?138 818 0 819 0 0 1 81 1 815 1942 327 814 0 808
 820 475 821 81 1 812 2144 12 814 808 0 822 139 823 81 1 816 2066 315 818 820 82
2 808 824 825 82 3 817 4 52 1 16 818 1259 822 ?826 827 814 828 0 0 1 81 1 820 19
41 327 818 0 816 829 815 830 81 1 822 2143 12 818 816 0 831 812 832 81 1 824 206
7 315 827 829 831 816 833 834 82 3 825 4 53 1 16 827 1264 831 ?835 42 818 836 0
 0 1 81 1 829 1940 327 827 0 824 837 820 838 81 1 831 2142 12 827 824 0 839 822
 840 81 1 833 2068 315 42 837 839 824 841 842 82 3 834 4 54 1 16 42 1269 839 ?31
 135 827 843 0 0 1 81 1 837 1939 327 42 0 833 810 829 844 81 1 839 2141 12 42 83
3 0 845 831 846 81 1 841 2069 315 135 810 845 833 847 848 82 3 842 4 55 1 16 135
 1274 845 ?123 125 42 849 0 0 1 81 1 810 1938 327 135 0 841 794 837 850 81 1 845
 2140 12 135 841 0 851 839 852 81 1 847 2070 315 853 854 851 841 855 856 82 3 84
8 4 56 1 18 853 1279 851 181 857 146 858 ?1 81 1 854 1874 327 853 0 847 859 860
 861 81 1 851 2139 12 853 847 0 862 845 863 81 1 855 2071 315 864 865 862 847 86
6 867 82 3 856 4 19 0 18 864 1287 862 157 146 868 869 ?1 81 1 865 1876 327 864 0
 855 860 870 871 81 1 862 2138 12 864 855 0 872 851 873 81 1 866 2072 315 868 87
0 872 855 874 875 82 3 867 4 20 0 18 868 1289 872 787 864 129 876 ?1 81 1 870 18
77 327 868 0 866 865 877 878 81 1 872 2137 12 868 866 0 879 862 880 81 1 874 207
3 315 129 877 879 866 881 882 82 3 875 4 21 0 18 129 1290 879 122 868 883 884 ?1
 81 1 877 1878 327 129 0 874 870 885 886 81 1 879 2136 12 129 874 0 887 872 888
 81 1 881 2074 315 146 860 887 874 889 890 82 3 882 4 22 0 18 146 1295 887 174 8
53 864 891 ?1 81 1 860 1875 327 146 0 881 854 865 892 81 1 887 2135 12 146 881 0
 893 879 894 81 1 889 2075 315 895 896 893 881 897 898 82 3 890 4 23 0 18 895 12
96 893 147 899 0 900 ?1 81 1 896 1883 327 895 0 889 901 902 903 81 1 893 2134 12
 895 889 0 904 887 905 81 1 897 2076 315 899 901 904 889 906 907 82 3 898 4 24 0
 18 899 1298 904 780 908 895 909 ?1 81 1 901 1882 327 899 0 897 910 896 911 81 1
 904 2133 12 899 897 0 912 893 913 81 1 906 2077 315 857 859 912 897 914 915 82
 3 907 4 25 0 18 857 1300 912 178 263 853 916 ?1 81 1 859 1873 327 857 0 906 917
 854 918 81 1 912 2132 12 857 906 0 919 904 920 81 1 914 2078 315 908 910 919 90
6 921 922 82 3 915 4 26 0 18 908 1301 919 40 133 899 923 ?1 81 1 910 1881 327 90
8 0 914 924 901 925 81 1 919 2131 12 908 914 0 926 912 927 81 1 921 2079 315 883
 885 926 914 560 928 82 3 922 4 27 0 18 883 1303 926 127 129 133 929 ?1 81 1 885
 1879 327 883 0 921 877 924 930 81 1 926 2130 12 883 921 0 931 919 932 81 1 560
 2080 315 133 924 931 921 552 933 82 3 928 4 28 0 18 133 1306 931 124 883 908 93
4 ?1 81 1 924 1880 327 133 0 560 885 910 935 81 1 931 2129 12 133 560 0 556 926
 936 82 3 933 4 29 0 81 1 556 2128 12 549 559 0 548 931 937 84 4 936 KF0B81 1 55
9 2113 374 549 552 556 569 551 938 81 1 548 2127 12 145 551 0 540 556 939 84 4 9
37 KFSB81 1 551 2114 374 145 544 548 559 543 940 81 1 540 2126 12 532 543 0 531
 548 941 84 4 939 KFWB81 1 543 2115 374 532 536 540 551 535 942 81 1 531 2125 12
 524 535 0 523 540 943 84 4 941 KFaB81 1 535 2116 374 524 527 531 543 526 944 81
 1 523 2124 12 515 526 0 514 531 945 84 4 943 KFeB81 1 526 2117 374 515 518 523
 535 517 946 81 1 514 2123 12 128 517 0 182 523 947 84 4 945 KFiB81 1 517 2118 3
74 128 511 514 526 508 948 81 1 182 2122 12 28 519 0 26 514 949 84 4 947 KFmB81
 1 519 2087 315 28 950 182 511 509 951 81 1 26 2121 12 10 509 0 505 182 952 84 4
 949 KFlD81 1 509 2088 315 10 902 26 519 502 953 81 1 505 2120 12 501 508 0 0 26
 954 84 4 952 KFpD81 1 508 2119 374 501 502 505 517 0 955 84 4 954 KFqB80 1 374
 0 956 8001 0 0 0 0 3 5 0 0 0 FFFFTFTFFFFFFFFF2 83 3 955 .615686274509804 .81176
4705882353 .929411764705882 79 15 956 SDL/TYSA_COLOUR81 1 902 1884 327 10 0 509
 896 950 957 82 3 953 4 58 1 81 1 950 1885 327 28 0 519 902 732 958 83 1 957 30
 81 1 732 1886 327 179 0 729 950 959 960 83 1 958 31 81 1 959 1887 327 175 0 726
 732 961 962 83 1 960 32 81 1 726 2052 315 175 959 177 722 729 963 81 1 961 1888
 327 171 0 725 959 964 965 83 1 962 33 81 1 725 2050 315 171 961 173 966 722 967
 81 1 964 1889 327 152 0 966 961 968 969 83 1 965 34 81 1 966 2049 315 152 964 1
70 970 725 971 81 1 968 1890 327 144 0 970 964 674 972 83 1 969 35 81 1 970 2048
 315 144 968 151 160 966 973 81 1 674 1891 327 131 0 160 968 671 974 83 1 972 36
 81 1 160 2047 315 131 674 118 117 970 975 83 1 974 37 82 3 975 4 36 1 81 1 151
 2161 12 144 970 0 170 118 976 82 3 973 4 37 1 81 1 170 2160 12 152 966 0 173 15
1 977 84 4 976 KFVC81 1 173 2159 12 171 725 0 44 170 978 84 4 977 KFZC81 1 44 21
58 12 32 722 0 177 173 979 84 4 978 KFdC81 1 177 2157 12 175 726 0 36 44 980 84
 4 979 KFEB81 1 36 2156 12 179 729 0 30 177 981 84 4 980 KFhC84 4 981 KFlC82 3 9
71 4 38 1 82 3 967 4 39 1 82 3 963 4 40 1 82 3 951 4 57 1 83 3 948 .615686274509
804 .811764705882353 .929411764705882 83 3 946 .615686274509804 .811764705882353
 .929411764705882 83 3 944 .615686274509804 .811764705882353 .929411764705882 83
 3 942 .615686274509804 .811764705882353 .929411764705882 83 3 940 .615686274509
804 .811764705882353 .929411764705882 81 1 569 2112 374 557 562 565 579 559 982
 83 3 938 .615686274509804 .811764705882353 .929411764705882 81 1 565 2184 12 55
7 569 0 242 575 983 81 1 579 2111 374 566 570 575 588 569 984 83 3 982 .61568627
4509804 .811764705882353 .929411764705882 81 1 575 2185 12 566 579 0 565 584 985
 81 1 588 2110 374 576 580 584 598 579 986 83 3 984 .615686274509804 .8117647058
82353 .929411764705882 81 1 584 2186 12 576 588 0 575 987 988 81 1 598 2109 374
 585 591 594 608 588 989 83 3 986 .615686274509804 .811764705882353 .92941176470
5882 81 1 594 2177 12 585 598 0 990 604 991 81 1 608 2108 374 595 599 604 617 59
8 992 83 3 989 .615686274509804 .811764705882353 .929411764705882 81 1 604 2178
 12 595 608 0 594 613 993 81 1 617 2107 374 605 609 613 627 608 994 83 3 992 .61
5686274509804 .811764705882353 .929411764705882 81 1 613 2179 12 605 617 0 604 9
95 996 81 1 627 2106 374 614 620 623 637 617 997 83 3 994 .615686274509804 .8117
64705882353 .929411764705882 81 1 623 2170 12 614 627 0 998 633 999 81 1 637 210
5 374 624 628 633 646 627 1000 83 3 997 .615686274509804 .811764705882353 .92941
1764705882 81 1 633 2171 12 624 637 0 623 642 1001 81 1 646 2104 374 634 638 642
 655 637 1002 83 3 1000 .615686274509804 .811764705882353 .929411764705882 81 1
 642 2172 12 634 646 0 633 1003 1004 81 1 655 2103 374 643 649 652 662 646 1005
 83 3 1002 .615686274509804 .811764705882353 .929411764705882 81 1 652 2194 12 6
43 655 0 1006 265 1007 81 1 662 2102 374 19 659 661 449 655 1008 83 3 1005 .6156
86274509804 .811764705882353 .929411764705882 81 1 661 2197 12 19 662 0 274 667
 1009 83 3 1008 .615686274509804 .811764705882353 .929411764705882 81 1 274 2196
 12 267 664 0 265 661 1010 81 1 667 2198 12 308 449 0 661 162 1011 84 3 1009 JFi
84 3 1011 JFe81 1 664 2013 315 267 433 274 659 656 1012 81 1 265 2195 12 257 656
 0 652 274 1013 84 4 1010 KFJB81 1 656 2014 315 257 1014 265 664 649 1015 84 4 1
013 KFNB81 1 1014 1911 327 257 0 656 433 1016 1017 82 3 1015 4 19 1 81 1 433 191
0 327 267 0 664 340 1014 1018 81 1 1016 1912 327 248 0 259 1014 1019 1020 83 1 1
017 57 81 1 259 2018 315 248 1016 255 714 1021 1022 81 1 1019 1913 327 166 0 249
 1016 1023 1024 83 1 1020 58 81 1 249 2020 315 166 1019 246 1021 1025 1026 81 1
 1023 1914 327 236 0 240 1019 1027 1028 83 1 1024 59 81 1 240 2027 315 236 1023
 238 571 1029 1030 81 1 1027 1915 327 233 0 1031 1023 1032 1033 83 1 1028 60 81
 1 1031 2034 315 233 1027 234 600 1034 1035 81 1 1032 1916 327 237 0 1025 1027 1
036 1037 83 1 1033 61 16 237 597 250 ?1038 233 1039 1040 0 0 1 81 1 1025 2021 31
5 237 1032 250 249 589 1041 81 1 1036 1917 327 1039 0 589 1032 1042 1043 83 1 10
37 62 16 1039 600 987 ?1044 237 1045 1046 0 0 1 81 1 589 2022 315 1039 1036 987
 1025 580 1047 81 1 1042 1918 327 1045 0 1021 1036 1048 1049 83 1 1043 63 16 104
5 586 251 ?1050 1039 1051 1052 0 0 1 81 1 1021 2019 315 1045 1042 251 259 249 10
53 81 1 1048 1919 327 1051 0 1029 1042 1054 1055 83 1 1049 64 16 1051 646 241 ?1
056 1045 1057 1058 0 0 1 81 1 1029 2028 315 1051 1048 241 240 618 1059 81 1 1054
 1920 327 1057 0 618 1048 1060 1061 83 1 1055 65 16 1057 649 995 ?1062 1051 1063
 1064 0 0 1 81 1 618 2029 315 1057 1054 995 1029 609 1065 81 1 1060 1921 327 106
3 0 571 1054 1066 1067 83 1 1061 66 16 1063 635 242 ?1068 1057 270 1069 0 0 1 81
 1 571 2026 315 1063 1060 242 562 240 1070 81 1 1066 1922 327 270 0 1034 1060 10
71 1072 83 1 1067 67 16 270 701 1073 ?1074 1063 1075 269 0 0 1 81 1 1034 2035 31
5 270 1066 1073 1031 647 1076 81 1 1071 1923 327 1075 0 647 1066 1077 1078 83 1
 1072 68 16 1075 704 1003 ?1079 270 1080 271 0 0 1 81 1 647 2036 315 1075 1071 1
003 1034 638 1081 81 1 1077 1924 327 1080 0 600 1071 1082 1083 83 1 1078 69 16 1
080 687 990 ?1084 1075 1085 1086 0 0 1 81 1 600 2033 315 1080 1077 990 591 1031
 1087 81 1 1082 1925 327 1085 0 1088 1077 1089 1090 83 1 1083 70 16 1085 934 109
1 ?1092 1080 1093 1094 0 0 1 81 1 1088 2041 315 1085 1082 1091 629 1095 1096 81
 1 1089 1926 327 1093 0 1095 1082 773 1097 83 1 1090 71 16 1093 937 1098 ?1099 1
085 770 1100 0 0 1 81 1 1095 2042 315 1093 1089 1098 1088 1101 1102 81 1 773 192
7 327 770 0 629 1089 766 1103 83 1 1097 72 16 770 931 998 ?1104 1093 765 1105 0
 0 1 81 1 629 2040 315 770 773 998 620 1088 1106 83 1 1103 73 81 1 998 2169 12 7
70 629 0 1091 623 1107 82 3 1106 4 33 1 81 1 1091 2168 12 1085 1088 0 1098 998 1
108 84 4 1107 KFFC81 1 1098 2167 12 1093 1095 0 1109 1091 1110 84 4 1108 KFJC81
 1 1109 2166 12 263 1101 0 1111 1098 1112 84 4 1110 KFNC18 263 949 1109 1099 111
3 857 1114 ?1 81 1 1101 2043 315 263 917 1109 1095 1115 1116 81 1 1111 2165 12 1
113 1115 0 119 1109 1117 84 3 1112 JF018 1113 950 1111 1118 109 263 1119 ?1 81 1
 1115 2044 315 1113 1120 1111 1101 720 1121 81 1 119 2164 12 109 720 0 115 1111
 1122 84 3 1117 JF418 109 952 119 1123 105 1113 104 ?1 81 1 720 2045 315 109 423
 119 1115 117 1124 84 3 1122 JF881 1 423 1870 327 109 0 720 419 1120 1125 82 3 1
124 4 15 0 81 1 1120 1871 327 1113 0 1115 423 917 1126 83 1 1125 16 81 1 917 187
2 327 263 0 1101 1120 859 1127 83 1 1126 17 83 1 1127 18 17 1123 0 625 1118 1084
 109 1099 1093 0 1092 -29 104 993 0 109 1119 102 -.00163135594083802 .0057739655
1724138 .011 29 1119 994 0 1113 1114 104 .00163135594083802 .00577396551724138 .
011 29 1114 996 0 263 916 1119 -.001936363897816745 .00829426761667302 .008 29 9
16 1399 0 857 858 1114 .01 -.007 .006 29 858 1400 0 853 891 916 .01 -.007 .0015
 29 891 1401 0 146 869 858 -.003741657386773945 -.0025 .0015 29 869 1402 0 864 8
76 891 .00374165738677394 -.0025 .0015 29 876 1403 0 868 884 869 .01 -.0025 .001
5 29 884 1405 0 129 929 876 .00374165738677395 -.0025 .0035 29 929 1407 0 883 93
4 884 .01 -.005 .006 29 934 1408 0 133 923 929 -.01 -.0025 .0035 29 923 1410 0 9
08 909 934 -.01 -.007 .006 29 909 1411 0 899 900 923 -.01 -.007 .0015 29 900 141
2 0 895 0 909 -.01 -.0025 .0015 15 625 742 0 1084 614 1128 17 1118 0 625 114 112
3 1113 1092 1085 0 1104 -17 1084 0 625 1123 114 263 262 1080 0 256 +17 1099 0 11
29 264 266 263 1123 1093 0 1084 +17 1092 0 1130 1131 1131 109 1118 1085 0 266 +1
5 1130 449 0 1131 643 0 17 1131 0 1130 1092 1092 1113 266 257 0 0 -17 266 0 1129
 1099 1104 109 1131 257 0 0 +15 1129 454 0 266 17 0 17 1104 0 1129 266 264 1113
 114 770 0 1131 +17 264 0 1129 1104 1099 63 256 248 0 0 -17 114 0 625 1084 1118
 63 1104 770 0 262 -17 262 0 261 256 256 63 1084 1080 0 264 -15 261 567 0 262 30
6 0 14 17 450 1006 ?306 0 1129 5 1132 +0 0 306 0 25 81 1 1006 2193 12 17 477 0 1
13 652 1133 52 255 1132 460 0 17 645 654 1134 +0 0 .008 0 0 -1 .0085172988935318
4 .642787609686539 .766044443118978 -1 0 0 13 25 75 0 0 0 0 0 0 9 17 51 645 752
 0 634 636 1132 0 -743932557513033e-35 .00725 -.02655400325776035 0 0 1 .0011 1
 0 0 50 255 654 459 0 643 1132 474 0 +-.00525 0 .011 0 0 1 1 0 0 141 255 1134 11
05 1135 1135 1132 38 12 CCCCCCCCCCCA17 intersection_data204 0 Z1105 988 0 770 77
2 1100 0 +1132 1136 1137 1138 1139 1140 141 1135 1100 1134 1134 1132 38 1100 987
 0 1093 1105 1094 0 +1132 1136 1141 1142 1143 1144 31 1094 986 0 1085 1100 1052
 0 -743932557513033e-35 .00725 .011 0 0 1 1 0 0 .0022 51 1136 982 0 1 550 568 11
45 -743932557513033e-35 .00725 .0402335299172952 0 0 -1 .0022 -1 0 0 40 255 4 11
41 0 1 4 .000303691313284539 .3486533785882845 ??-.001631230269676145 .005773826
6337275 .0110002 -.0021348017161224 .00671837829912515 .00974937843093064 -.0021
21711692798575 .00783166957341935 .00848065399563227 -.001936257559583665 .00829
446477343906 .0079998 41 3 CI8 term_use0 0 1 cCZ1 1142 L?-.001631230269676145 .0
057738266337275 .0110002 41 1 1143 L?-.001936257559583665 .00829446477343906 .00
79998 204 2 17 INTERSECTION_DATA17 Intersection data7 uv_type0 0 1 u6 values0 1
 1 fT16 1144 4 1.29545095416698 -.0030002 5.54764497364338 .0292333299172952 1.2
63130710967362 -.001749378430930645 6.03912330896753 .03048415148636455 1.306232
463156922 -.000480653995632267 .267576814948341 .03175287592166295 1.34146349942
6092 200000000000547e-21 .494687587875664 .0322337299172952 50 550 1374 0 145 54
2 1136 0 +.0242335299172952 -.0025 .0025 2312964634635745e-31 1 0 -1 23129646346
35745e-31 0 51 568 764 0 557 1136 578 0 --.007 -.012 -.02655400325776035 0 0 1 .
0022 1 0 0 141 1145 1105 1146 1146 1136 141 1146 1100 1145 1145 1136 50 578 763
 0 566 568 587 0 +-.007 -.01035 .006 0 0 1 1 0 0 51 587 762 0 576 578 597 0 --.0
07 -.012 -.02655400325776035 0 0 1 .0011 1 0 0 51 597 759 0 585 587 607 0 -.007
 -.012 -.02655400325776035 0 0 1 .0022 1 0 0 50 607 758 0 595 597 616 0 +.007 -.
01035 .006 0 0 1 1 0 0 51 616 757 0 605 607 626 0 -.007 -.012 -.0265540032577603
5 0 0 1 .0011 1 0 0 51 626 754 0 614 616 636 0 -743932557513033e-35 .00725 -.026
55400325776035 0 0 1 .0022 1 0 0 50 636 753 0 624 626 645 0 +743932557513033e-35
 .0089 .006 0 0 1 1 0 0 50 542 1375 0 532 534 550 0 +.0242335299172952 -.00475 .
0015 0 0 -1 -1 0 0 50 534 1376 0 524 525 542 0 +.0242335299172952 -.007 .00375 -
2312964634635745e-31 -1 0 1 -2312964634635745e-31 0 50 525 1377 0 515 516 534 0
 +.0242335299172952 -.006 .006 0 0 1 1 0 0 50 516 1378 0 128 0 525 0 +.024233529
9172952 -.00375 .00475 16355129777956e-29 .707106781186548 .707106781186548 0 -.
707106781186548 .707106781186548 31 1052 776 0 1045 1094 1046 0 +-.007 -.012 .00
8 0 0 1 1 0 0 .0022 31 1046 775 0 1039 1052 1040 0 +-.007 -.012 .006 0 0 1 1 0 0
 .0022 31 1040 774 0 237 1046 1069 0 +-.007 -.012 .006 0 0 1 1 0 0 .0011 31 1069
 772 0 1063 1040 1064 0 +.007 -.012 .008 0 0 1 1 0 0 .0022 31 1064 771 0 1057 10
69 1058 0 +.007 -.012 .006 0 0 1 1 0 0 .0022 31 1058 770 0 1051 1064 1086 0 +.00
7 -.012 .006 0 0 1 1 0 0 .0011 31 1086 768 0 1080 1058 271 0 +743932557513033e-3
5 .00725 .008 0 0 1 1 0 0 .0022 31 271 767 0 1075 1086 269 0 +743932557513033e-3
5 .00725 .006 0 0 1 1 0 0 .0022 30 772 1381 0 765 788 1105 0 +.01 -.0025 .008 0
 0 1 40 4 1137 0 1 4 .0002940206701800365 .336025595417364 ??.001936257559583665
 .00829446477343906 .0079998 .002196539098657195 .00737335310320478 .00898167407
260131 .001973522596808385 .00627778162952525 .0103079739395292 .001631230269676
145 .0057738266337275 .0110002 41 1 1138 L?.001936257559583665 .0082944647734390
6 .0079998 41 1 1139 L?.001631230269676145 .0057738266337275 .0110002 204 16 114
0 4 1.8001291541637 200000000000547e-21 2.64690506571413 .0322337299172952 1.860
32754769777 -.000981674072601309 3.085493640994045 .0312518558446939 1.875380493
69192 -.00230797393952921 3.59932768715201 .029925555977766 1.846141699422815 -.
0030002 3.877132987125995 .0292333299172952 30 788 1382 0 771 800 772 0 +.01 -.0
075 .0015 2312964634635745e-31 1 0 30 800 1383 0 758 759 788 0 +.01 -.00725 .008
25 -16355129777956e-29 -.707106781186548 .707106781186548 30 759 1384 0 148 781
 800 0 +.0242335299172952 -.0025 .0015 -1 2312964634635745e-31 0 30 781 1385 0 7
38 740 759 0 +.0242335299172952 -.007 .0015 -1 2312964634635745e-31 0 30 740 138
6 0 734 748 781 0 +.0242335299172952 -.007 .006 -1 2312964634635745e-31 0 30 748
 1387 0 739 141 740 0 +.0242335299172952 -.005 .006 -1 2312964634635745e-31 0 30
 141 1388 0 125 849 748 0 +.0242335299172952 -.0025 .0035 -1 2312964634635745e-3
1 0 30 849 1389 0 135 843 141 0 +-.01 -.00375 .00475 16355129777956e-29 .7071067
81186548 -.707106781186548 30 843 1390 0 42 836 849 0 +-.01 -.006 .006 231296463
4635745e-31 1 0 30 836 1391 0 827 828 843 0 +-.01 -.007 .00375 0 0 1 30 828 1392
 0 818 819 836 0 +-.01 -.00475 .0015 -2312964634635745e-31 -1 0 30 819 1393 0 81
4 0 828 0 +-.01 -.0025 .0025 0 0 -1 50 474 3 0 306 654 446 0 +0 -.00225 .008 0 0
 1 1 0 0 50 446 157 0 297 474 405 0 +0 -.00225 0 0 0 1 1 0 0 51 405 183 0 290 44
6 401 0 -0 5e-4 .008 0 0 -1 .01 -1 0 0 50 401 184 0 368 405 384 0 +.01 -.0075 .0
08 1 -2312964634635745e-31 0 2312964634635745e-31 1 0 50 384 186 0 295 401 370 0
 +-.01 -.0075 .008 1 -2312964634635745e-31 0 2312964634635745e-31 1 0 51 370 187
 0 155 384 507 0 -0 2755455298081545e-34 .008 0 0 -1 .0045 -1 0 0 52 507 1524 11
47 501 370 394 0 -0 2755455298081545e-34 0 0 0 -1 .0055 .707106781186548 .707106
781186548 -1 0 0 81 2 1147 1525 1148 507 0 0 0 0 1149 1150 50 394 1802 0 304 507
 20 0 +0 -.02135 .008 0 1 0 0 0 1 51 20 1821 0 308 394 6 0 +.007 -.01835 .008 0
 0 1 .003 1 0 0 80 2 1148 1151 1152 8044 0 0 0 0 3 5 0 0 0 FFFFTFFFTTFFFFFF3 2 8
4 6 1149 BAAAAB83 3 1150 -.001 0 .001 79 17 1152 SDL/TYSA_BLEND_ID81 1 477 2093
 374 17 657 1006 0 388 1153 81 1 113 2192 12 63 714 0 255 1006 1154 84 3 1133 JF
q84 3 1154 JFw81 1 657 2016 315 17 475 477 649 714 1155 83 3 1153 .6156862745098
04 .811764705882353 .929411764705882 81 1 475 1943 327 17 0 657 815 385 1156 82
 3 1155 4 10 2 83 1 1156 89 15 1128 743 0 1157 614 0 17 1157 0 1128 1157 1157 0
 1079 1075 0 0 -17 1079 0 635 1079 1079 0 1157 1075 0 0 +15 635 737 0 1079 624 1
158 15 1158 738 0 1159 624 0 17 1159 0 1158 1159 1159 0 1074 270 0 0 -17 1074 0
 644 1074 1074 0 1159 270 0 0 +15 644 714 0 1074 634 1160 15 1160 715 0 235 634
 0 17 235 0 1160 235 235 0 1161 233 0 0 +17 1161 0 1162 1161 1161 0 235 233 0 0
 -15 1162 533 0 1161 297 292 82 3 1121 4 14 0 82 3 1116 4 13 0 82 3 1102 4 35 1
 82 3 1096 4 34 1 81 1 990 2176 12 1080 600 0 234 594 1163 82 3 1087 4 29 1 81 1
 234 2175 12 233 1031 0 1073 990 1164 84 4 1163 KF1B81 1 1073 2174 12 270 1034 0
 1003 234 1165 84 4 1164 KF5B81 1 1003 2173 12 1075 647 0 642 1073 1166 84 4 116
5 KF9B84 4 1166 KFBC82 3 1081 4 32 1 82 3 1076 4 31 1 81 1 242 2183 12 1063 571
 0 238 565 1167 82 3 1070 4 25 1 84 4 1167 KFlB17 1068 0 596 1068 1068 0 1168 10
63 0 0 +15 596 681 0 1068 585 1169 17 1168 0 307 1168 1168 0 1068 1063 0 0 -15 3
07 553 0 1168 306 1170 15 1170 560 0 1171 306 261 17 1171 0 1170 1171 1171 0 105
0 1045 0 0 -17 1050 0 567 1050 1050 0 1171 1045 0 0 +15 567 632 0 1050 557 1172
 15 1172 633 0 1173 557 0 17 1173 0 1172 1173 1173 0 1044 1039 0 0 -17 1044 0 57
7 1044 1044 0 1173 1039 0 0 +15 577 627 0 1044 566 1174 15 1174 628 0 1175 566 0
 17 1175 0 1174 1175 1175 0 1038 237 0 0 -17 1038 0 586 1038 1038 0 1175 237 0 0
 +15 586 608 0 1038 576 253 15 253 609 0 247 576 0 15 1169 682 0 1176 585 0 17 1
176 0 1169 1176 1176 0 1062 1057 0 0 -17 1062 0 606 1062 1062 0 1176 1057 0 0 +1
5 606 676 0 1062 595 1177 15 1177 677 0 1178 595 0 17 1178 0 1177 1178 1178 0 10
56 1051 0 0 -17 1056 0 615 1056 1056 0 1178 1051 0 0 +15 615 657 0 1056 605 244
 15 244 658 0 239 605 0 81 1 995 2180 12 1057 618 0 613 241 1179 82 3 1065 4 28
 1 81 1 241 2181 12 1051 1029 0 995 238 1180 84 4 1179 KFxB84 4 1180 KFtB82 3 10
59 4 27 1 81 1 251 2190 12 1045 1021 0 246 255 1181 82 3 1053 4 21 1 84 4 1181 K
FVB81 1 987 2187 12 1039 589 0 584 250 1182 82 3 1047 4 24 1 81 1 250 2188 12 23
7 1025 0 987 246 1183 84 4 1182 KFhB84 4 1183 KFdB82 3 1041 4 23 1 82 3 1035 4 3
0 1 82 3 1030 4 26 1 82 3 1026 4 22 1 82 3 1022 4 20 1 83 1 1018 56 82 3 1012 4
 18 1 84 3 1007 JFm84 4 1004 KFGB84 4 1001 KFKB84 4 999 KFOB84 3 996 JF684 3 993
 JF+84 4 991 KFCB84 3 988 JFu84 3 985 JFy84 3 983 JF283 1 935 26 84 4 932 KFwB83
 1 930 25 17 127 0 121 43 45 883 1184 758 0 39 +17 43 0 121 123 127 11 39 739 0
 134 +17 45 0 121 127 122 32 132 140 0 769 -17 1184 0 400 1185 1186 32 127 758 0
 0 -17 39 0 38 178 31 883 43 739 0 1186 -15 38 1359 0 178 515 0 17 178 0 38 40 3
9 857 1186 175 0 1187 +17 1186 0 400 1184 1188 883 178 175 0 0 -15 400 1112 0 11
85 368 216 17 1188 0 400 1186 1189 857 181 179 0 0 -17 1189 0 400 1188 1185 853
 787 771 0 0 -17 181 0 533 780 1187 853 1188 179 0 1190 +15 533 1355 0 181 524 0
 17 780 0 533 835 181 899 1190 738 0 826 +17 1187 0 533 181 835 857 40 734 0 118
8 -17 1190 0 541 787 826 853 780 738 0 1189 -15 541 1351 0 787 532 0 17 787 0 54
1 757 1190 868 1189 771 0 1191 +17 826 0 541 1190 147 899 1192 818 0 1193 +17 14
7 0 541 826 174 895 142 148 0 138 +17 1192 0 383 136 1193 895 826 818 0 0 -17 11
93 0 383 1192 41 899 835 827 0 0 -15 383 1117 0 1192 295 294 17 41 0 383 1193 13
4 908 31 42 0 0 -17 835 0 533 1187 780 908 1193 827 0 41 +17 134 0 383 41 136 11
 123 135 0 0 -17 136 0 383 134 1192 133 138 814 0 0 -17 138 0 137 142 124 895 13
6 814 0 1192 +17 174 0 541 147 757 146 150 171 0 142 +17 757 0 541 174 787 864 1
191 753 0 150 +17 150 0 149 154 143 864 174 171 0 0 -17 1191 0 558 769 157 868 7
57 753 0 1185 -15 558 1327 0 769 549 0 17 769 0 558 132 1191 32 1185 765 0 1184
 +17 157 0 558 1191 132 864 154 152 0 757 +17 1185 0 400 1189 1184 868 769 765 0
 0 -17 132 0 558 157 769 129 45 140 0 154 +17 40 0 38 31 178 908 1187 734 0 835
 +15 216 173 0 218 368 0 17 218 0 216 85 100 58 96 209 0 82 +17 100 0 216 218 21
7 88 108 213 0 97 -17 96 0 94 87 73 88 218 209 0 0 -17 217 0 216 100 85 105 219
 197 0 0 -17 97 0 227 108 99 88 87 98 0 96 -84 4 927 KFsB83 1 925 27 84 4 920 KF
oB83 1 918 19 84 4 913 KFkB83 1 911 28 84 4 905 KFgB83 1 903 29 84 4 894 KFcB83
 1 892 21 84 4 888 KFYB83 1 886 24 84 4 880 KFUB83 1 878 23 84 4 873 KFQB83 1 87
1 22 84 4 863 KFMB83 1 861 20 84 4 852 KFhD83 1 850 84 84 4 846 KFdD83 1 844 85
 84 4 840 KFZD83 1 838 86 84 4 832 KFVD83 1 830 87 84 4 823 KFRD83 1 821 88 84 4
 813 KFND83 1 811 83 84 4 807 KFJD83 1 806 78 84 4 803 KFFD83 1 801 76 84 4 797
 KFBD83 1 795 82 84 4 791 KF9C83 1 789 75 84 4 784 KF5C83 1 782 79 84 4 777 KF1C
83 1 775 74 84 4 764 KFxC83 1 762 77 84 4 752 KFtC83 1 750 81 84 4 745 KFpC83 1
 743 80 82 3 733 4 41 1 82 3 727 4 17 0 82 3 721 4 16 0 82 3 717 4 12 0 84 3 687
 JF983 1 686 40 84 4 682 KFBB83 1 681 39 84 4 677 KFFB83 1 676 38 83 3 670 .6156
86274509804 .811764705882353 .929411764705882 82 3 665 4 8 2 82 3 658 4 9 2 15 6
53 448 0 275 643 1130 17 275 0 653 275 275 0 1194 267 0 0 +17 1194 0 156 1194 11
94 0 275 267 0 0 -15 156 444 0 1194 155 0 82 3 648 4 17 2 82 3 639 4 18 2 82 3 6
30 4 19 2 82 3 619 4 14 2 82 3 610 4 15 2 82 3 601 4 16 2 82 3 590 4 11 2 82 3 5
81 4 12 2 82 3 572 4 13 2 82 3 561 4 20 2 82 3 553 4 21 2 82 3 545 4 22 2 82 3 5
37 4 23 2 82 3 528 4 24 2 82 3 520 4 25 2 82 3 510 4 26 2 15 506 1518 0 1195 501
 1196 17 1195 0 506 1195 1195 0 27 10 0 0 -15 1196 1519 0 1197 501 0 17 1197 0 1
196 1197 1197 0 183 28 0 0 -17 183 0 445 183 183 0 1197 28 0 0 +15 445 1500 0 18
3 297 1198 15 1198 547 0 254 297 1199 17 254 0 1198 254 254 0 247 166 0 0 -15 11
99 540 0 245 297 1162 17 245 0 1199 245 245 0 239 236 0 0 -17 27 0 369 27 27 0 1
195 10 0 0 +15 369 1506 0 27 155 149 79 13 500 BTI/importTag79 18 496 BTI/import
MaxCount81 1 14 2235 12 306 388 0 277 2 1200 83 3 478 .615686274509804 .81176470
5882353 .929411764705882 84 3 1200 JFC83 1 476 90 84 3 471 JFB83 1 470 51 84 3 4
67 JFF83 1 466 49 84 3 462 JFJ83 1 461 48 84 2 457 IF83 1 456 13 83 1 453 12 81
 1 91 2229 12 297 408 0 287 86 1201 83 3 450 .615686274509804 .811764705882353 .
929411764705882 84 3 1201 JFG83 1 448 96 83 1 443 52 84 3 439 JFR83 1 438 53 84
 3 435 JFV83 1 434 55 84 3 430 JFI83 1 429 14 84 3 425 JFM83 1 424 15 84 3 418 J
FZ83 1 417 47 83 1 413 46 81 1 224 2221 12 290 376 0 399 220 1202 83 3 409 .6156
86274509804 .811764705882353 .929411764705882 81 1 399 2220 12 368 375 0 393 224
 1203 84 3 1202 JFK81 1 393 2219 12 304 389 0 382 399 1204 84 3 1203 JFO81 1 382
 2218 12 295 379 0 79 393 1205 84 3 1204 JFS81 1 79 2217 12 155 365 0 75 382 120
6 84 3 1205 JFW84 3 1206 JFa83 1 407 95 83 3 403 .615686274509804 .8117647058823
53 .929411764705882 83 1 402 93 83 3 396 .615686274509804 .811764705882353 .9294
11764705882 83 1 395 92 83 3 390 .615686274509804 .811764705882353 .929411764705
882 83 1 387 91 83 3 377 .615686274509804 .811764705882353 .929411764705882 83 1
 373 94 83 1 363 11 84 3 359 JFU83 1 358 10 83 1 355 45 84 3 351 JFY83 1 350 9 8
4 3 347 JFc83 1 346 8 84 3 342 JFl83 1 341 54 83 1 335 7 83 1 329 44 79 9 326 BT
I/DetId84 3 321 JFk82 3 320 4 11 1 79 12 316 BTI/ExportId84 3 311 JFg17 95 0 94
 68 87 59 291 210 0 301 +17 301 0 299 296 300 59 68 188 0 0 -17 62 0 294 291 285
 59 296 158 0 95 +84 3 289 JFN84 4 260 KFRB84 4 252 KFZB84 4 243 KFpB84 3 226 JF
d84 3 215 JFh84 4 161 KFRC84 4 120 KFAB84 3 93 JFE84 3 80 JFQ84 4 37 KFIB19 18 1
93 0 1 0 9 5 0 S0 74 4 CI16 index_map_offset0 0 1 dCCZ20 16 9 0 0 1147 483 479 5
02 480 486 13 508 2 0 0 0 0 0 0 0 0 0 0 0 84 3 15 JFD1 0 
